<svg width="48" height="48" viewBox="0 0 48 48" fill="none" xmlns="http://www.w3.org/2000/svg">
<path d="M48 24C48 37.2548 37.2548 48 24 48C10.7452 48 0 37.2548 0 24C0 10.7452 10.7452 0 24 0C37.2548 0 48 10.7452 48 24Z" fill="#C85C22"/>
<path d="M19.26 30V27.948C19.668 27.708 20.112 27.408 20.592 27.048C21.072 26.688 21.54 26.292 21.996 25.86C22.464 25.428 22.884 24.984 23.256 24.528C23.64 24.06 23.946 23.598 24.174 23.142C24.402 22.686 24.516 22.26 24.516 21.864C24.516 21.228 24.318 20.766 23.922 20.478C23.538 20.178 23.046 20.028 22.446 20.028C21.87 20.028 21.336 20.154 20.844 20.406C20.352 20.658 19.86 20.976 19.368 21.36V18.876C19.836 18.588 20.388 18.33 21.024 18.102C21.672 17.874 22.44 17.76 23.328 17.76C24.66 17.76 25.674 18.084 26.37 18.732C27.078 19.38 27.432 20.286 27.432 21.45C27.432 22.098 27.294 22.704 27.018 23.268C26.742 23.82 26.376 24.342 25.92 24.834C25.464 25.326 24.972 25.782 24.444 26.202C23.928 26.61 23.424 26.988 22.932 27.336H27.666V30H19.26Z" fill="white"/>
</svg>
