<svg width="48" height="48" viewBox="0 0 48 48" fill="none" xmlns="http://www.w3.org/2000/svg">
<path d="M48 24C48 37.2548 37.2548 48 24 48C10.7452 48 0 37.2548 0 24C0 10.7452 10.7452 0 24 0C37.2548 0 48 10.7452 48 24Z" fill="#C85C22"/>
<path d="M23.806 30.144C23.158 30.144 22.534 30.054 21.934 29.874C21.346 29.694 20.8 29.472 20.296 29.208V26.724C20.824 27.048 21.358 27.336 21.898 27.588C22.45 27.828 23.044 27.948 23.68 27.948C24.364 27.948 24.904 27.822 25.3 27.57C25.696 27.318 25.894 26.952 25.894 26.472C25.894 25.992 25.726 25.608 25.39 25.32C25.054 25.032 24.466 24.888 23.626 24.888H21.844V22.692H23.662C24.238 22.692 24.664 22.572 24.94 22.332C25.216 22.08 25.354 21.78 25.354 21.432C25.354 20.928 25.156 20.58 24.76 20.388C24.376 20.184 23.914 20.082 23.374 20.082C22.966 20.082 22.54 20.136 22.096 20.244C21.664 20.34 21.142 20.532 20.53 20.82V18.606C20.974 18.378 21.46 18.192 21.988 18.048C22.528 17.904 23.086 17.832 23.662 17.832C24.394 17.832 25.084 17.946 25.732 18.174C26.38 18.402 26.908 18.762 27.316 19.254C27.724 19.734 27.928 20.352 27.928 21.108C27.928 21.564 27.82 21.966 27.604 22.314C27.4 22.65 27.154 22.92 26.866 23.124C26.59 23.328 26.35 23.448 26.146 23.484C26.47 23.58 26.812 23.766 27.172 24.042C27.532 24.306 27.832 24.66 28.072 25.104C28.324 25.536 28.45 26.04 28.45 26.616C28.45 27.456 28.228 28.134 27.784 28.65C27.352 29.166 26.782 29.544 26.074 29.784C25.366 30.024 24.61 30.144 23.806 30.144Z" fill="white"/>
</svg>
