<svg width="216" height="115" viewBox="0 0 216 115" fill="none" xmlns="http://www.w3.org/2000/svg">
<path d="M214.104 32.2509C213.918 32.2537 213.736 32.3018 213.572 32.3911L211.081 30.5402C211.338 30.1241 211.527 29.6697 211.641 29.194H212.76C212.845 29.3816 212.989 29.5357 213.17 29.6321C213.351 29.7284 213.56 29.7615 213.762 29.7262C213.964 29.6908 214.149 29.589 214.287 29.4367C214.425 29.2845 214.508 29.0906 214.524 28.8855C214.503 28.655 214.396 28.4406 214.225 28.2849C214.054 28.1291 213.831 28.0433 213.6 28.0442C213.407 28.0509 213.221 28.1162 213.066 28.2314C212.911 28.3466 212.795 28.5063 212.732 28.6892H211.697C211.722 28.037 211.577 27.3894 211.277 26.8103L213.236 25.1276C213.356 25.1534 213.48 25.1534 213.6 25.1276C213.845 25.1276 214.08 25.0301 214.253 24.8566C214.427 24.683 214.524 24.4476 214.524 24.2022C214.524 24.0819 214.5 23.9629 214.453 23.8521C214.407 23.7414 214.338 23.6412 214.252 23.5575C214.166 23.4737 214.064 23.4082 213.952 23.3648C213.84 23.3214 213.72 23.301 213.6 23.3047C213.483 23.3047 213.366 23.3279 213.257 23.373C213.149 23.4181 213.05 23.4842 212.967 23.5676C212.884 23.6509 212.818 23.7498 212.773 23.8587C212.728 23.9676 212.704 24.0843 212.704 24.2022C212.66 24.3388 212.66 24.4862 212.704 24.6228L210.885 26.1933C210.461 25.5806 209.941 25.0408 209.345 24.5948L208.785 24.2302L209.149 23.7815C209.269 23.7852 209.389 23.7648 209.5 23.7214C209.612 23.678 209.714 23.6125 209.801 23.5288C209.887 23.4451 209.955 23.3448 210.002 23.2341C210.049 23.1234 210.073 23.0043 210.073 22.8841C210.073 22.6386 209.976 22.4032 209.802 22.2297C209.629 22.0561 209.394 21.9586 209.149 21.9586C208.977 21.9661 208.811 22.0214 208.669 22.1183C208.527 22.2153 208.415 22.35 208.345 22.5073C208.275 22.6647 208.25 22.8384 208.274 23.009C208.297 23.1796 208.368 23.3403 208.477 23.473L208.113 23.9217C207.4 23.5362 206.6 23.3429 205.79 23.3608L205.258 21.566C205.382 21.4908 205.484 21.3834 205.553 21.2551C205.622 21.1269 205.656 20.9824 205.65 20.8368C205.653 20.7166 205.633 20.5969 205.59 20.4848C205.546 20.3727 205.481 20.2704 205.397 20.1841C205.314 20.0977 205.214 20.0291 205.103 19.9823C204.993 19.9354 204.874 19.9113 204.754 19.9114C204.509 19.9114 204.274 20.0089 204.101 20.1824C203.927 20.356 203.83 20.5914 203.83 20.8368C203.837 21.068 203.929 21.2883 204.09 21.4544C204.251 21.6205 204.467 21.7203 204.698 21.7343L205.202 23.4169C204.616 23.5191 204.067 23.7702 203.606 24.1461L203.326 23.7254C203.367 23.5882 203.367 23.4419 203.326 23.3047C203.33 23.1204 203.279 22.9392 203.179 22.7844C203.079 22.6295 202.935 22.5079 202.766 22.4354C202.646 22.4353 202.527 22.4594 202.417 22.5063C202.306 22.5531 202.206 22.6217 202.123 22.708C202.039 22.7944 201.974 22.8966 201.93 23.0088C201.887 23.1209 201.867 23.2406 201.87 23.3608C201.87 23.5988 201.965 23.8271 202.133 23.9954C202.301 24.1637 202.529 24.2582 202.766 24.2582H203.13L203.41 24.6789L203.074 25.0715C202.86 25.3474 202.682 25.6488 202.542 25.9689L199.743 24.3704C199.757 24.2774 199.757 24.1829 199.743 24.09C199.76 23.9557 199.747 23.8191 199.705 23.6905C199.662 23.5619 199.591 23.4447 199.497 23.3475C199.403 23.2504 199.288 23.1759 199.161 23.1296C199.033 23.0834 198.898 23.0665 198.763 23.0804C198.643 23.0766 198.524 23.0971 198.412 23.1405C198.3 23.1839 198.198 23.2494 198.111 23.3331C198.025 23.4168 197.957 23.517 197.91 23.6278C197.863 23.7385 197.839 23.8575 197.839 23.9778C197.839 24.2232 197.937 24.4586 198.11 24.6322C198.283 24.8058 198.518 24.9033 198.763 24.9033C198.945 24.9033 199.122 24.8442 199.267 24.735L202.29 26.4176C202.21 26.6832 202.154 26.9554 202.122 27.2309L200.611 26.9224C200.59 26.6919 200.483 26.4775 200.312 26.3218C200.141 26.166 199.918 26.0802 199.687 26.0811C199.449 26.0811 199.221 26.1757 199.053 26.344C198.885 26.5123 198.791 26.7405 198.791 26.9785C198.787 27.0987 198.808 27.2184 198.851 27.3306C198.894 27.4427 198.96 27.545 199.043 27.6313C199.127 27.7176 199.227 27.7863 199.337 27.8331C199.448 27.8799 199.567 27.9041 199.687 27.904C199.834 27.8997 199.979 27.8622 200.11 27.7942C200.24 27.7263 200.354 27.6296 200.443 27.5114L202.066 27.8479C202.07 28.3423 202.146 28.8335 202.29 29.3062L198.931 30.9047C198.849 30.7782 198.737 30.6737 198.605 30.6003C198.473 30.527 198.326 30.4871 198.175 30.4841C197.93 30.4841 197.695 30.5816 197.522 30.7551C197.349 30.9287 197.251 31.1641 197.251 31.4095C197.251 31.5298 197.275 31.6488 197.322 31.7596C197.369 31.8703 197.437 31.9705 197.523 32.0542C197.61 32.1379 197.712 32.2034 197.824 32.2469C197.936 32.2903 198.055 32.3107 198.175 32.3069C198.399 32.3079 198.615 32.225 198.781 32.0745C198.946 31.924 199.05 31.7168 199.071 31.4937L202.486 29.8671C202.589 30.1153 202.721 30.3506 202.878 30.5682L202.038 31.073C201.912 30.9435 201.743 30.8639 201.562 30.8486C201.442 30.8449 201.323 30.8653 201.211 30.9087C201.099 30.9521 200.997 31.0177 200.911 31.1014C200.825 31.1851 200.756 31.2853 200.709 31.396C200.663 31.5068 200.639 31.6258 200.639 31.7461C200.639 31.9915 200.736 32.2269 200.909 32.4005C201.082 32.574 201.317 32.6715 201.562 32.6715C201.683 32.6716 201.801 32.6475 201.912 32.6006C202.022 32.5538 202.122 32.4852 202.206 32.3988C202.29 32.3125 202.355 32.2102 202.398 32.0981C202.442 31.986 202.462 31.8662 202.458 31.7461V31.5498L203.298 31.0169C203.541 31.2975 203.813 31.5514 204.11 31.7741L204.586 32.0826L203.606 33.8213H203.354C203.109 33.8213 202.874 33.9188 202.701 34.0924C202.528 34.266 202.43 34.5014 202.43 34.7468C202.43 34.867 202.454 34.9861 202.501 35.0968C202.548 35.2076 202.616 35.3078 202.703 35.3915C202.789 35.4752 202.891 35.5407 203.003 35.5841C203.115 35.6275 203.234 35.648 203.354 35.6442C203.472 35.6442 203.588 35.621 203.697 35.5759C203.806 35.5308 203.904 35.4647 203.988 35.3814C204.071 35.298 204.137 35.1991 204.182 35.0902C204.227 34.9813 204.25 34.8646 204.25 34.7468C204.254 34.5555 204.195 34.3682 204.082 34.214L205.146 32.3911C205.651 32.608 206.192 32.7315 206.742 32.7557V33.1763C206.549 33.2356 206.381 33.3543 206.26 33.5156C206.139 33.6768 206.073 33.8722 206.07 34.0737C206.077 34.3143 206.177 34.5425 206.35 34.7101C206.522 34.8776 206.753 34.9713 206.993 34.9712C207.209 34.9849 207.421 34.9206 207.593 34.7899C207.764 34.6592 207.883 34.471 207.927 34.2597C207.972 34.0484 207.938 33.8283 207.834 33.6396C207.729 33.4509 207.56 33.3063 207.357 33.2324V32.7557C207.855 32.7232 208.345 32.6193 208.813 32.4472L209.429 33.9896C209.312 34.1199 209.235 34.2807 209.206 34.4533C209.177 34.6258 209.197 34.8032 209.264 34.9647C209.332 35.1262 209.444 35.2652 209.587 35.3656C209.73 35.466 209.898 35.5237 210.073 35.532C210.193 35.5358 210.312 35.5154 210.424 35.4719C210.536 35.4285 210.638 35.363 210.725 35.2793C210.811 35.1956 210.879 35.0954 210.926 34.9847C210.973 34.8739 210.997 34.7549 210.997 34.6346C211.006 34.4984 210.985 34.3619 210.936 34.2347C210.886 34.1075 210.809 33.9929 210.71 33.8991C210.611 33.8053 210.492 33.7346 210.363 33.6921C210.233 33.6495 210.096 33.6362 209.961 33.6531V33.6531L209.345 32.1106C209.887 31.8055 210.37 31.4067 210.773 30.9328L213.292 32.7837C213.279 32.8767 213.279 32.9711 213.292 33.0641C213.292 33.3096 213.39 33.545 213.563 33.7185C213.736 33.8921 213.971 33.9896 214.216 33.9896C214.336 33.9897 214.455 33.9656 214.566 33.9187C214.676 33.8719 214.776 33.8032 214.86 33.7169C214.943 33.6306 215.009 33.5283 215.052 33.4162C215.095 33.3041 215.116 33.1843 215.112 33.0641C215.102 32.9435 215.067 32.8261 215.01 32.7192C214.953 32.6122 214.876 32.5179 214.781 32.4419C214.687 32.366 214.579 32.3099 214.462 32.277C214.346 32.2442 214.224 32.2353 214.104 32.2509V32.2509Z" fill="#2E3551"/>
<path d="M185.465 113.944C185.465 113.944 203.802 115.907 206.406 94.9298C209.009 73.9527 184.01 75.2988 184.01 75.2988C184.01 75.2988 187.565 45.1232 156.015 46.4413C124.465 47.7593 124.605 74.6258 124.605 74.6258C124.605 74.6258 127.88 23.473 89.2754 28.0442C50.6706 32.6154 67.6634 77.8789 67.6634 77.8789C67.6634 77.8789 53.918 71.9616 49.3548 89.0966C47.5002 89.4858 45.6966 90.0881 43.9798 90.8915C41.4744 92.0523 39.4395 94.035 38.2117 96.5118C36.9839 98.9885 36.6367 101.811 37.2276 104.512C37.8184 107.213 39.312 109.632 41.4611 111.367C43.6103 113.103 46.2864 114.051 49.0469 114.056L185.465 113.944Z" fill="#FFEFE0"/>
<path d="M23.3757 91.6487C23.125 91.6504 22.8809 91.7287 22.6758 91.8731L19.1764 89.2649C19.5469 88.7003 19.8124 88.0733 19.9603 87.414H21.528C21.6242 87.697 21.8175 87.9367 22.0736 88.0902C22.3297 88.2438 22.6319 88.3013 22.9263 88.2524C23.2207 88.2036 23.4883 88.0516 23.6813 87.8236C23.8744 87.5956 23.9803 87.3063 23.9803 87.0074C23.9803 86.7084 23.8744 86.4191 23.6813 86.1911C23.4883 85.9631 23.2207 85.8111 22.9263 85.7623C22.6319 85.7135 22.3297 85.771 22.0736 85.9245C21.8175 86.0781 21.6242 86.3177 21.528 86.6007H20.0443C20.0953 85.754 19.9417 84.9074 19.5964 84.1328L22.3958 81.7771C22.5628 81.8034 22.7328 81.8034 22.8997 81.7771C23.2364 81.7698 23.5568 81.6306 23.7923 81.3895C24.0278 81.1484 24.1596 80.8244 24.1595 80.4871C24.1595 80.1524 24.0268 79.8314 23.7905 79.5947C23.5543 79.358 23.2339 79.2251 22.8997 79.2251C22.5656 79.2251 22.2452 79.358 22.009 79.5947C21.7727 79.8314 21.64 80.1524 21.64 80.4871C21.5977 80.6906 21.5977 80.9006 21.64 81.104L19.1204 83.2635C18.537 82.3962 17.8076 81.6371 16.9648 81.0199L16.209 80.5151L16.6849 79.8981H16.7969C16.9768 79.9021 17.1557 79.8691 17.3224 79.8011C17.4891 79.7331 17.64 79.6316 17.766 79.5028C17.8919 79.374 17.9902 79.2206 18.0546 79.0523C18.1191 78.8839 18.1483 78.7041 18.1406 78.524C18.112 78.1917 17.9561 77.8835 17.7056 77.6639C17.4551 77.4443 17.1294 77.3304 16.7969 77.3461C16.4628 77.3461 16.1423 77.4791 15.9061 77.7157C15.6698 77.9524 15.5371 78.2734 15.5371 78.6081C15.5309 78.9173 15.6408 79.2176 15.8451 79.4494L15.3691 80.0664C14.3666 79.5438 13.2519 79.2742 12.1217 79.2812L11.3939 76.8133C11.5645 76.6991 11.7047 76.5449 11.8023 76.364C11.8999 76.1832 11.9519 75.9812 11.9538 75.7756C11.9466 75.4357 11.8087 75.1118 11.5687 74.8714C11.3287 74.631 11.0053 74.4928 10.666 74.4856C10.3606 74.5311 10.0817 74.6849 9.88013 74.9192C9.67852 75.1534 9.56761 75.4523 9.56761 75.7616C9.56761 76.0709 9.67852 76.3699 9.88013 76.6041C10.0817 76.8383 10.3606 76.9922 10.666 77.0376L11.3659 79.3653C10.5507 79.5113 9.78814 79.8691 9.1543 80.4029L8.79037 79.814C8.87987 79.6205 8.92757 79.4103 8.93034 79.197C8.93034 78.9474 8.85645 78.7034 8.71803 78.4959C8.5796 78.2884 8.38286 78.1266 8.15266 78.0311C7.92247 77.9356 7.66918 77.9106 7.4248 77.9593C7.18043 78.008 6.95597 78.1282 6.77978 78.3047C6.6036 78.4812 6.48362 78.706 6.43501 78.9508C6.38641 79.1956 6.41135 79.4494 6.5067 79.68C6.60205 79.9106 6.76352 80.1077 6.97068 80.2463C7.17785 80.385 7.42142 80.459 7.67057 80.459C7.82789 80.488 7.98917 80.488 8.14648 80.459L8.53841 81.048C8.36743 81.2165 8.21706 81.4047 8.0905 81.6088C7.78612 81.9957 7.53212 82.4198 7.33464 82.8708L3.30339 80.5993C3.33303 80.4795 3.33303 80.3544 3.30339 80.2347C3.30339 79.9 3.17066 79.579 2.93441 79.3423C2.69816 79.1056 2.37773 78.9727 2.04362 78.9727C1.70951 78.9727 1.38908 79.1056 1.15283 79.3423C0.916579 79.579 0.783854 79.9 0.783854 80.2347C0.831033 80.5418 0.987272 80.8215 1.22385 81.0224C1.46044 81.2234 1.76147 81.332 2.07161 81.3284C2.30709 81.4118 2.564 81.4118 2.79948 81.3284C3.89128 81.9734 5.59896 82.983 6.9987 83.6841C6.88802 84.061 6.80383 84.4452 6.74675 84.8339L4.64714 84.1328C4.63606 83.8792 4.55052 83.6345 4.40123 83.4293C4.25194 83.2241 4.04554 83.0677 3.80788 82.9795C3.57022 82.8913 3.31187 82.8753 3.06519 82.9336C2.81851 82.9918 2.59447 83.1217 2.42114 83.3069C2.2478 83.4921 2.13287 83.7245 2.09075 83.9748C2.04863 84.2252 2.08119 84.4824 2.18435 84.7143C2.28751 84.9462 2.45669 85.1425 2.67069 85.2785C2.88468 85.4145 3.13399 85.4842 3.38737 85.479C3.5905 85.4826 3.79137 85.4359 3.97209 85.3429C4.15282 85.2499 4.30778 85.1136 4.42318 84.9461L6.69076 85.4229C6.68318 86.1174 6.78716 86.8086 6.9987 87.4701L2.32357 89.7417C2.20516 89.5686 2.04639 89.427 1.86101 89.3293C1.67563 89.2315 1.46925 89.1806 1.25977 89.1808C0.925655 89.1808 0.605229 89.3138 0.368977 89.5504C0.132725 89.7871 0 90.1081 0 90.4428C0 90.7775 0.132725 91.0985 0.368977 91.3352C0.605229 91.5718 0.925655 91.7048 1.25977 91.7048C1.57098 91.7067 1.8719 91.5932 2.10451 91.386C2.33712 91.1789 2.48496 90.8929 2.51953 90.583L7.27865 88.3675C7.4234 88.7025 7.6016 89.022 7.81055 89.321L6.66276 90.0221C6.43576 89.8318 6.14674 89.732 5.85091 89.7417C5.5168 89.7417 5.19637 89.8746 4.96012 90.1113C4.72387 90.348 4.59115 90.669 4.59115 91.0037C4.59115 91.3384 4.72387 91.6594 4.96012 91.8961C5.19637 92.1327 5.5168 92.2657 5.85091 92.2657C6.18765 92.2658 6.51103 92.1337 6.75174 91.8978C6.99245 91.6619 7.13135 91.3409 7.13867 91.0037C7.1517 90.9107 7.1517 90.8163 7.13867 90.7232L8.39844 89.9661C8.72957 90.3632 9.10531 90.7208 9.51823 91.0317L10.1901 91.4804L8.81836 93.8922H8.45443C8.11777 93.8996 7.79737 94.0387 7.56189 94.2799C7.32641 94.521 7.19458 94.8449 7.19466 95.1823C7.19466 95.517 7.32739 95.838 7.56364 96.0746C7.79989 96.3113 8.12032 96.4443 8.45443 96.4443C8.79117 96.4444 9.11454 96.3123 9.35525 96.0764C9.59597 95.8405 9.73487 95.5195 9.74219 95.1823C9.74942 94.9166 9.65985 94.6575 9.49023 94.4531L10.946 91.9011C11.6583 92.2003 12.4149 92.3804 13.1855 92.4339V92.9948C12.9194 93.0734 12.6857 93.2359 12.5193 93.4583C12.3528 93.6806 12.2625 93.9508 12.2617 94.2288C12.2617 94.5635 12.3944 94.8845 12.6307 95.1211C12.8669 95.3578 13.1874 95.4908 13.5215 95.4908C13.8556 95.4908 14.176 95.3578 14.4123 95.1211C14.6485 94.8845 14.7813 94.5635 14.7813 94.2288C14.7973 93.9701 14.7298 93.7131 14.5886 93.4959C14.4474 93.2786 14.2401 93.1128 13.9974 93.0229V92.3779C14.6967 92.3284 15.3852 92.1773 16.041 91.9291L16.9089 94.0886C16.6775 94.3187 16.5466 94.6313 16.5449 94.9579C16.5449 95.2926 16.6776 95.6136 16.9139 95.8503C17.1502 96.087 17.4706 96.2199 17.8047 96.2199C18.1388 96.2199 18.4592 96.087 18.6955 95.8503C18.9317 95.6136 19.0645 95.2926 19.0645 94.9579C19.0645 94.7922 19.0319 94.6281 18.9686 94.475C18.9053 94.3219 18.8125 94.1828 18.6955 94.0656C18.5785 93.9484 18.4396 93.8554 18.2868 93.792C18.1339 93.7286 17.9701 93.6959 17.8047 93.6959H17.5527L16.7969 91.5646C17.5507 91.1451 18.2238 90.5943 18.7845 89.938L22.1719 92.5461C22.1447 92.6756 22.1447 92.8093 22.1719 92.9387C22.1719 93.1883 22.2458 93.4323 22.3842 93.6399C22.5226 93.8474 22.7194 94.0091 22.9495 94.1047C23.1797 94.2002 23.433 94.2252 23.6774 94.1765C23.9218 94.1278 24.1462 94.0076 24.3224 93.8311C24.4986 93.6546 24.6186 93.4297 24.6672 93.1849C24.7158 92.9401 24.6909 92.6864 24.5955 92.4558C24.5002 92.2252 24.3387 92.0281 24.1315 91.8894C23.9244 91.7508 23.6808 91.6767 23.4316 91.6767L23.3757 91.6487Z" fill="#2E3551"/>
<path d="M147.477 31.1292C147.217 31.1269 146.962 31.2053 146.749 31.3535L143.277 28.7454C143.656 28.1885 143.914 27.5578 144.033 26.8945H145.573C145.667 27.1386 145.832 27.3491 146.047 27.4989C146.261 27.6488 146.515 27.7312 146.777 27.7358C147.113 27.7285 147.434 27.5893 147.669 27.3482C147.905 27.1071 148.036 26.7831 148.036 26.4458C148.022 26.1257 147.887 25.823 147.658 25.599C147.43 25.3751 147.124 25.2467 146.805 25.2399C146.535 25.2211 146.267 25.2939 146.043 25.4465C145.82 25.5992 145.654 25.8227 145.573 26.0812H144.117C144.147 25.1758 143.944 24.2778 143.529 23.4731L146.329 21.1174C146.495 21.1492 146.666 21.1492 146.833 21.1174C146.998 21.1174 147.162 21.0847 147.315 21.0213C147.468 20.9579 147.606 20.8649 147.723 20.7477C147.84 20.6305 147.933 20.4914 147.997 20.3383C148.06 20.1852 148.092 20.0211 148.092 19.8554C148.092 19.518 147.961 19.1941 147.725 18.9529C147.49 18.7118 147.169 18.5727 146.833 18.5653C146.493 18.5725 146.17 18.7107 145.93 18.9511C145.69 19.1915 145.552 19.5155 145.545 19.8554C145.548 20.0631 145.606 20.2663 145.713 20.4443L143.165 22.6037C142.584 21.7435 141.865 20.9854 141.038 20.3602L140.282 19.8554L140.758 19.2384H140.982C141.147 19.2384 141.311 19.2057 141.464 19.1423C141.617 19.0789 141.756 18.9859 141.873 18.8688C141.99 18.7516 142.082 18.6125 142.146 18.4593C142.209 18.3062 142.241 18.1421 142.241 17.9764C142.241 17.6417 142.109 17.3207 141.873 17.084C141.636 16.8474 141.316 16.7144 140.982 16.7144C140.648 16.7144 140.327 16.8474 140.091 17.084C139.855 17.3207 139.722 17.6417 139.722 17.9764C139.723 18.2759 139.832 18.565 140.03 18.7897L139.526 19.631C138.523 19.1105 137.408 18.8411 136.279 18.8458L135.523 16.3779C135.76 16.2096 135.931 15.9627 136.004 15.6807C136.077 15.3987 136.048 15.0998 135.922 14.8371C135.797 14.5744 135.582 14.3647 135.317 14.2451C135.052 14.1256 134.753 14.1039 134.473 14.184C134.193 14.264 133.951 14.4406 133.789 14.6825C133.627 14.9243 133.555 15.2159 133.587 15.5055C133.619 15.7951 133.752 16.0641 133.963 16.2648C134.174 16.4655 134.449 16.5851 134.739 16.6022L135.439 18.9299C134.627 19.0878 133.868 19.4442 133.227 19.9675L132.835 19.3786C132.946 19.1918 133.004 18.9787 133.003 18.7616C132.996 18.4244 132.857 18.1034 132.616 17.8675C132.376 17.6316 132.052 17.4996 131.715 17.4996C131.55 17.4996 131.386 17.5323 131.233 17.5957C131.081 17.6591 130.942 17.7521 130.825 17.8693C130.708 17.9865 130.615 18.1256 130.552 18.2787C130.488 18.4318 130.456 18.5959 130.456 18.7616C130.456 19.099 130.587 19.4229 130.823 19.6641C131.058 19.9052 131.379 20.0443 131.715 20.0517C131.882 20.0835 132.053 20.0835 132.219 20.0517L132.611 20.6406C132.438 20.8144 132.279 21.002 132.135 21.2015C131.841 21.5951 131.588 22.018 131.38 22.4635L127.376 20.2199C127.39 20.0894 127.39 19.9578 127.376 19.8273C127.376 19.4926 127.244 19.1716 127.007 18.935C126.771 18.6983 126.451 18.5653 126.116 18.5653C125.782 18.5653 125.462 18.6983 125.226 18.935C124.989 19.1716 124.857 19.4926 124.857 19.8273C124.857 20.1647 124.988 20.4886 125.224 20.7297C125.459 20.9709 125.78 21.11 126.116 21.1174C126.367 21.1156 126.611 21.0374 126.816 20.893L131.044 23.2487C130.93 23.6154 130.846 23.9905 130.792 24.3705L128.776 23.7535C128.776 23.4188 128.643 23.0978 128.407 22.8612C128.171 22.6245 127.85 22.4915 127.516 22.4915C127.182 22.4915 126.862 22.6245 126.625 22.8612C126.389 23.0978 126.256 23.4188 126.256 23.7535C126.256 24.0909 126.388 24.4148 126.624 24.6559C126.859 24.8971 127.18 25.0362 127.516 25.0436C127.722 25.0441 127.924 24.9931 128.105 24.8951C128.286 24.7972 128.44 24.6554 128.552 24.4827L130.848 24.9594C130.842 25.6518 130.937 26.3413 131.128 27.0067L126.48 29.1941C126.36 29.0227 126.201 28.8824 126.016 28.7848C125.831 28.6873 125.626 28.6353 125.417 28.6332C125.083 28.6332 124.762 28.7662 124.526 29.0029C124.29 29.2395 124.157 29.5605 124.157 29.8952C124.157 30.2299 124.29 30.5509 124.526 30.7876C124.762 31.0242 125.083 31.1572 125.417 31.1572C125.728 31.1591 126.029 31.0456 126.261 30.8385C126.494 30.6313 126.642 30.3453 126.676 30.0354L131.436 27.7919C131.581 28.121 131.75 28.4396 131.939 28.7454L130.82 29.4465C130.587 29.2666 130.302 29.1681 130.008 29.1661C129.759 29.1661 129.515 29.2401 129.308 29.3787C129.101 29.5174 128.939 29.7145 128.844 29.9451C128.749 30.1757 128.724 30.4295 128.772 30.6743C128.821 30.9191 128.941 31.1439 129.117 31.3204C129.293 31.4969 129.518 31.6171 129.762 31.6658C130.006 31.7145 130.26 31.6895 130.49 31.594C130.72 31.4985 130.917 31.3367 131.055 31.1292C131.194 30.9216 131.268 30.6777 131.268 30.4281C131.281 30.3351 131.281 30.2406 131.268 30.1476L132.471 29.4185C132.81 29.7996 133.185 30.1471 133.591 30.4561L134.263 30.9048L132.891 33.3166H132.527C132.253 33.3215 131.988 33.4181 131.775 33.5911C131.561 33.764 131.412 34.0033 131.35 34.2712C131.287 34.539 131.316 34.8199 131.432 35.0693C131.547 35.3188 131.743 35.5225 131.987 35.648C132.231 35.7736 132.51 35.814 132.779 35.7626C133.049 35.7112 133.294 35.5711 133.475 35.3645C133.656 35.1579 133.763 34.8966 133.779 34.6222C133.795 34.3477 133.719 34.0757 133.563 33.8495L135.019 31.2974C135.727 31.6095 136.486 31.7901 137.258 31.8303V32.4192C136.987 32.4827 136.745 32.6365 136.572 32.8555C136.399 33.0746 136.306 33.3459 136.307 33.6251C136.307 33.9624 136.438 34.2864 136.674 34.5275C136.909 34.7687 137.23 34.9078 137.566 34.9151C137.906 34.908 138.229 34.7698 138.469 34.5294C138.709 34.289 138.847 33.965 138.854 33.6251C138.847 33.3784 138.769 33.139 138.63 32.9352C138.491 32.7314 138.297 32.5718 138.07 32.4753V31.8303C138.721 31.7745 139.361 31.6331 139.974 31.4096L140.814 33.569C140.696 33.6863 140.603 33.8262 140.54 33.9805C140.478 34.1347 140.447 34.3 140.45 34.4664C140.495 34.7723 140.649 35.0517 140.883 35.2537C141.116 35.4557 141.415 35.5668 141.724 35.5668C142.032 35.5668 142.331 35.4557 142.565 35.2537C142.798 35.0517 142.952 34.7723 142.997 34.4664C142.99 34.1265 142.852 33.8026 142.612 33.5622C142.372 33.3218 142.049 33.1836 141.71 33.1764V33.1764L140.842 31.017C141.611 30.6213 142.289 30.067 142.829 29.3904L146.301 31.9985C146.285 32.1196 146.285 32.2421 146.301 32.3631C146.308 32.7004 146.447 33.0213 146.688 33.2572C146.928 33.4931 147.252 33.6252 147.589 33.6251C147.923 33.6251 148.243 33.4921 148.479 33.2555C148.716 33.0188 148.848 32.6978 148.848 32.3631C148.848 32.0284 148.716 31.7074 148.479 31.4707C148.243 31.2341 147.923 31.1011 147.589 31.1011L147.477 31.1292Z" fill="#2E3551"/>
<path d="M74.8581 12.3395C74.693 12.2955 74.5192 12.2955 74.3542 12.3395L71.8346 10.4886C72.1035 10.0788 72.2934 9.62223 72.3945 9.14243H73.5143C73.5855 9.31492 73.7057 9.46267 73.86 9.56736C74.0143 9.67205 74.1958 9.72907 74.3821 9.73136C74.6197 9.73136 74.8476 9.63682 75.0156 9.46852C75.1836 9.30022 75.278 9.07196 75.278 8.83395C75.2951 8.6092 75.2272 8.38624 75.0877 8.20937C74.9482 8.03251 74.7474 7.9147 74.5252 7.87937C74.303 7.84403 74.0756 7.89376 73.8883 8.01866C73.701 8.14357 73.5675 8.3345 73.5143 8.5535H72.4785C72.4796 7.90371 72.3361 7.26185 72.0586 6.67454L74.0182 4.99188C74.1378 5.02048 74.2625 5.02048 74.3821 4.99188C74.5022 4.99194 74.621 4.96783 74.7316 4.92099C74.8421 4.87415 74.9421 4.80552 75.0257 4.7192C75.1093 4.63287 75.1747 4.5306 75.218 4.41847C75.2613 4.30633 75.2817 4.18661 75.278 4.06642C75.278 3.82841 75.1836 3.60015 75.0156 3.43185C74.8476 3.26355 74.6197 3.169 74.3821 3.169C74.2622 3.16525 74.1427 3.18568 74.0307 3.22909C73.9188 3.27251 73.8167 3.33802 73.7305 3.42173C73.6443 3.50544 73.5758 3.60564 73.5291 3.71639C73.4823 3.82714 73.4583 3.94617 73.4583 4.06642C73.4261 4.20478 73.4261 4.34872 73.4583 4.48708L71.6387 6.05756C71.2229 5.43845 70.7017 4.89737 70.0989 4.45904L69.567 4.06642L69.987 3.87011H70.1549C70.2726 3.87011 70.3891 3.8469 70.4978 3.8018C70.6064 3.7567 70.7052 3.6906 70.7884 3.60726C70.8716 3.52393 70.9376 3.425 70.9826 3.31612C71.0276 3.20724 71.0508 3.09054 71.0508 2.97269C71.0545 2.8525 71.0341 2.73279 70.9908 2.62065C70.9474 2.50851 70.8821 2.40624 70.7985 2.31992C70.7149 2.23359 70.6149 2.16497 70.5043 2.11812C70.3938 2.07128 70.275 2.04717 70.1549 2.04723C69.9099 2.04723 69.6749 2.14474 69.5017 2.31829C69.3284 2.49185 69.2311 2.72725 69.2311 2.97269C69.2322 3.18967 69.3118 3.39889 69.4551 3.56162L69.1191 4.01033C68.404 3.63072 67.6048 3.43781 66.7956 3.44945L66.2917 1.65461C66.4124 1.57531 66.5114 1.46711 66.5799 1.33979C66.6483 1.21247 66.6839 1.07006 66.6836 0.925461C66.6836 0.803928 66.6597 0.683585 66.6133 0.571303C66.5668 0.459021 66.4988 0.356998 66.413 0.271061C66.3272 0.185124 66.2254 0.116955 66.1133 0.0704466C66.0012 0.0239379 65.8811 1.07045e-07 65.7598 1.07045e-07C65.6397 -5.86225e-05 65.5209 0.0240495 65.4103 0.0708924C65.2998 0.117735 65.1998 0.186358 65.1162 0.272684C65.0326 0.35901 64.9672 0.461279 64.9239 0.573416C64.8806 0.685553 64.8602 0.805272 64.8639 0.925461C64.8635 1.15406 64.9501 1.37422 65.1062 1.541C65.2623 1.70777 65.476 1.80859 65.7038 1.82288L66.2077 3.50553C65.6237 3.61242 65.0754 3.86297 64.612 4.23469L64.388 3.81402C64.4262 3.67641 64.4262 3.53097 64.388 3.39336C64.3957 3.15995 64.3123 2.93272 64.1555 2.75992C63.9987 2.58712 63.7808 2.48236 63.5482 2.4679C63.3032 2.4679 63.0682 2.5654 62.8949 2.73896C62.7217 2.91252 62.6243 3.14791 62.6243 3.39336C62.6243 3.51361 62.6483 3.63264 62.6951 3.74339C62.7419 3.85414 62.8104 3.95434 62.8965 4.03805C62.9827 4.12176 63.0848 4.18727 63.1967 4.23068C63.3087 4.2741 63.4282 4.29453 63.5482 4.29077H63.8841L64.164 4.71144L63.8281 5.10406C63.6243 5.38659 63.4463 5.68695 63.2962 6.00148L60.4967 4.37491C60.512 4.29147 60.512 4.20595 60.4967 4.12251C60.4967 3.8845 60.4023 3.65624 60.2343 3.48794C60.0663 3.31964 59.8385 3.22509 59.6009 3.22509C59.4809 3.22133 59.3614 3.24177 59.2495 3.28518C59.1375 3.3286 59.0354 3.3941 58.9493 3.47781C58.8631 3.56152 58.7946 3.66173 58.7478 3.77248C58.7011 3.88323 58.677 4.00226 58.6771 4.12251C58.6771 4.36796 58.7744 4.60335 58.9477 4.77691C59.1209 4.95047 59.3559 5.04797 59.6009 5.04797C59.7811 5.03943 59.9555 4.9812 60.1048 4.8797L63.1282 6.56236C63.0456 6.82724 62.9893 7.09966 62.9603 7.37565L61.4486 7.06716C61.4341 6.83407 61.3295 6.61581 61.157 6.45872C60.9845 6.30163 60.7577 6.21808 60.5247 6.22583C60.2871 6.22583 60.0593 6.32038 59.8913 6.48868C59.7233 6.65698 59.6289 6.88524 59.6289 7.12325C59.6251 7.24344 59.6455 7.36315 59.6889 7.47529C59.7322 7.58743 59.7976 7.6897 59.8812 7.77602C59.9647 7.86235 60.0648 7.93097 60.1753 7.97782C60.2859 8.02466 60.4047 8.04877 60.5247 8.04871C60.6721 8.04444 60.8166 8.00692 60.9475 7.93894C61.0783 7.87096 61.1922 7.77428 61.2806 7.65609L62.9043 7.99262C62.908 8.48702 62.9835 8.97825 63.1282 9.45092L59.7689 11.0494C59.6867 10.9229 59.5749 10.8184 59.4431 10.7451C59.3114 10.6717 59.1637 10.6318 59.013 10.6288C58.7991 10.6665 58.6052 10.7786 58.4656 10.9453C58.3259 11.1119 58.2494 11.3226 58.2494 11.5402C58.2494 11.7578 58.3259 11.9685 58.4656 12.1352C58.6052 12.3019 58.7991 12.4139 59.013 12.4517C59.2367 12.4526 59.4527 12.3697 59.6185 12.2192C59.7843 12.0687 59.8879 11.8615 59.9088 11.6384L63.3522 10.0118C63.4454 10.2591 63.5675 10.4945 63.7161 10.7129L62.8483 11.2177C62.7137 11.1148 62.5535 11.0509 62.3851 11.033C62.2168 11.0152 62.0468 11.044 61.8936 11.1163C61.7405 11.1887 61.6102 11.3018 61.5169 11.4433C61.4236 11.5848 61.3709 11.7493 61.3646 11.9188C61.3608 12.039 61.3812 12.1587 61.4246 12.2709C61.4679 12.383 61.5333 12.4853 61.6168 12.5716C61.7004 12.6579 61.8004 12.7265 61.911 12.7734C62.0215 12.8202 62.1404 12.8443 62.2604 12.8443C62.5054 12.8443 62.7404 12.7468 62.9136 12.5732C63.0869 12.3997 63.1842 12.1643 63.1842 11.9188C63.1842 11.9188 63.1842 11.7786 63.1842 11.7225L64.0241 11.2177C64.25 11.5045 64.5137 11.7592 64.8079 11.9749L65.3118 12.2834L64.388 14.0221H64.1361C64.016 14.0221 63.8972 14.0462 63.7866 14.093C63.6761 14.1399 63.5761 14.2085 63.4925 14.2948C63.4089 14.3811 63.3435 14.4834 63.3002 14.5956C63.2569 14.7077 63.2365 14.8274 63.2402 14.9476C63.2402 15.1856 63.3346 15.4139 63.5026 15.5822C63.6706 15.7505 63.8985 15.845 64.1361 15.845C64.256 15.8488 64.3755 15.8283 64.4875 15.7849C64.5994 15.7415 64.7015 15.676 64.7877 15.5923C64.8739 15.5086 64.9424 15.4084 64.9891 15.2976C65.0359 15.1869 65.0599 15.0678 65.0599 14.9476C65.0509 14.7584 64.993 14.5748 64.8919 14.4148L65.9277 12.5919C66.4421 12.8121 66.9925 12.9357 67.5514 12.9565V13.3771C67.359 13.4269 67.1886 13.5393 67.067 13.6967C66.9454 13.854 66.8794 14.0475 66.8795 14.2465C66.8758 14.3667 66.8962 14.4864 66.9395 14.5985C66.9829 14.7107 67.0483 14.8129 67.1318 14.8993C67.2154 14.9856 67.3154 15.0542 67.426 15.1011C67.5365 15.1479 67.6553 15.172 67.7754 15.172C67.9085 15.1599 68.0374 15.119 68.1532 15.0521C68.269 14.9853 68.369 14.894 68.4461 14.7847C68.5233 14.6754 68.5759 14.5506 68.6003 14.4189C68.6246 14.2873 68.6202 14.1519 68.5872 14.0221C68.5873 13.8457 68.5338 13.6734 68.4338 13.5281C68.3338 13.3828 68.192 13.2715 68.0273 13.2089V12.8443C68.5252 12.815 69.016 12.711 69.4831 12.5358L70.0989 14.0782C69.9417 14.2567 69.8524 14.4852 69.847 14.7232C69.8469 14.8435 69.871 14.9625 69.9178 15.0733C69.9645 15.184 70.033 15.2842 70.1192 15.3679C70.2054 15.4517 70.3075 15.5172 70.4194 15.5606C70.5313 15.604 70.6508 15.6244 70.7708 15.6207C70.8885 15.6207 71.005 15.5975 71.1136 15.5524C71.2223 15.5073 71.3211 15.4411 71.4043 15.3578C71.4875 15.2745 71.5534 15.1756 71.5985 15.0667C71.6435 14.9578 71.6667 14.8411 71.6667 14.7232C71.6704 14.6031 71.65 14.4833 71.6067 14.3712C71.5633 14.2591 71.4979 14.1568 71.4144 14.0705C71.3308 13.9841 71.2308 13.9155 71.1202 13.8687C71.0097 13.8218 70.8909 13.7977 70.7708 13.7978V13.7978L69.987 12.2834C70.5463 12.0145 71.0572 11.6544 71.4987 11.2177L73.9902 13.0686C73.9772 13.1617 73.9772 13.2561 73.9902 13.3491C73.9902 13.5945 74.0876 13.8299 74.2608 14.0035C74.4341 14.177 74.669 14.2745 74.914 14.2745C75.0341 14.2746 75.1529 14.2505 75.2635 14.2036C75.374 14.1568 75.474 14.0882 75.5576 14.0019C75.6412 13.9155 75.7066 13.8133 75.7499 13.7011C75.7932 13.589 75.8136 13.4693 75.8099 13.3491C75.8268 13.2173 75.8143 13.0834 75.7733 12.9571C75.7322 12.8307 75.6637 12.7151 75.5726 12.6185C75.4816 12.5219 75.3702 12.4467 75.2467 12.3985C75.1231 12.3503 74.9904 12.3301 74.8581 12.3395Z" fill="#2E3551"/>
<path d="M53.694 55.3034C53.5123 55.3034 53.3355 55.3624 53.1901 55.4716L50.6986 53.5927C50.9601 53.1891 51.1495 52.7431 51.2585 52.2746H52.3783C52.4413 52.447 52.5556 52.596 52.7058 52.7013C52.856 52.8066 53.0348 52.8632 53.2181 52.8635C53.4631 52.8635 53.6981 52.766 53.8714 52.5924C54.0446 52.4189 54.1419 52.1835 54.1419 51.938C54.1422 51.8153 54.1173 51.6939 54.0688 51.5811C54.0203 51.4684 53.9493 51.3669 53.8601 51.2828C53.7709 51.1987 53.6654 51.1338 53.5502 51.0921C53.4349 51.0505 53.3124 51.033 53.1901 51.0406C52.9951 51.0389 52.8048 51.1009 52.6482 51.2173C52.4916 51.3337 52.3771 51.4982 52.3223 51.6856H51.2865C51.3144 51.0332 51.1695 50.3849 50.8666 49.8067L52.8262 48.124H53.1901C53.3101 48.1278 53.4296 48.1073 53.5415 48.0639C53.6535 48.0205 53.7556 47.955 53.8417 47.8713C53.9279 47.7876 53.9964 47.6874 54.0432 47.5766C54.0899 47.4659 54.114 47.3469 54.114 47.2266C54.114 46.9812 54.0166 46.7458 53.8434 46.5722C53.6701 46.3986 53.4351 46.3011 53.1901 46.3011C53.0701 46.3011 52.9513 46.3252 52.8407 46.372C52.7302 46.4189 52.6301 46.4875 52.5466 46.5738C52.463 46.6602 52.3976 46.7624 52.3543 46.8746C52.3109 46.9867 52.2905 47.1064 52.2943 47.2266C52.2656 47.3654 52.2656 47.5085 52.2943 47.6473L50.4746 49.2177C50.0679 48.5835 49.5456 48.0317 48.9349 47.5912L48.403 47.2266L48.739 46.7779H48.9069C49.1519 46.7779 49.3869 46.6804 49.5602 46.5068C49.7334 46.3333 49.8307 46.0979 49.8307 45.8524C49.8308 45.7322 49.8067 45.6132 49.76 45.5024C49.7132 45.3917 49.6447 45.2915 49.5585 45.2077C49.4724 45.124 49.3703 45.0585 49.2583 45.0151C49.1464 44.9717 49.0269 44.9513 48.9069 44.955C48.6693 44.955 48.4415 45.0496 48.2735 45.2179C48.1055 45.3862 48.0111 45.6144 48.0111 45.8524C48.0128 46.0777 48.0919 46.2956 48.235 46.4694L47.8711 46.9181C47.1544 46.5395 46.3578 46.3376 45.5475 46.3292L45.0156 44.5624C45.1811 44.4571 45.3075 44.3004 45.3755 44.1163C45.4435 43.9322 45.4493 43.7308 45.3921 43.543C45.335 43.3552 45.2179 43.1914 45.0589 43.0767C44.8998 42.962 44.7076 42.9026 44.5117 42.9078C44.3918 42.904 44.2723 42.9245 44.1603 42.9679C44.0484 43.0113 43.9463 43.0768 43.8601 43.1605C43.7739 43.2442 43.7054 43.3444 43.6587 43.4552C43.6119 43.5659 43.5879 43.685 43.5879 43.8052C43.587 44.0367 43.6727 44.2602 43.8282 44.4316C43.9836 44.6029 44.1976 44.7096 44.4278 44.7307L44.9317 46.4133C44.3525 46.5087 43.8104 46.7608 43.364 47.1425L43.084 46.7218C43.1127 46.5736 43.1127 46.4213 43.084 46.2731C43.0841 46.1529 43.06 46.0338 43.0132 45.9231C42.9665 45.8123 42.898 45.7121 42.8118 45.6284C42.7256 45.5447 42.6235 45.4792 42.5116 45.4358C42.3997 45.3924 42.2802 45.3719 42.1602 45.3757C41.9226 45.3757 41.6947 45.4702 41.5267 45.6385C41.3587 45.8068 41.2643 46.0351 41.2643 46.2731C41.2606 46.3933 41.281 46.513 41.3243 46.6251C41.3677 46.7373 41.4331 46.8396 41.5166 46.9259C41.6002 47.0122 41.7002 47.0808 41.8108 47.1277C41.9213 47.1745 42.0401 47.1986 42.1602 47.1986C42.2798 47.2272 42.4045 47.2272 42.5241 47.1986L42.8041 47.6192L42.4681 48.0118C42.2597 48.3013 42.0814 48.6114 41.9362 48.9373L39.1367 47.3107C39.1498 47.2271 39.1498 47.142 39.1367 47.0583C39.1367 46.8129 39.0394 46.5775 38.8662 46.4039C38.6929 46.2304 38.4579 46.1329 38.2129 46.1329C38.0929 46.1328 37.9741 46.1569 37.8635 46.2038C37.7529 46.2506 37.6529 46.3192 37.5694 46.4056C37.4858 46.4919 37.4204 46.5942 37.3771 46.7063C37.3337 46.8184 37.3133 46.9382 37.3171 47.0583C37.3171 47.2964 37.4115 47.5246 37.5795 47.6929C37.7475 47.8612 37.9753 47.9558 38.2129 47.9558C38.3994 47.9565 38.5828 47.9082 38.7448 47.8155L41.7682 49.4982C41.6866 49.7651 41.6211 50.0367 41.5723 50.3115L40.0606 50.003C40.0467 49.7722 39.947 49.5549 39.7812 49.394C39.6154 49.2331 39.3955 49.1402 39.1647 49.1336C38.9197 49.1336 38.6847 49.2311 38.5115 49.4047C38.3382 49.5782 38.2409 49.8136 38.2409 50.0591C38.2408 50.1793 38.2649 50.2984 38.3117 50.4091C38.3584 50.5199 38.4269 50.6201 38.5131 50.7038C38.5993 50.7875 38.7014 50.853 38.8133 50.8964C38.9252 50.9398 39.0448 50.9603 39.1647 50.9565C39.31 50.9624 39.4542 50.929 39.5823 50.8599C39.7103 50.7909 39.8175 50.6886 39.8926 50.5639L41.5443 50.9004C41.5344 51.405 41.6102 51.9076 41.7682 52.3868L38.4089 53.9572C38.3253 53.8341 38.2124 53.7338 38.0805 53.6652C37.9485 53.5967 37.8016 53.5621 37.653 53.5646C37.533 53.5609 37.4135 53.5813 37.3016 53.6247C37.1897 53.6681 37.0876 53.7336 37.0014 53.8173C36.9152 53.901 36.8467 54.0013 36.8 54.112C36.7532 54.2228 36.7291 54.3418 36.7292 54.462C36.7292 54.7075 36.8265 54.9429 36.9998 55.1164C37.173 55.29 37.408 55.3875 37.653 55.3875C37.8793 55.3816 38.0955 55.2926 38.2607 55.1375C38.4258 54.9824 38.5283 54.772 38.5488 54.5462L41.9642 52.9476C42.0686 53.1808 42.1903 53.4057 42.3281 53.6207L41.5163 54.1255C41.3528 54.0068 41.1581 53.9385 40.9564 53.9292C40.7114 53.9292 40.4764 54.0267 40.3032 54.2002C40.1299 54.3738 40.0326 54.6092 40.0326 54.8546C40.0325 54.9749 40.0566 55.0939 40.1033 55.2047C40.1501 55.3154 40.2186 55.4156 40.3048 55.4993C40.3909 55.5831 40.493 55.6486 40.605 55.692C40.7169 55.7354 40.8364 55.7558 40.9564 55.7521C41.194 55.7521 41.4218 55.6575 41.5899 55.4892C41.7579 55.3209 41.8522 55.0927 41.8522 54.8546C41.8677 54.7901 41.8677 54.7229 41.8522 54.6583L42.7201 54.1255C42.9642 54.3966 43.2363 54.6411 43.5319 54.8546C43.6718 54.9913 43.8324 55.1049 44.0078 55.1912L43.028 56.9299H42.7761C42.6561 56.9262 42.5366 56.9466 42.4246 56.99C42.3127 57.0334 42.2106 57.0989 42.1244 57.1827C42.0383 57.2664 41.9698 57.3666 41.923 57.4773C41.8762 57.5881 41.8522 57.7071 41.8522 57.8273C41.8522 58.0728 41.9496 58.3082 42.1228 58.4817C42.2961 58.6553 42.531 58.7528 42.7761 58.7528C42.8961 58.7529 43.0149 58.7288 43.1255 58.6819C43.236 58.6351 43.3361 58.5664 43.4196 58.4801C43.5032 58.3938 43.5686 58.2915 43.6119 58.1794C43.6552 58.0672 43.6756 57.9475 43.6719 57.8273C43.672 57.6366 43.6134 57.4505 43.5039 57.2945L44.5397 55.4997C45.0598 55.7015 45.6071 55.8244 46.1634 55.8642V56.2849C45.9711 56.3347 45.8007 56.4471 45.679 56.6045C45.5574 56.7618 45.4915 56.9552 45.4916 57.1543C45.4916 57.3997 45.5889 57.6351 45.7621 57.8087C45.9354 57.9822 46.1704 58.0797 46.4154 58.0797C46.6222 58.0693 46.8195 57.9896 46.9757 57.8534C47.1318 57.7172 47.2378 57.5324 47.2765 57.3286C47.3153 57.1248 47.2845 56.914 47.1893 56.7298C47.0941 56.5456 46.9398 56.3988 46.7513 56.313V55.8642C47.2517 55.8329 47.7436 55.7192 48.207 55.5277L48.8229 57.0982C48.7398 57.1774 48.6744 57.2733 48.631 57.3796C48.5875 57.486 48.5671 57.6003 48.571 57.7152C48.5672 57.8354 48.5876 57.9551 48.631 58.0672C48.6743 58.1794 48.7397 58.2816 48.8233 58.3679C48.9068 58.4543 49.0069 58.5229 49.1174 58.5697C49.228 58.6166 49.3468 58.6407 49.4668 58.6406C49.5997 58.6641 49.736 58.6581 49.8663 58.6231C49.9966 58.5881 50.1176 58.5249 50.2209 58.4381C50.3242 58.3512 50.4073 58.2427 50.4643 58.1203C50.5213 57.9978 50.5509 57.8643 50.5509 57.7292C50.5509 57.5941 50.5213 57.4606 50.4643 57.3381C50.4073 57.2157 50.3242 57.1072 50.2209 57.0203C50.1176 56.9334 49.9966 56.8703 49.8663 56.8353C49.736 56.8003 49.5997 56.7943 49.4668 56.8178L48.8509 55.2753C49.3975 54.9895 49.8826 54.5988 50.2787 54.1255L52.7702 55.9764C52.7551 56.0693 52.7551 56.164 52.7702 56.2569C52.7702 56.4949 52.8646 56.7231 53.0326 56.8914C53.2006 57.0597 53.4284 57.1543 53.666 57.1543C53.786 57.158 53.9055 57.1376 54.0175 57.0942C54.1294 57.0508 54.2315 56.9853 54.3177 56.9016C54.4038 56.8178 54.4723 56.7176 54.5191 56.6069C54.5659 56.4961 54.5899 56.3771 54.5899 56.2569C54.5936 56.1353 54.5734 56.0142 54.5304 55.9005C54.4874 55.7868 54.4224 55.6827 54.3392 55.5941C54.256 55.5056 54.1562 55.4343 54.0455 55.3844C53.9348 55.3345 53.8154 55.307 53.694 55.3034V55.3034Z" fill="#2E3551"/>
<path d="M107.108 58.893C106.926 58.893 106.75 58.952 106.604 59.0612L104.113 57.1823C104.374 56.7787 104.564 56.3327 104.673 55.8642H105.792C105.859 56.0345 105.974 56.1812 106.123 56.2861C106.273 56.3909 106.45 56.449 106.632 56.4531C106.877 56.4531 107.112 56.3556 107.285 56.1821C107.459 56.0085 107.556 55.7731 107.556 55.5276C107.556 55.4074 107.532 55.2884 107.485 55.1776C107.438 55.0669 107.37 54.9667 107.284 54.883C107.198 54.7992 107.096 54.7337 106.984 54.6903C106.872 54.6469 106.752 54.6265 106.632 54.6302C106.437 54.6285 106.247 54.6905 106.09 54.8069C105.934 54.9233 105.819 55.0878 105.764 55.2752H104.729C104.756 54.6228 104.612 53.9745 104.309 53.3963L106.268 51.7136H106.632C106.752 51.7174 106.872 51.6969 106.984 51.6535C107.096 51.6101 107.198 51.5446 107.284 51.4609C107.37 51.3772 107.438 51.277 107.485 51.1662C107.532 51.0555 107.556 50.9365 107.556 50.8162C107.556 50.5708 107.459 50.3354 107.285 50.1618C107.112 49.9882 106.877 49.8907 106.632 49.8907C106.512 49.8907 106.393 49.9148 106.283 49.9616C106.172 50.0085 106.072 50.0771 105.989 50.1634C105.905 50.2498 105.84 50.352 105.796 50.4642C105.753 50.5763 105.733 50.696 105.736 50.8162C105.695 50.9534 105.695 51.0997 105.736 51.2369L103.917 52.8074C103.494 52.1859 102.974 51.6367 102.377 51.1808L101.817 50.8162L102.153 50.3675H102.321C102.566 50.3675 102.801 50.27 102.974 50.0964C103.147 49.9229 103.245 49.6875 103.245 49.442C103.245 49.3218 103.221 49.2028 103.174 49.092C103.127 48.9813 103.059 48.8811 102.973 48.7973C102.886 48.7136 102.784 48.6481 102.672 48.6047C102.56 48.5613 102.441 48.5409 102.321 48.5446C102.083 48.5446 101.856 48.6392 101.688 48.8075C101.52 48.9758 101.425 49.204 101.425 49.442C101.422 49.6682 101.502 49.8877 101.649 50.059L101.285 50.5077C100.568 50.1291 99.7719 49.9272 98.9616 49.9188L98.4297 48.152C98.5951 48.0467 98.7215 47.89 98.7895 47.7059C98.8575 47.5218 98.8634 47.3204 98.8062 47.1326C98.749 46.9448 98.6319 46.781 98.4729 46.6663C98.3139 46.5516 98.1217 46.4922 97.9258 46.4974C97.8058 46.4936 97.6863 46.5141 97.5744 46.5575C97.4624 46.6009 97.3604 46.6664 97.2742 46.7501C97.188 46.8338 97.1195 46.934 97.0727 47.0448C97.026 47.1555 97.0019 47.2746 97.002 47.3948C97.0071 47.6246 97.095 47.8447 97.2493 48.0147C97.4036 48.1848 97.614 48.2933 97.8418 48.3203L98.3737 50.0029C97.7843 50.0919 97.2315 50.3445 96.778 50.7321L96.4981 50.3114C96.5268 50.1632 96.5268 50.0109 96.4981 49.8627C96.4981 49.7425 96.4741 49.6234 96.4273 49.5127C96.3805 49.4019 96.312 49.3017 96.2259 49.218C96.1397 49.1343 96.0376 49.0688 95.9257 49.0254C95.8137 48.982 95.6942 48.9615 95.5742 48.9653C95.3366 48.9653 95.1088 49.0598 94.9408 49.2281C94.7728 49.3964 94.6784 49.6247 94.6784 49.8627C94.6747 49.9829 94.6951 50.1026 94.7384 50.2147C94.7817 50.3269 94.8471 50.4292 94.9307 50.5155C95.0142 50.6018 95.1143 50.6704 95.2248 50.7173C95.3354 50.7641 95.4542 50.7882 95.5742 50.7882C95.6939 50.8168 95.8185 50.8168 95.9382 50.7882L96.2181 51.2088C96.2181 51.3491 95.9942 51.4612 95.8822 51.6295C95.6684 51.9054 95.4897 52.2068 95.3503 52.5269L92.5508 50.9003C92.5508 50.9003 92.5508 50.7321 92.5508 50.6479C92.5508 50.4025 92.4535 50.1671 92.2802 49.9935C92.107 49.82 91.872 49.7225 91.627 49.7225C91.5069 49.7224 91.3881 49.7465 91.2776 49.7934C91.167 49.8402 91.067 49.9088 90.9834 49.9952C90.8998 50.0815 90.8345 50.1838 90.7911 50.2959C90.7478 50.408 90.7274 50.5278 90.7311 50.6479C90.7311 50.7658 90.7543 50.8825 90.7993 50.9914C90.8443 51.1002 90.9103 51.1992 90.9935 51.2825C91.0767 51.3658 91.1755 51.432 91.2841 51.4771C91.3928 51.5221 91.5093 51.5454 91.627 51.5454C91.8014 51.5905 91.9844 51.5905 92.1589 51.5454L95.1823 53.228C95.0997 53.4929 95.0434 53.7653 95.0143 54.0413L93.4746 53.7328C93.4607 53.502 93.3611 53.2847 93.1953 53.1238C93.0295 52.9629 92.8095 52.87 92.5788 52.8634C92.3338 52.8634 92.0988 52.9609 91.9255 53.1345C91.7523 53.3081 91.655 53.5435 91.655 53.7889C91.6549 53.9092 91.679 54.0282 91.7257 54.1389C91.7725 54.2497 91.841 54.3499 91.9272 54.4336C92.0133 54.5173 92.1154 54.5828 92.2274 54.6262C92.3393 54.6696 92.4588 54.6901 92.5788 54.6863C92.7242 54.6874 92.8679 54.6552 92.999 54.592C93.13 54.5288 93.2448 54.4363 93.3347 54.3217L94.9583 54.6583C94.9506 55.1535 95.0263 55.6466 95.1823 56.1166L91.8229 57.6871C91.7393 57.5639 91.6265 57.4636 91.4945 57.395C91.3626 57.3265 91.2157 57.2919 91.0671 57.2944C90.9471 57.2907 90.8276 57.3111 90.7157 57.3545C90.6037 57.3979 90.5016 57.4635 90.4155 57.5472C90.3293 57.6309 90.2608 57.7311 90.214 57.8418C90.1672 57.9526 90.1432 58.0716 90.1432 58.1919C90.1432 58.4373 90.2406 58.6727 90.4138 58.8463C90.5871 59.0198 90.8221 59.1173 91.0671 59.1173C91.2934 59.1114 91.5096 59.0224 91.6747 58.8673C91.8399 58.7122 91.9424 58.5018 91.9629 58.276L95.3783 56.6775C95.4827 56.9106 95.6043 57.1356 95.7422 57.3505L94.9304 57.8834C94.7779 57.7417 94.5784 57.6618 94.3705 57.659C94.1254 57.659 93.8905 57.7565 93.7172 57.9301C93.544 58.1036 93.4466 58.339 93.4466 58.5845C93.4466 58.7047 93.4706 58.8238 93.5174 58.9345C93.5642 59.0453 93.6327 59.1455 93.7188 59.2292C93.805 59.3129 93.9071 59.3784 94.019 59.4218C94.131 59.4652 94.2505 59.4856 94.3705 59.4819C94.608 59.4819 94.8359 59.3873 95.0039 59.219C95.1719 59.0507 95.2663 58.8225 95.2663 58.5845C95.2817 58.52 95.2817 58.4527 95.2663 58.3882L96.1341 57.8553C96.3916 58.1215 96.6625 58.3743 96.946 58.6125L97.4219 58.921L96.4421 60.6598H96.1901C96.0701 60.656 95.9506 60.6764 95.8387 60.7198C95.7268 60.7633 95.6247 60.8288 95.5385 60.9125C95.4523 60.9962 95.3838 61.0964 95.3371 61.2071C95.2903 61.3179 95.2662 61.4369 95.2663 61.5572C95.2663 61.8026 95.3636 62.038 95.5369 62.2116C95.7101 62.3851 95.9451 62.4826 96.1901 62.4826C96.3102 62.4827 96.429 62.4586 96.5395 62.4117C96.6501 62.3649 96.7501 62.2963 96.8337 62.2099C96.9172 62.1236 96.9826 62.0214 97.026 61.9092C97.0693 61.7971 97.0897 61.6774 97.086 61.5572C97.0903 61.3745 97.0309 61.1959 96.918 61.0524L97.9818 58.893C98.5019 59.0948 99.0492 59.2177 99.6055 59.2575V59.6782C99.4131 59.728 99.2427 59.8404 99.1211 59.9978C98.9995 60.1551 98.9335 60.3485 98.9336 60.5476C98.9336 60.793 99.0309 61.0284 99.2042 61.202C99.3774 61.3755 99.6124 61.473 99.8574 61.473C100.064 61.4626 100.262 61.3829 100.418 61.2467C100.574 61.1105 100.68 60.9257 100.719 60.7219C100.757 60.5181 100.727 60.3072 100.631 60.1231C100.536 59.9389 100.382 59.7921 100.193 59.7063V59.2575C100.694 59.2262 101.186 59.1125 101.649 58.921L102.265 60.4915C102.148 60.6218 102.071 60.7826 102.042 60.9551C102.013 61.1277 102.033 61.3051 102.1 61.4666C102.168 61.628 102.28 61.7671 102.423 61.8675C102.566 61.9679 102.734 62.0256 102.909 62.0339C103.029 62.0377 103.148 62.0173 103.26 61.9738C103.372 61.9304 103.474 61.8649 103.561 61.7812C103.647 61.6975 103.715 61.5973 103.762 61.4865C103.809 61.3758 103.833 61.2568 103.833 61.1365C103.833 60.8911 103.735 60.6557 103.562 60.4821C103.389 60.3085 103.154 60.211 102.909 60.211L102.293 58.6686C102.84 58.3828 103.325 57.9921 103.721 57.5188L106.212 59.3697C106.197 59.4626 106.197 59.5573 106.212 59.6502C106.25 59.8645 106.362 60.0586 106.528 60.1985C106.695 60.3384 106.905 60.4151 107.122 60.4151C107.339 60.4151 107.55 60.3384 107.716 60.1985C107.882 60.0586 107.994 59.8645 108.032 59.6502C107.992 59.4349 107.878 59.2407 107.708 59.102C107.539 58.9634 107.327 58.8893 107.108 58.893V58.893Z" fill="#2E3551"/>
<path d="M194.9 99.4732C194.717 99.4688 194.539 99.5283 194.396 99.6414L191.876 97.7625C192.149 97.3652 192.34 96.917 192.436 96.4444H193.556C193.627 96.6169 193.747 96.7646 193.902 96.8693C194.056 96.974 194.237 97.031 194.424 97.0333C194.544 97.0334 194.663 97.0093 194.773 96.9624C194.884 96.9156 194.984 96.8469 195.067 96.7606C195.151 96.6743 195.216 96.572 195.26 96.4599C195.303 96.3478 195.323 96.228 195.32 96.1078C195.32 95.8698 195.225 95.6416 195.057 95.4733C194.889 95.305 194.661 95.2104 194.424 95.2104C194.228 95.2038 194.035 95.264 193.877 95.3811C193.72 95.4983 193.607 95.6655 193.556 95.8555H192.52C192.521 95.2057 192.378 94.5638 192.1 93.9765L194.06 92.2938H194.424C194.661 92.2938 194.889 92.1993 195.057 92.031C195.225 91.8627 195.32 91.6344 195.32 91.3964C195.323 91.2762 195.303 91.1565 195.26 91.0444C195.216 90.9322 195.151 90.83 195.067 90.7436C194.984 90.6573 194.884 90.5887 194.773 90.5418C194.663 90.495 194.544 90.4709 194.424 90.4709C194.179 90.4709 193.944 90.5685 193.771 90.742C193.597 90.9156 193.5 91.151 193.5 91.3964C193.475 91.5355 193.475 91.678 193.5 91.8171L191.68 93.3876C191.265 92.7599 190.744 92.2094 190.141 91.761L189.609 91.3964L189.945 90.9477H190.365C190.485 90.9478 190.603 90.9236 190.714 90.8768C190.825 90.83 190.925 90.7613 191.008 90.675C191.092 90.5887 191.157 90.4864 191.2 90.3743C191.244 90.2621 191.264 90.1424 191.26 90.0222C191.26 89.7842 191.166 89.556 190.998 89.3877C190.83 89.2194 190.602 89.1248 190.365 89.1248C190.245 89.1211 190.125 89.1415 190.013 89.1849C189.901 89.2283 189.799 89.2938 189.713 89.3775C189.627 89.4613 189.558 89.5615 189.512 89.6722C189.465 89.783 189.441 89.902 189.441 90.0222C189.442 90.2475 189.522 90.4654 189.665 90.6392L189.329 91.0879C188.61 90.7133 187.815 90.5116 187.005 90.499L186.445 88.7322C186.572 88.6499 186.676 88.5378 186.749 88.4059C186.822 88.2739 186.862 88.126 186.865 87.975C186.865 87.8548 186.841 87.7357 186.794 87.625C186.748 87.5142 186.679 87.414 186.593 87.3303C186.507 87.2466 186.405 87.1811 186.293 87.1377C186.181 87.0943 186.061 87.0738 185.941 87.0776C185.704 87.0776 185.476 87.1721 185.308 87.3404C185.14 87.5087 185.046 87.737 185.046 87.975C185.045 88.2066 185.13 88.43 185.286 88.6014C185.441 88.7727 185.655 88.8794 185.885 88.9005L186.389 90.5831C185.802 90.6777 185.25 90.9296 184.794 91.3123L184.514 90.8916C184.556 90.745 184.556 90.5895 184.514 90.4429C184.514 90.2049 184.419 89.9766 184.251 89.8083C184.083 89.64 183.855 89.5455 183.618 89.5455C183.498 89.5417 183.378 89.5622 183.266 89.6056C183.154 89.649 183.052 89.7145 182.966 89.7982C182.88 89.8819 182.812 89.9821 182.765 90.0929C182.718 90.2036 182.694 90.3227 182.694 90.4429C182.694 90.6884 182.791 90.9237 182.965 91.0973C183.138 91.2709 183.373 91.3684 183.618 91.3684C183.728 91.3936 183.843 91.3936 183.954 91.3684L184.234 91.789L183.898 92.1816C183.7 92.4776 183.522 92.7869 183.366 93.1071L180.566 91.4805C180.58 91.397 180.58 91.3117 180.566 91.2281C180.57 91.108 180.55 90.9882 180.506 90.8761C180.463 90.764 180.398 90.6617 180.314 90.5754C180.231 90.489 180.131 90.4204 180.02 90.3736C179.909 90.3267 179.791 90.3026 179.671 90.3027C179.426 90.3027 179.191 90.4002 179.017 90.5737C178.844 90.7473 178.747 90.9827 178.747 91.2281C178.747 91.3484 178.771 91.4674 178.817 91.5782C178.864 91.6889 178.933 91.7891 179.019 91.8728C179.105 91.9565 179.207 92.0221 179.319 92.0655C179.431 92.1089 179.551 92.1293 179.671 92.1256C179.853 92.1299 180.031 92.0704 180.174 91.9573L183.198 93.668C183.113 93.9322 183.056 94.2049 183.03 94.4813L181.518 94.1728C181.504 93.9372 181.4 93.716 181.229 93.5544C181.057 93.3927 180.83 93.303 180.594 93.3034C180.474 93.3034 180.356 93.3275 180.245 93.3743C180.134 93.4212 180.034 93.4898 179.951 93.5761C179.867 93.6624 179.802 93.7647 179.759 93.8768C179.715 93.989 179.695 94.1087 179.699 94.2289C179.693 94.4251 179.753 94.6177 179.867 94.777C179.982 94.9363 180.145 95.0536 180.333 95.1108C180.52 95.1681 180.721 95.1623 180.905 95.0941C181.089 95.026 181.245 94.8994 181.35 94.7337L182.974 95.0702C182.978 95.5738 183.053 96.0743 183.198 96.5566L179.839 98.127C179.733 97.9613 179.577 97.8347 179.393 97.7666C179.209 97.6984 179.008 97.6926 178.821 97.7499C178.633 97.8071 178.47 97.9244 178.355 98.0837C178.241 98.2431 178.182 98.4356 178.187 98.6318C178.183 98.752 178.203 98.8717 178.247 98.9839C178.29 99.096 178.356 99.1983 178.439 99.2846C178.523 99.3709 178.623 99.4396 178.733 99.4864C178.844 99.5332 178.963 99.5574 179.083 99.5573C179.311 99.5577 179.531 99.4709 179.697 99.3146C179.864 99.1582 179.964 98.9441 179.979 98.716L183.422 97.1174C183.515 97.3558 183.638 97.5819 183.786 97.7905L182.974 98.2953C182.802 98.1729 182.597 98.1045 182.386 98.099C182.266 98.0989 182.147 98.123 182.037 98.1699C181.926 98.2167 181.826 98.2853 181.742 98.3717C181.659 98.458 181.594 98.5603 181.55 98.6724C181.507 98.7845 181.486 98.9043 181.49 99.0245C181.49 99.2625 181.585 99.4907 181.753 99.659C181.921 99.8273 182.148 99.9219 182.386 99.9219C182.506 99.9256 182.626 99.9052 182.737 99.8618C182.849 99.8184 182.952 99.7529 183.038 99.6691C183.124 99.5854 183.192 99.4852 183.239 99.3745C183.286 99.2637 183.31 99.1447 183.31 99.0245C183.31 99.0245 183.31 98.8842 183.31 98.8281L184.178 98.2673C184.404 98.554 184.667 98.8087 184.962 99.0245L185.465 99.361L184.458 101.1H184.206C183.968 101.1 183.74 101.194 183.572 101.363C183.404 101.531 183.31 101.759 183.31 101.997C183.306 102.117 183.327 102.237 183.37 102.349C183.413 102.461 183.479 102.564 183.562 102.65C183.646 102.736 183.746 102.805 183.856 102.852C183.967 102.899 184.086 102.923 184.206 102.923C184.451 102.923 184.686 102.825 184.859 102.652C185.032 102.478 185.13 102.243 185.13 101.997C185.117 101.809 185.059 101.626 184.962 101.464L185.997 99.6414C186.51 99.8701 187.061 100.003 187.621 100.034V100.455C187.426 100.5 187.253 100.611 187.131 100.769C187.008 100.928 186.944 101.124 186.949 101.324C186.945 101.444 186.966 101.564 187.009 101.676C187.053 101.788 187.118 101.891 187.201 101.977C187.285 102.063 187.385 102.132 187.496 102.179C187.606 102.226 187.725 102.25 187.845 102.25C188.09 102.25 188.325 102.152 188.498 101.978C188.672 101.805 188.769 101.57 188.769 101.324C188.764 101.145 188.708 100.972 188.609 100.823C188.51 100.674 188.372 100.556 188.209 100.483V100.034C188.71 100.009 189.203 99.8948 189.665 99.6975L190.281 101.268C190.125 101.437 190.036 101.656 190.029 101.885C190.005 102.018 190.011 102.155 190.046 102.285C190.081 102.416 190.144 102.537 190.231 102.64C190.318 102.744 190.426 102.827 190.548 102.884C190.67 102.941 190.804 102.971 190.938 102.971C191.073 102.971 191.207 102.941 191.329 102.884C191.451 102.827 191.559 102.744 191.646 102.64C191.733 102.537 191.796 102.416 191.831 102.285C191.866 102.155 191.872 102.018 191.848 101.885C191.848 101.647 191.754 101.419 191.586 101.25C191.418 101.082 191.19 100.988 190.952 100.988L190.337 99.4451C190.878 99.1519 191.362 98.7623 191.764 98.2953L194.256 100.146C194.24 100.239 194.24 100.334 194.256 100.427C194.256 100.547 194.28 100.666 194.327 100.777C194.373 100.887 194.442 100.988 194.528 101.071C194.614 101.155 194.716 101.221 194.828 101.264C194.94 101.307 195.06 101.328 195.18 101.324C195.417 101.324 195.645 101.23 195.813 101.061C195.981 100.893 196.076 100.665 196.076 100.427C196.093 100.277 196.072 100.124 196.015 99.9844C195.958 99.8445 195.867 99.7213 195.749 99.6261C195.632 99.531 195.493 99.4671 195.344 99.4404C195.196 99.4137 195.043 99.4249 194.9 99.4732Z" fill="#2E3551"/>
</svg>
