<svg width="1236" height="980" viewBox="0 0 1236 980" fill="none" xmlns="http://www.w3.org/2000/svg">
<path fill-rule="evenodd" clip-rule="evenodd" d="M1295 217.778L1238.21 308.519C1181.42 399.259 1067.83 580.741 954.25 580.741C840.667 580.741 727.083 399.259 613.5 362.963C499.917 326.667 386.333 435.556 272.75 399.259C159.167 362.963 45.5833 181.481 -11.2084 90.7407L-68 0V980H-11.2084C45.5833 980 159.167 980 272.75 980C386.333 980 499.917 980 613.5 980C727.083 980 840.667 980 954.25 980C1067.83 980 1181.42 980 1238.21 980H1295V217.778Z" fill="#F4BAAE" fill-opacity="0.16"/>
</svg>
