<svg width="236" height="220" viewBox="0 0 236 220" fill="none" xmlns="http://www.w3.org/2000/svg">
<path d="M88.6471 139C88.6471 139 72.4061 133.483 72.4061 124.181C72.4061 114.879 73.7179 109.726 81.1513 109.361C81.1513 109.361 63.3695 88.8422 82.4839 77.4427C82.4839 77.4427 68.6166 68.0039 76.4872 50.2663C84.3578 32.5287 93.4361 22.2007 109.448 34.1246C125.46 46.0485 98.0793 62.5321 98.0793 62.5321L102.244 98.737L88.6471 139Z" fill="#2E3551"/>
<path d="M84.6455 84.3519C84.6455 84.3519 83.6245 131.744 79.2904 152.277C74.9563 172.809 64.6003 200.102 99.1688 213.669C133.737 227.236 178.349 218.054 185.871 195.123C193.393 172.193 197.603 129.802 197.603 129.802L196.477 79.784L176.516 59L119.131 61.8778L84.6455 84.3519Z" fill="#F4BAAE"/>
<path d="M143.728 123C152.768 123.304 161.756 124.486 170.56 126.527L170.349 128C161.631 125.523 152.591 124.314 143.518 124.411L143.728 123Z" fill="#486B56"/>
<path d="M152.803 125C152.579 125.628 152.492 126.303 152.549 126.973C152.606 127.644 152.805 128.29 153.131 128.862C153.458 129.435 153.901 129.916 154.428 130.27C154.954 130.623 155.549 130.839 156.165 130.9C161.084 131.837 161.546 125.892 161.546 125.892L152.803 125Z" fill="#486B56"/>
<path d="M111.467 118.446C102.454 117.657 93.396 117.915 84.425 119.215V121C93.3486 119.161 102.453 118.877 111.446 120.157L111.467 118.446Z" fill="#486B56"/>
<path d="M102.316 119.24C102.478 119.923 102.497 120.639 102.371 121.332C102.246 122.025 101.98 122.675 101.594 123.232C101.208 123.789 100.713 124.237 100.147 124.541C99.582 124.845 98.9618 124.996 98.3356 124.983C93.2906 125.368 93.4396 119 93.4396 119L102.316 119.24Z" fill="#486B56"/>
<g style="mix-blend-mode:multiply">
<path d="M109.717 155.473C112.581 162.761 120.644 151.966 120.644 151.966C120.644 151.966 123.975 155.063 126.615 154.38C129.255 153.697 135.754 78.8582 134.292 78.0611C129.763 75.6014 106.813 148.231 109.717 155.473Z" fill="#F4BAAE"/>
</g>
<path d="M218.695 138.489C218.695 138.489 216.612 160.588 209.82 165.286C203.57 169.664 191.07 170.599 187.237 153.609C183.404 136.619 188.445 124.874 188.445 124.874C188.445 124.874 169.883 120.86 171.091 106.995C172.3 93.1288 174.737 98.0548 174.737 98.0548C172.692 96.3165 171.076 94.045 170.039 91.4476C169.002 88.8502 168.576 86.0097 168.8 83.1856C168.8 83.1856 158.592 82.0909 152.842 76.7772C147.092 71.4635 140.821 65.5569 140.654 59.3538C140.654 59.3538 125.592 75.0212 110.613 56.2294C95.6341 37.4376 100.53 25.8068 104.551 20.1738C110.426 11.9866 119.134 16.5249 121.946 18.5774C121.946 18.5774 122.071 -1.94756 144.863 0.150553C167.654 2.24866 166.612 20.1966 166.612 20.1966C174.023 19.0277 181.58 20.5412 188.133 24.5069C194.737 28.6575 197.216 44.3705 197.216 44.3705C197.216 44.3705 222.382 41.383 232.632 75.0212C242.882 108.659 224.299 137.6 218.695 138.489Z" fill="#2E3551"/>
<path d="M191.593 153.971L198.326 119.036C198.326 119.036 216.972 117.575 214.382 133.307C211.793 149.039 204.024 146.528 204.024 146.528C204.024 146.528 206.717 166.256 191.593 153.971Z" fill="#F4BAAE"/>
<path d="M122.247 58.6557C122.247 58.6557 122.851 74.4074 109.424 77.7647C95.9979 81.122 94.4158 74.3844 94.4158 74.3844C94.4158 74.3844 101.431 80.2251 92.813 86.9627C84.195 93.7003 74.4946 82.3637 78.2416 72.7977C81.9885 63.2317 94.5615 37.4541 112.942 41.4093C131.323 45.3645 122.247 58.6557 122.247 58.6557Z" fill="#2E3551"/>
<path d="M166.554 70.7409C163.427 77.2171 158.42 82.3373 152.341 85.2744C146.262 88.2116 139.467 88.7942 133.052 86.9282C109.124 81.0898 108.463 52.9967 108.463 52.9967L127.571 38L166.554 70.7409Z" fill="#2E3551"/>
<g style="mix-blend-mode:multiply">
<path d="M137.766 136.009C137.895 135.291 138.222 134.63 138.706 134.109C139.19 133.587 139.81 133.229 140.486 133.079C141.163 132.929 141.867 132.994 142.508 133.266C143.15 133.537 143.701 134.004 144.093 134.606C146.201 138.592 152.527 153.801 157.293 155.871C162.059 157.942 163.303 162.708 158.516 163.91C153.729 165.112 135.109 154.179 137.766 136.009Z" fill="#F4BAAE"/>
</g>
<g style="mix-blend-mode:multiply">
<path d="M110.439 132.34C110.527 131.556 110.398 130.761 110.069 130.061C109.741 129.362 109.228 128.792 108.601 128.43C107.974 128.067 107.263 127.929 106.563 128.034C105.864 128.139 105.21 128.482 104.69 129.017V129.017C101.785 132.433 91.9682 145.842 86.8421 146.493C81.7161 147.144 79.4124 151.792 83.5631 154.395C87.7138 156.998 108.467 151.49 110.439 132.34Z" fill="#F4BAAE"/>
</g>
<g style="mix-blend-mode:multiply" opacity="0.5">
<path d="M97.4662 180.725C97.1334 188.096 102.354 190.615 108.989 190.962C115.625 191.309 121.178 189.367 121.469 181.996C121.545 180.243 121.308 178.491 120.774 176.84C120.24 175.189 119.418 173.671 118.356 172.373C117.293 171.075 116.011 170.022 114.583 169.274C113.154 168.526 111.607 168.099 110.029 168.015C106.844 167.847 103.728 169.091 101.368 171.474C100.2 172.655 99.2517 174.079 98.5787 175.666C97.9056 177.253 97.5205 178.972 97.4454 180.725H97.4662Z" fill="#889E81"/>
</g>
<path d="M123.382 180.51C123.382 180.51 107.664 175.739 102.189 190.872C96.7141 206.005 116.762 194.433 116.762 194.433L123.382 180.51Z" fill="#F4BAAE"/>
<g style="mix-blend-mode:multiply">
<path d="M123.382 180.51C123.382 180.51 107.664 175.739 102.189 190.872C96.7141 206.005 116.762 194.433 116.762 194.433L123.382 180.51Z" fill="#F4BAAE"/>
</g>
<path d="M32.6619 206.977C40.1221 206.977 45.7382 196.79 47.1841 193.935L69.1876 193.433C69.5099 193.433 69.8191 193.293 70.047 193.045C70.2749 192.796 70.403 192.459 70.403 192.108C70.403 191.757 70.2749 191.42 70.047 191.171C69.8191 190.923 69.5099 190.783 69.1876 190.783L46.4507 191.309C46.2318 191.316 46.0189 191.388 45.8345 191.517C45.6501 191.645 45.501 191.826 45.4029 192.039C45.4029 192.176 39.2839 205.173 31.9913 204.282C24.6987 203.391 21.9326 200.262 21.9116 200.239C21.7074 199.972 21.4149 199.803 21.0973 199.769C20.7797 199.735 20.4625 199.838 20.2142 200.056C17.7591 202.118 14.6919 203.118 11.6015 202.866C8.039 202.341 8.26951 196.014 8.37429 194.62C8.42545 194.196 8.42545 193.766 8.37429 193.341C8.35535 193.165 8.30033 192.995 8.21329 192.845C8.12625 192.695 8.00941 192.568 7.87136 192.473L6.7607 191.651C5.6632 190.846 4.73888 189.791 4.05136 188.558C3.36383 187.326 2.92944 185.946 2.77808 184.514C2.62672 183.081 2.762 181.63 3.17458 180.259C3.58717 178.889 4.26728 177.633 5.16808 176.576C5.31161 176.412 5.41247 176.209 5.46034 175.988C5.50821 175.768 5.50137 175.537 5.4405 175.32C3.86882 169.222 4.12029 165.042 6.17394 162.849C9.3592 159.469 16.1069 161.73 16.1907 161.753C16.4028 161.822 16.628 161.826 16.8422 161.766C17.0564 161.705 17.2514 161.583 17.4062 161.41C17.5606 161.239 17.6695 161.026 17.7211 160.792C17.7728 160.559 17.7653 160.315 17.6995 160.086C17.2593 158.341 17.4702 156.477 18.2863 154.901C18.9257 153.985 19.7408 153.233 20.6746 152.696C21.6085 152.16 22.6385 151.852 23.6929 151.794C31.9494 150.492 34.1707 155.997 34.1707 156.225C34.2516 156.451 34.3886 156.647 34.5663 156.793C34.744 156.938 34.9553 157.026 35.1766 157.048C45.1305 158.167 45.0886 170.181 45.0676 170.752C45.0678 171.103 45.1959 171.44 45.4239 171.689C45.6496 171.943 45.9582 172.091 46.283 172.1H69.1666C69.489 172.1 69.7981 171.96 70.026 171.712C70.254 171.463 70.382 171.126 70.382 170.775C70.382 170.424 70.254 170.087 70.026 169.838C69.7981 169.59 69.489 169.45 69.1666 169.45H47.3937C47.1003 165.819 45.4448 156.043 36.0357 154.558C35.0508 152.662 31.677 147.889 23.2738 149.236C21.8629 149.331 20.4892 149.767 19.2529 150.514C18.0166 151.261 16.949 152.299 16.1279 153.553C15.2634 155.128 14.8613 156.953 14.9753 158.784C12.3349 158.235 7.45224 157.801 4.4975 161.068C1.83613 163.877 1.31224 168.719 2.92583 175.457C1.90056 176.818 1.14765 178.397 0.715437 180.094C0.283227 181.791 0.18126 183.567 0.41608 185.309C0.6509 187.051 1.21732 188.721 2.07898 190.21C2.94064 191.7 4.0785 192.976 5.41954 193.958L6.02725 194.415V194.552C5.88056 196.836 5.79675 204.807 11.3709 205.584C14.7216 205.899 18.0689 204.938 20.8429 202.866C24.0198 205.339 27.7783 206.774 31.677 207L32.6619 206.977Z" fill="#425F1C"/>
<path d="M51.3329 157.646C51.4968 157.642 51.6583 157.688 51.7977 157.779L54.0372 156.048C53.7976 155.662 53.6259 155.234 53.5301 154.784H52.5371C52.4747 154.972 52.3509 155.131 52.1876 155.232C52.0243 155.334 51.8321 155.371 51.645 155.338C51.458 155.305 51.2882 155.203 51.1657 155.051C51.0433 154.899 50.9761 154.706 50.9761 154.507C50.9761 154.308 51.0433 154.115 51.1657 153.963C51.2882 153.811 51.458 153.709 51.645 153.676C51.8321 153.642 52.0243 153.68 52.1876 153.781C52.3509 153.883 52.4747 154.041 52.5371 154.23H53.4456C53.4352 153.622 53.5657 153.02 53.8259 152.477L52.0723 150.902C51.9676 150.923 51.8601 150.923 51.7554 150.902C51.6376 150.922 51.5171 150.915 51.4021 150.881C51.2872 150.848 51.1806 150.788 51.0898 150.707C50.9989 150.626 50.9259 150.525 50.8759 150.411C50.8258 150.297 50.7999 150.173 50.7999 150.048C50.7999 149.923 50.8258 149.799 50.8759 149.685C50.9259 149.572 50.9989 149.471 51.0898 149.389C51.1806 149.308 51.2872 149.249 51.4021 149.215C51.5171 149.181 51.6376 149.174 51.7554 149.194C51.9683 149.194 52.1725 149.283 52.3231 149.441C52.4737 149.599 52.5583 149.814 52.5583 150.037C52.5924 150.168 52.5924 150.306 52.5583 150.436L54.1851 151.9C54.5576 151.319 55.022 150.809 55.5583 150.392L56.0443 150.059L55.7274 149.638H55.5795C55.3646 149.632 55.1604 149.538 55.0104 149.377C54.8605 149.215 54.7766 148.998 54.7766 148.773C54.8079 148.57 54.9069 148.385 55.0559 148.252C55.205 148.119 55.3943 148.046 55.59 148.046C55.7858 148.046 55.9751 148.119 56.1242 148.252C56.2732 148.385 56.3722 148.57 56.4034 148.773C56.4021 148.975 56.335 149.171 56.2133 149.327L56.5091 149.749C57.1647 149.402 57.8879 149.22 58.6218 149.216L59.0866 147.553C58.9782 147.477 58.8888 147.375 58.8262 147.255C58.7637 147.136 58.7298 147.002 58.7275 146.865C58.7275 146.636 58.8143 146.416 58.9688 146.253C59.1233 146.091 59.3329 146 59.5514 146C59.77 146 59.9795 146.091 60.1341 146.253C60.2886 146.416 60.3754 146.636 60.3754 146.865C60.3757 147.081 60.2969 147.289 60.1554 147.446C60.0138 147.603 59.8203 147.697 59.6148 147.708L59.15 149.283C59.6751 149.386 60.1684 149.622 60.5867 149.971L60.6712 149.66C60.6399 149.529 60.6399 149.392 60.6712 149.261C60.6711 149.035 60.755 148.818 60.905 148.657C61.055 148.495 61.2592 148.401 61.474 148.396C61.6909 148.401 61.8973 148.494 62.0507 148.655C62.2041 148.816 62.2926 149.033 62.298 149.261C62.2925 149.486 62.2032 149.701 62.0493 149.858C61.8954 150.016 61.6889 150.104 61.474 150.104C61.3693 150.125 61.2618 150.125 61.1571 150.104L60.9247 150.503L61.2205 150.88C61.4033 151.143 61.5591 151.426 61.6853 151.723L64.2628 150.215C64.2524 150.134 64.2524 150.052 64.2628 149.971C64.2438 149.847 64.2506 149.72 64.2827 149.6C64.3148 149.479 64.3715 149.367 64.4488 149.272C64.5262 149.176 64.6223 149.1 64.7307 149.047C64.839 148.995 64.9569 148.967 65.0762 148.967C65.1956 148.967 65.3135 148.995 65.4218 149.047C65.5301 149.1 65.6263 149.176 65.7036 149.272C65.781 149.367 65.8377 149.479 65.8698 149.6C65.9019 149.72 65.9087 149.847 65.8896 149.971C65.8897 150.083 65.8682 150.195 65.8266 150.298C65.7849 150.402 65.7239 150.496 65.6471 150.575C65.5703 150.653 65.4793 150.715 65.3794 150.756C65.2795 150.797 65.1729 150.816 65.0657 150.813C64.9022 150.814 64.7416 150.768 64.6009 150.68L61.8966 152.255C61.9827 152.498 62.0395 152.752 62.0656 153.01L63.4177 152.721C63.449 152.518 63.548 152.334 63.697 152.2C63.8461 152.067 64.0354 151.994 64.2311 151.994C64.4269 151.994 64.6162 152.067 64.7653 152.2C64.9143 152.334 65.0133 152.518 65.0445 152.721C65.0445 152.945 64.96 153.159 64.8094 153.317C64.6588 153.475 64.4546 153.564 64.2417 153.564C64.1102 153.566 63.9802 153.535 63.8626 153.473C63.745 153.411 63.6432 153.321 63.5656 153.209L62.1078 153.52C62.1085 153.985 62.0444 154.449 61.9177 154.895L64.8967 156.381C64.968 156.26 65.0675 156.16 65.1857 156.09C65.3039 156.02 65.4371 155.983 65.5727 155.982C65.7913 155.982 66.0008 156.073 66.1554 156.235C66.3099 156.397 66.3967 156.618 66.3967 156.847C66.3967 157.076 66.3099 157.296 66.1554 157.459C66.0008 157.621 65.7913 157.712 65.5727 157.712C65.3703 157.713 65.1752 157.633 65.0263 157.489C64.8774 157.345 64.7859 157.148 64.7699 156.936L61.7064 155.427C61.6101 155.651 61.4971 155.866 61.3684 156.071L62.1078 156.536C62.2548 156.423 62.4323 156.361 62.6149 156.359C62.8298 156.359 63.0363 156.447 63.1902 156.604C63.3441 156.762 63.4333 156.976 63.4389 157.202C63.4335 157.43 63.345 157.646 63.1916 157.807C63.0382 157.968 62.8317 158.061 62.6149 158.067C62.4 158.061 62.1959 157.968 62.0459 157.806C61.8959 157.644 61.812 157.428 61.8121 157.202C61.8001 157.143 61.8001 157.083 61.8121 157.024L61.0303 156.514C60.817 156.778 60.5761 157.017 60.312 157.224L59.8895 157.535L60.7768 159.154H60.9881C61.0953 159.151 61.202 159.171 61.3018 159.212C61.4017 159.253 61.4927 159.314 61.5695 159.393C61.6463 159.471 61.7073 159.565 61.749 159.669C61.7906 159.773 61.8121 159.884 61.8121 159.997C61.8311 160.12 61.8243 160.247 61.7922 160.368C61.7601 160.488 61.7034 160.6 61.6261 160.696C61.5487 160.791 61.4525 160.868 61.3442 160.92C61.2359 160.973 61.118 161 60.9986 161C60.8793 161 60.7614 160.973 60.6531 160.92C60.5448 160.868 60.4486 160.791 60.3712 160.696C60.2939 160.6 60.2372 160.488 60.2051 160.368C60.173 160.247 60.1662 160.12 60.1852 159.997C60.1788 159.821 60.2311 159.648 60.3331 159.509L59.4035 157.801C58.9379 157.997 58.4462 158.117 57.9457 158.156V158.533C58.1134 158.588 58.2604 158.697 58.3665 158.844C58.4725 158.991 58.5322 159.169 58.5373 159.354C58.5563 159.477 58.5496 159.604 58.5175 159.724C58.4854 159.845 58.4287 159.957 58.3513 160.052C58.274 160.148 58.1778 160.224 58.0695 160.277C57.9611 160.33 57.8432 160.357 57.7239 160.357C57.6046 160.357 57.4867 160.33 57.3783 160.277C57.27 160.224 57.1738 160.148 57.0965 160.052C57.0191 159.957 56.9624 159.845 56.9303 159.724C56.8982 159.604 56.8915 159.477 56.9105 159.354C56.9152 159.19 56.9632 159.03 57.0489 158.893C57.1347 158.756 57.255 158.647 57.3964 158.577V158.156C56.9479 158.118 56.5068 158.014 56.0865 157.845L55.5372 159.287C55.6132 159.369 55.6729 159.466 55.7127 159.573C55.7526 159.68 55.772 159.794 55.7696 159.908C55.7384 160.111 55.6394 160.296 55.4903 160.429C55.3413 160.562 55.1519 160.635 54.9562 160.635C54.7605 160.635 54.5711 160.562 54.4221 160.429C54.273 160.296 54.1741 160.111 54.1428 159.908C54.1399 159.794 54.1592 159.68 54.1996 159.573C54.24 159.467 54.3006 159.371 54.3777 159.29C54.4548 159.209 54.5468 159.145 54.648 159.103C54.7493 159.06 54.8578 159.04 54.9668 159.043L55.5161 157.601C55.0301 157.329 54.5995 156.96 54.2484 156.514L52.0089 158.267C52.0208 158.347 52.0208 158.43 52.0089 158.511C52.028 158.634 52.0212 158.761 51.9891 158.882C51.957 159.002 51.9003 159.114 51.8229 159.209C51.7456 159.305 51.6494 159.382 51.5411 159.434C51.4328 159.487 51.3149 159.514 51.1955 159.514C51.0762 159.514 50.9583 159.487 50.85 159.434C50.7416 159.382 50.6455 159.305 50.5681 159.209C50.4908 159.114 50.4341 159.002 50.402 158.882C50.3699 158.761 50.3631 158.634 50.3821 158.511C50.3768 158.384 50.399 158.257 50.4468 158.141C50.4946 158.024 50.567 157.92 50.6584 157.837C50.7498 157.754 50.858 157.693 50.9748 157.66C51.0916 157.627 51.214 157.622 51.3329 157.646V157.646Z" fill="#425F1C"/>
<path d="M59.3238 210.499C59.4924 210.503 59.6563 210.561 59.796 210.666L62.0714 208.774C61.8247 208.368 61.6499 207.913 61.5562 207.433H60.5473C60.4847 207.606 60.3783 207.755 60.241 207.861C60.1037 207.968 59.9416 208.027 59.7746 208.032C59.5525 208.032 59.3396 207.934 59.1826 207.759C59.0256 207.583 58.9374 207.346 58.9374 207.098C58.9374 206.977 58.9592 206.856 59.0015 206.744C59.0438 206.632 59.1058 206.531 59.1839 206.446C59.2619 206.361 59.3544 206.295 59.4558 206.251C59.5573 206.206 59.6657 206.185 59.7746 206.188C59.9483 206.19 60.117 206.254 60.256 206.37C60.395 206.487 60.497 206.649 60.5473 206.835H61.4918C61.4712 206.17 61.6043 205.51 61.8782 204.919L60.0966 203.219C59.9902 203.242 59.8809 203.242 59.7746 203.219C59.6657 203.222 59.5573 203.201 59.4558 203.157C59.3544 203.112 59.2619 203.046 59.1839 202.961C59.1058 202.876 59.0438 202.775 59.0015 202.663C58.9592 202.551 58.9374 202.431 58.9374 202.309C58.9181 202.176 58.9249 202.039 58.9576 201.909C58.9902 201.778 59.0478 201.658 59.1264 201.555C59.205 201.452 59.3027 201.369 59.4127 201.312C59.5228 201.255 59.6426 201.226 59.7638 201.226C59.8851 201.226 60.0049 201.255 60.1149 201.312C60.225 201.369 60.3227 201.452 60.4013 201.555C60.4799 201.658 60.5375 201.778 60.5701 201.909C60.6027 202.039 60.6096 202.176 60.5903 202.309C60.6123 202.452 60.6123 202.597 60.5903 202.74L62.2431 204.32C62.6156 203.688 63.0884 203.136 63.6384 202.692C63.7942 202.551 63.9592 202.423 64.1321 202.309L63.8101 201.878H63.6598C63.4635 201.843 63.2849 201.73 63.156 201.561C63.0271 201.393 62.9563 201.178 62.9563 200.956C62.9563 200.734 63.0271 200.52 63.156 200.351C63.2849 200.182 63.4635 200.07 63.6598 200.034C63.8819 200.034 64.0948 200.133 64.2518 200.308C64.4088 200.483 64.497 200.72 64.497 200.968C64.4914 201.19 64.4153 201.402 64.2823 201.567L64.6043 202.022C65.2664 201.636 66.0038 201.438 66.7509 201.447L67.2017 199.723C67.0911 199.636 67.0004 199.522 66.937 199.388C66.8736 199.255 66.8392 199.107 66.8368 198.957C66.8327 198.773 66.8773 198.592 66.965 198.437C67.0526 198.281 67.1793 198.158 67.3294 198.083C67.4794 198.007 67.6461 197.983 67.8085 198.012C67.971 198.042 68.122 198.124 68.2427 198.249C68.3635 198.374 68.4485 198.536 68.4873 198.714C68.526 198.892 68.5168 199.08 68.4607 199.252C68.4045 199.425 68.304 199.575 68.1718 199.684C68.0395 199.794 67.8812 199.857 67.7168 199.867L67.2661 201.567C67.7966 201.688 68.2957 201.942 68.7257 202.309L68.9618 201.902C68.9299 201.752 68.9299 201.597 68.9618 201.447C68.9674 201.203 69.0581 200.972 69.2145 200.802C69.3709 200.632 69.5806 200.537 69.799 200.537C69.9953 200.572 70.1739 200.685 70.3028 200.854C70.4317 201.022 70.5025 201.237 70.5025 201.459C70.5025 201.681 70.4317 201.895 70.3028 202.064C70.1739 202.233 69.9953 202.345 69.799 202.381C69.6926 202.404 69.5834 202.404 69.477 202.381L69.2194 202.812C69.2669 202.897 69.3099 202.985 69.3482 203.075C69.5485 203.361 69.7145 203.675 69.8419 204.009L72.4607 202.381C72.4502 202.285 72.4502 202.189 72.4607 202.093C72.4607 201.852 72.5467 201.621 72.6996 201.45C72.8526 201.279 73.0601 201.184 73.2764 201.184C73.3961 201.162 73.5186 201.17 73.6353 201.206C73.7521 201.242 73.8604 201.307 73.9527 201.394C74.045 201.482 74.1192 201.591 74.17 201.714C74.2209 201.837 74.2472 201.97 74.2472 202.105C74.2472 202.241 74.2209 202.374 74.17 202.497C74.1192 202.62 74.045 202.729 73.9527 202.817C73.8604 202.904 73.7521 202.969 73.6353 203.005C73.5186 203.041 73.3961 203.049 73.2764 203.027C73.1079 203.023 72.944 202.965 72.8042 202.86L70.0566 204.584C70.1365 204.849 70.194 205.121 70.2283 205.398L71.4948 205.135C71.5265 204.916 71.6271 204.716 71.7785 204.573C71.93 204.429 72.1223 204.35 72.3212 204.35C72.5201 204.35 72.7125 204.429 72.8639 204.573C73.0153 204.716 73.1159 204.916 73.1476 205.135C73.1476 205.382 73.0594 205.62 72.9024 205.795C72.7454 205.97 72.5325 206.069 72.3105 206.069C72.1783 206.066 72.0487 206.027 71.9327 205.957C71.8168 205.886 71.7181 205.784 71.645 205.661L70.1639 205.997C70.163 206.507 70.098 207.015 69.9707 207.505L73.0188 209.086C73.0924 208.958 73.1943 208.853 73.3146 208.782C73.4348 208.711 73.5696 208.675 73.7057 208.679C73.9021 208.714 74.0807 208.826 74.2096 208.995C74.3385 209.164 74.4093 209.379 74.4093 209.601C74.4093 209.822 74.3385 210.037 74.2096 210.206C74.0807 210.375 73.9021 210.487 73.7057 210.522C73.4978 210.524 73.2969 210.439 73.1422 210.284C72.9874 210.129 72.8899 209.915 72.8686 209.684L69.7775 208.056C69.6759 208.295 69.5612 208.527 69.4341 208.75L70.1854 209.277C70.3253 209.133 70.5102 209.056 70.7005 209.062C70.8969 209.097 71.0755 209.209 71.2044 209.378C71.3333 209.547 71.4041 209.762 71.4041 209.984C71.4041 210.206 71.3333 210.42 71.2044 210.589C71.0755 210.758 70.8969 210.87 70.7005 210.906C70.4822 210.906 70.2724 210.811 70.1161 210.641C69.9597 210.471 69.869 210.239 69.8634 209.996C69.8634 209.996 69.8634 209.852 69.8634 209.78L69.0906 209.253C68.8738 209.531 68.6289 209.78 68.3608 209.996L67.91 210.331L68.8116 212.103H69.0477C69.1674 212.081 69.2899 212.089 69.4066 212.125C69.5234 212.162 69.6317 212.226 69.724 212.314C69.8163 212.401 69.8904 212.51 69.9413 212.633C69.9921 212.756 70.0185 212.89 70.0185 213.025C70.0185 213.16 69.9921 213.294 69.9413 213.416C69.8904 213.539 69.8163 213.648 69.724 213.736C69.6317 213.824 69.5234 213.888 69.4066 213.924C69.2899 213.961 69.1674 213.968 69.0477 213.947C68.8314 213.947 68.6239 213.851 68.4709 213.68C68.318 213.51 68.232 213.278 68.232 213.037C68.2258 212.84 68.2786 212.646 68.3823 212.486L67.4378 210.642C66.9703 210.873 66.4677 211.003 65.9567 211.025V211.456C66.1345 211.505 66.2926 211.618 66.4055 211.779C66.5184 211.94 66.5795 212.138 66.5792 212.342C66.5985 212.476 66.5916 212.612 66.559 212.743C66.5264 212.873 66.4688 212.994 66.3902 213.097C66.3116 213.2 66.2139 213.282 66.1038 213.339C65.9938 213.396 65.874 213.425 65.7527 213.425C65.6315 213.425 65.5117 213.396 65.4016 213.339C65.2916 213.282 65.1939 213.2 65.1153 213.097C65.0367 212.994 64.9791 212.873 64.9465 212.743C64.9138 212.612 64.907 212.476 64.9263 212.342C64.92 212.163 64.9641 211.985 65.0527 211.835C65.1412 211.685 65.2696 211.569 65.42 211.504V211.025C64.9628 210.997 64.513 210.884 64.0892 210.69L63.531 212.271C63.6076 212.355 63.668 212.456 63.7086 212.567C63.7492 212.678 63.7691 212.797 63.7672 212.917C63.7865 213.051 63.7796 213.187 63.747 213.317C63.7144 213.448 63.6568 213.568 63.5782 213.671C63.4996 213.774 63.4019 213.857 63.2918 213.914C63.1818 213.971 63.062 214 62.9407 214C62.8195 214 62.6997 213.971 62.5897 213.914C62.4796 213.857 62.3819 213.774 62.3033 213.671C62.2247 213.568 62.1671 213.448 62.1345 213.317C62.1018 213.187 62.095 213.051 62.1143 212.917C62.1143 212.676 62.2003 212.444 62.3532 212.274C62.5062 212.103 62.7137 212.007 62.93 212.007V212.007L63.4881 210.451C62.9895 210.155 62.551 209.747 62.2002 209.253L59.9248 211.145C59.9352 211.24 59.9352 211.337 59.9248 211.432C59.9192 211.676 59.8286 211.907 59.6722 212.077C59.5158 212.247 59.306 212.342 59.0877 212.342C58.8914 212.307 58.7127 212.195 58.5838 212.026C58.4549 211.857 58.3841 211.642 58.3841 211.42C58.3841 211.199 58.4549 210.984 58.5838 210.815C58.7127 210.646 58.8914 210.534 59.0877 210.499H59.3238Z" fill="#425F1C"/>
<path d="M224.018 217.691C223.9 217.691 223.784 217.731 223.69 217.805L222.023 216.572C222.186 216.297 222.305 215.997 222.374 215.682H223.076C223.119 215.796 223.195 215.894 223.293 215.963C223.39 216.033 223.506 216.07 223.624 216.07C223.775 216.07 223.92 216.008 224.027 215.896C224.134 215.785 224.194 215.634 224.194 215.477C224.194 215.399 224.179 215.321 224.15 215.249C224.122 215.177 224.08 215.112 224.027 215.057C223.974 215.002 223.911 214.958 223.842 214.928C223.773 214.899 223.699 214.883 223.624 214.883C223.502 214.882 223.384 214.921 223.285 214.995C223.186 215.069 223.113 215.174 223.076 215.294H222.418C222.417 214.868 222.327 214.448 222.155 214.061L223.383 212.966H223.624C223.741 212.966 223.855 212.93 223.953 212.862C224.05 212.794 224.126 212.698 224.171 212.585C224.215 212.473 224.227 212.349 224.204 212.229C224.182 212.11 224.125 212 224.042 211.914C223.96 211.828 223.854 211.769 223.739 211.745C223.624 211.721 223.505 211.734 223.397 211.78C223.289 211.827 223.197 211.906 223.132 212.007C223.066 212.109 223.032 212.228 223.032 212.35C223.009 212.447 223.009 212.549 223.032 212.646L221.87 213.673C221.608 213.262 221.282 212.9 220.905 212.601L220.554 212.372L220.773 212.076C220.925 212.076 221.07 212.013 221.177 211.902C221.283 211.791 221.344 211.64 221.344 211.482C221.317 211.342 221.245 211.216 221.139 211.125C221.033 211.034 220.9 210.984 220.763 210.984C220.625 210.984 220.492 211.034 220.386 211.125C220.28 211.216 220.208 211.342 220.182 211.482C220.181 211.554 220.195 211.626 220.221 211.692C220.247 211.759 220.286 211.819 220.335 211.87L220.116 212.167C219.655 211.92 219.143 211.794 218.625 211.802L218.296 210.638C218.371 210.58 218.433 210.504 218.475 210.417C218.517 210.33 218.538 210.233 218.537 210.136C218.54 210.057 218.528 209.978 218.5 209.905C218.472 209.831 218.431 209.765 218.377 209.709C218.323 209.653 218.259 209.61 218.189 209.581C218.118 209.552 218.043 209.539 217.967 209.542C217.892 209.542 217.818 209.558 217.749 209.587C217.68 209.617 217.617 209.661 217.564 209.716C217.511 209.771 217.469 209.837 217.44 209.909C217.412 209.981 217.397 210.058 217.397 210.136C217.397 210.285 217.451 210.43 217.548 210.54C217.646 210.65 217.78 210.718 217.923 210.729L218.252 211.847C217.884 211.921 217.538 212.085 217.244 212.327L217.068 212.053C217.09 211.955 217.09 211.854 217.068 211.756C217.068 211.678 217.053 211.601 217.025 211.529C216.996 211.457 216.954 211.392 216.901 211.337C216.848 211.281 216.785 211.238 216.716 211.208C216.647 211.178 216.573 211.163 216.498 211.163C216.347 211.163 216.202 211.225 216.095 211.337C215.988 211.448 215.928 211.599 215.928 211.756C215.925 211.835 215.938 211.914 215.965 211.987C215.993 212.061 216.035 212.127 216.088 212.183C216.142 212.239 216.206 212.282 216.276 212.311C216.347 212.34 216.422 212.353 216.498 212.35C216.569 212.374 216.646 212.374 216.717 212.35L216.893 212.646L216.673 212.897C216.543 213.082 216.433 213.281 216.345 213.491L214.525 212.441C214.525 212.441 214.525 212.441 214.525 212.258C214.499 212.118 214.426 211.992 214.32 211.901C214.214 211.81 214.081 211.76 213.944 211.76C213.806 211.76 213.673 211.81 213.567 211.901C213.461 211.992 213.389 212.118 213.363 212.258C213.363 212.416 213.423 212.567 213.53 212.678C213.637 212.789 213.782 212.852 213.933 212.852C214.04 212.888 214.155 212.888 214.262 212.852L216.191 213.947C216.133 214.125 216.096 214.309 216.082 214.495L215.446 214.198C215.44 214.045 215.377 213.9 215.271 213.793C215.165 213.687 215.023 213.628 214.876 213.628C214.79 213.61 214.702 213.613 214.617 213.635C214.532 213.658 214.453 213.699 214.386 213.757C214.318 213.815 214.264 213.887 214.227 213.97C214.19 214.052 214.17 214.142 214.17 214.233C214.17 214.324 214.19 214.413 214.227 214.496C214.264 214.578 214.318 214.651 214.386 214.708C214.453 214.766 214.532 214.808 214.617 214.83C214.702 214.852 214.79 214.855 214.876 214.837C214.987 214.845 215.099 214.821 215.199 214.769C215.299 214.717 215.384 214.638 215.446 214.541L216.476 214.746C216.475 215.078 216.52 215.409 216.608 215.728L214.415 216.755C214.362 216.672 214.29 216.604 214.206 216.556C214.122 216.508 214.029 216.483 213.933 216.481C213.847 216.463 213.759 216.466 213.674 216.488C213.589 216.511 213.511 216.552 213.443 216.61C213.376 216.668 213.321 216.74 213.284 216.823C213.247 216.905 213.227 216.995 213.227 217.086C213.227 217.177 213.247 217.266 213.284 217.349C213.321 217.431 213.376 217.504 213.443 217.561C213.511 217.619 213.589 217.661 213.674 217.683C213.759 217.705 213.847 217.708 213.933 217.691C214.077 217.691 214.215 217.635 214.321 217.533C214.427 217.432 214.492 217.292 214.503 217.143L216.695 216.093C216.76 216.249 216.833 216.402 216.915 216.549L216.41 216.869C216.3 216.79 216.171 216.743 216.038 216.732C215.903 216.759 215.781 216.835 215.694 216.945C215.607 217.055 215.559 217.194 215.559 217.337C215.559 217.48 215.607 217.618 215.694 217.729C215.781 217.839 215.903 217.914 216.038 217.942C216.189 217.942 216.334 217.879 216.441 217.768C216.548 217.657 216.608 217.506 216.608 217.348V217.211L217.156 216.846C217.297 217.04 217.467 217.21 217.66 217.348C217.753 217.437 217.856 217.514 217.967 217.576L217.331 218.718H217.178C217.102 218.714 217.027 218.728 216.956 218.756C216.885 218.785 216.821 218.829 216.768 218.884C216.714 218.94 216.672 219.007 216.645 219.08C216.617 219.154 216.605 219.232 216.608 219.311C216.608 219.468 216.668 219.619 216.775 219.731C216.882 219.842 217.027 219.905 217.178 219.905C217.329 219.905 217.474 219.842 217.581 219.731C217.688 219.619 217.748 219.468 217.748 219.311C217.725 219.235 217.688 219.165 217.638 219.106L218.296 217.896C218.621 218.046 218.971 218.132 219.326 218.147V218.421C219.207 218.456 219.101 218.53 219.026 218.633C218.951 218.736 218.91 218.862 218.91 218.992C218.91 219.151 218.969 219.304 219.075 219.419C219.182 219.534 219.327 219.602 219.48 219.608C219.608 219.597 219.73 219.543 219.826 219.453C219.922 219.364 219.988 219.244 220.013 219.112C220.038 218.98 220.02 218.844 219.964 218.723C219.907 218.603 219.814 218.504 219.699 218.444V218.147C220.021 218.125 220.338 218.056 220.642 217.942L221.037 218.946C220.925 219.061 220.862 219.217 220.861 219.38C220.861 219.537 220.921 219.688 221.028 219.799C221.135 219.91 221.28 219.973 221.431 219.973C221.506 219.973 221.58 219.958 221.649 219.928C221.719 219.898 221.781 219.854 221.834 219.799C221.887 219.744 221.929 219.679 221.958 219.607C221.987 219.535 222.001 219.458 222.001 219.38C222.004 219.301 221.992 219.222 221.964 219.149C221.937 219.075 221.895 219.009 221.841 218.953C221.788 218.897 221.724 218.853 221.653 218.825C221.582 218.796 221.507 218.783 221.431 218.786V218.786L221.037 217.759C221.386 217.58 221.693 217.323 221.936 217.006L223.536 218.216C223.526 218.276 223.526 218.338 223.536 218.398C223.519 218.487 223.522 218.579 223.543 218.668C223.565 218.756 223.605 218.838 223.66 218.908C223.716 218.978 223.785 219.035 223.864 219.073C223.943 219.112 224.03 219.132 224.117 219.132C224.204 219.132 224.291 219.112 224.37 219.073C224.449 219.035 224.518 218.978 224.574 218.908C224.63 218.838 224.669 218.756 224.691 218.668C224.712 218.579 224.715 218.487 224.698 218.398C224.719 218.301 224.716 218.2 224.689 218.104C224.662 218.008 224.612 217.921 224.545 217.85C224.477 217.78 224.393 217.728 224.301 217.7C224.209 217.672 224.112 217.669 224.018 217.691V217.691Z" fill="#E5E4CC"/>
</svg>
