<svg width="231" height="222" viewBox="0 0 231 222" fill="none" xmlns="http://www.w3.org/2000/svg">
<path d="M73.3213 140.739C73.3213 140.739 55.9756 135.165 55.9756 125.768C55.9756 116.371 57.3784 111.166 65.3275 110.798C65.3275 110.798 46.3341 90.0688 66.7526 78.5528C66.7526 78.5528 51.9453 69.0176 60.3398 51.0987C68.7343 33.1799 78.4648 22.6312 95.5879 34.677C112.711 46.7227 83.4526 63.3748 83.4526 63.3748L87.9059 99.9495L73.3213 140.739Z" fill="#2E3551"/>
<path d="M68.9125 85.2089C68.9125 85.2089 67.8214 133 63.1677 153.706C58.514 174.412 47.5811 201.935 84.4323 215.616C121.284 229.297 169.045 220.038 177.061 196.914C185.077 173.79 189.575 131.042 189.575 131.042L188.328 80.6025L166.997 59.6434L105.675 62.4303L68.9125 85.2089Z" fill="#F4BAAE"/>
<g style="mix-blend-mode:multiply">
<path d="M95.8552 157.023C98.9725 164.393 107.835 153.476 107.835 153.476C107.835 153.476 111.486 156.608 114.359 155.917C117.231 155.226 124.401 79.5432 122.776 78.737C117.832 76.2496 92.7156 149.698 95.8552 157.023Z" fill="#F4BAAE"/>
</g>
<path d="M212.577 139.864C212.577 139.864 210.35 162.182 203.091 166.926C196.411 171.349 183.051 172.293 178.932 155.134C174.813 137.975 180.223 126.114 180.223 126.114C180.223 126.114 160.384 122.06 161.72 108.057C163.056 94.0533 165.572 99.0282 165.572 99.0282C163.391 97.2688 161.67 94.9734 160.566 92.3507C159.462 89.728 159.009 86.8613 159.248 84.0114C159.248 84.0114 148.315 82.9289 142.17 77.5394C136.024 72.1499 129.322 66.2077 129.166 59.8739C129.166 59.8739 113.067 75.6968 97.0576 56.7185C81.0478 37.7402 86.2805 26.063 90.578 20.3741C96.8349 12.1056 106.165 16.689 109.148 18.7619C109.148 18.7619 109.304 -1.96689 133.642 0.152048C157.979 2.27099 156.888 20.3971 156.888 20.3971C164.809 19.2166 172.886 20.7452 179.889 24.7502C186.97 28.942 189.575 44.811 189.575 44.811C189.575 44.811 216.451 41.7938 227.429 75.7659C238.406 109.738 218.522 138.966 212.577 139.864Z" fill="#2E3551"/>
<path d="M183.274 155.549L190.511 120.31C190.511 120.31 210.551 118.836 207.767 134.705C204.984 150.574 196.634 148.04 196.634 148.04C196.634 148.04 199.484 167.94 183.274 155.549Z" fill="#F4BAAE"/>
<path d="M109.416 59.528C109.416 59.528 110.061 75.3049 95.677 78.6676C81.2928 82.0302 79.6228 75.2819 79.6228 75.2819C79.6228 75.2819 87.1489 81.132 77.9305 87.8803C68.7121 94.6287 58.3359 83.274 62.3439 73.6927C66.3519 64.1114 79.8454 38.2926 99.4623 42.2541C119.079 46.2155 109.416 59.528 109.416 59.528Z" fill="#2E3551"/>
<path d="M156.888 71.5972C153.522 78.1119 148.131 83.2625 141.585 86.2171C135.04 89.1718 127.723 89.7579 120.816 87.8808C95.0759 82.0076 94.3411 53.7474 94.3411 53.7474L114.826 38.6615L156.888 71.5972Z" fill="#2E3551"/>
<g style="mix-blend-mode:multiply">
<path d="M125.804 136.962C125.94 136.22 126.285 135.536 126.796 134.997C127.307 134.457 127.961 134.087 128.676 133.932C129.39 133.776 130.133 133.844 130.811 134.125C131.489 134.406 132.071 134.888 132.484 135.511V135.511C134.71 139.634 141.39 155.364 146.445 157.506C151.499 159.648 152.769 164.577 147.736 165.821C142.704 167.065 122.998 155.756 125.804 136.962Z" fill="#F4BAAE"/>
</g>
<g style="mix-blend-mode:multiply">
<path d="M96.9907 133.576C97.0854 132.799 96.9471 132.011 96.5944 131.318C96.2418 130.624 95.6919 130.06 95.019 129.701C94.3462 129.341 93.5829 129.205 92.8325 129.309C92.082 129.413 91.3805 129.753 90.8229 130.283V130.283C87.7055 133.668 77.1734 146.958 71.6736 147.603C66.1737 148.247 63.7467 152.67 68.2891 155.249C72.8314 157.829 94.8309 152.554 96.9907 133.576Z" fill="#F4BAAE"/>
</g>
<g style="mix-blend-mode:multiply" opacity="0.5">
<g style="mix-blend-mode:multiply" opacity="0.5">
<path d="M112.399 186.549C112.099 186.547 111.802 186.476 111.531 186.342C84.0315 173.145 73.7889 184.407 73.7889 184.523C73.425 184.946 72.9139 185.203 72.3672 185.238C71.8205 185.272 71.2829 185.081 70.8719 184.707C70.6668 184.526 70.4982 184.304 70.3759 184.056C70.2536 183.807 70.18 183.536 70.1593 183.258C70.1386 182.979 70.1712 182.7 70.2553 182.435C70.3394 182.169 70.4733 181.924 70.6493 181.713C71.1391 181.114 82.74 167.755 113.334 182.496C113.75 182.713 114.083 183.069 114.279 183.506C114.475 183.943 114.523 184.436 114.414 184.905C114.306 185.373 114.049 185.791 113.683 186.089C113.317 186.387 112.865 186.55 112.399 186.549V186.549Z" fill="#889E81"/>
</g>
</g>
<path d="M78.4872 176.945L27.2739 146.727C27.2739 146.727 33.1969 136.041 25.5371 129.546C17.8774 123.051 6.43238 128.739 3.11466 136.087C-0.203071 143.434 -2.09573 152.716 6.43238 156.815C14.9605 160.915 23.2437 153.153 23.2437 153.153L71.7404 180.584C73.8838 179.173 76.1411 177.955 78.4872 176.945Z" fill="white"/>
<path d="M71.8517 178.903L22.8652 151.126C22.8652 151.126 15.8957 158.704 6.81092 154.673C-2.27386 150.643 5.18546 137.284 6.81092 134.705C7.34532 133.876 13.914 125.492 22.3976 130.927C30.8811 136.363 24.4461 147.349 24.4461 147.349L75.2808 177.014L71.8517 178.903Z" fill="#C0414C"/>
<path opacity="0.5" d="M15.0941 132.425C15.0941 132.425 7.18949 134.014 6.72189 140.048C6.25429 146.083 16.586 138.505 17.4989 137.331C18.4119 136.156 19.8815 130.444 15.0941 132.425Z" fill="white"/>
<path d="M82.807 127.081C82.1192 127.082 81.433 127.012 80.7584 126.874C78.8628 126.319 77.1092 125.338 75.6233 124C74.1374 122.662 72.9559 121.001 72.1635 119.135C72.0568 118.873 72.0009 118.593 71.9991 118.309C71.9973 118.025 72.0496 117.743 72.153 117.48C72.2563 117.217 72.4088 116.978 72.6016 116.776C72.7945 116.573 73.0239 116.413 73.2768 116.302C73.5298 116.192 73.8013 116.134 74.0758 116.132C74.3503 116.13 74.6225 116.184 74.8768 116.291C75.3904 116.507 75.8001 116.925 76.0156 117.454C76.5495 118.688 77.3292 119.792 78.3038 120.693C79.2784 121.593 80.426 122.271 81.6714 122.682C84.566 123.281 88.1955 121.507 92.1367 117.592C92.3273 117.392 92.5543 117.233 92.8047 117.125C93.0551 117.017 93.3237 116.961 93.5951 116.961C93.8665 116.961 94.1352 117.017 94.3856 117.125C94.636 117.233 94.863 117.392 95.0536 117.592C95.2475 117.791 95.4014 118.028 95.5064 118.289C95.6114 118.55 95.6655 118.829 95.6655 119.112C95.6655 119.395 95.6114 119.674 95.5064 119.935C95.4014 120.196 95.2475 120.433 95.0536 120.632C90.6893 124.939 86.6145 127.081 82.807 127.081Z" fill="#2E3551"/>
<path d="M146.779 135.488C142.971 135.488 138.896 133.346 134.621 129.085C134.226 128.688 133.999 128.144 133.99 127.574C133.982 127.004 134.193 126.454 134.577 126.045C134.961 125.635 135.486 125.401 136.037 125.392C136.588 125.383 137.12 125.601 137.516 125.998C141.435 129.914 145.064 131.664 147.981 131.089C149.223 130.675 150.366 129.996 151.336 129.095C152.307 128.194 153.083 127.092 153.615 125.86C153.83 125.338 154.238 124.926 154.747 124.714C155.256 124.503 155.826 124.509 156.331 124.732C156.583 124.84 156.812 124.999 157.003 125.199C157.195 125.4 157.346 125.638 157.448 125.899C157.549 126.161 157.599 126.441 157.595 126.723C157.591 127.005 157.532 127.283 157.422 127.542C156.641 129.414 155.463 131.082 153.975 132.421C152.488 133.761 150.728 134.738 148.827 135.28C148.153 135.419 147.467 135.488 146.779 135.488Z" fill="#2E3551"/>
</svg>
