<svg width="183" height="220" viewBox="0 0 183 220" fill="none" xmlns="http://www.w3.org/2000/svg">
<path d="M150.987 133.597C150.987 133.597 167.612 128.306 167.612 119.386C167.612 110.465 166.269 105.524 158.66 105.175C158.66 105.175 176.863 85.4978 157.296 74.5662C157.296 74.5662 171.47 65.5149 163.434 48.5053C155.399 31.4958 146.084 21.4825 129.693 32.9169C113.302 44.3514 141.31 60.1584 141.31 60.1584L137.047 94.877L150.987 133.597Z" fill="#2E3551"/>
<path d="M155.228 80.8848C155.228 80.8848 156.273 126.251 160.706 145.906C165.14 165.561 175.626 191.687 140.351 204.674C105.075 217.66 59.3548 208.871 51.6816 186.921C44.0083 164.97 39.6601 124.392 39.6601 124.392L40.8963 76.5121L61.3158 56.6167L120.038 59.2621L155.228 80.8848Z" fill="#F4BAAE"/>
<g style="mix-blend-mode:multiply">
<path d="M129.352 149.054C126.347 156.05 117.885 145.687 117.885 145.687C117.885 145.687 114.432 148.66 111.704 148.005C108.975 147.349 102.112 75.5064 103.625 74.7412C108.4 72.38 132.443 142.102 129.352 149.054Z" fill="#F4BAAE"/>
</g>
<path d="M17.6846 132.766C17.6846 132.766 19.8161 153.951 26.786 158.455C33.1804 162.653 45.9692 163.549 49.8911 147.261C53.813 130.973 48.6548 119.714 48.6548 119.714C48.6548 119.714 67.5396 115.866 66.3673 102.573C65.195 89.2803 62.6799 94.0027 62.6799 94.0027C64.7718 92.3366 66.4223 90.1583 67.48 87.6677C68.5376 85.1771 68.9686 82.4539 68.7333 79.748C68.7333 79.748 79.1988 78.7204 85.0816 73.6044C90.9645 68.4885 97.3802 62.8478 97.5294 56.8354C97.5294 56.8354 112.961 71.8554 128.265 53.8402C143.569 35.8249 138.581 24.7403 134.489 19.3402C128.478 11.4913 119.569 15.8421 116.691 17.8097C116.691 17.8097 116.542 -1.86708 93.2451 0.144331C69.5858 2.33064 71.0352 19.362 71.0352 19.362C63.453 18.2414 55.7214 19.6924 49.0172 23.4941C42.2391 27.4732 39.7027 42.5369 39.7027 42.5369C39.7027 42.5369 13.9759 39.6729 3.46772 71.921C-7.04042 104.169 11.9723 131.913 17.6846 132.766Z" fill="#2E3551"/>
<path d="M45.7348 147.655L38.8075 114.204C38.8075 114.204 19.6243 112.805 22.2886 127.869C24.953 142.932 32.946 140.527 32.946 140.527C32.946 140.527 30.2177 159.417 45.7348 147.655Z" fill="#F4BAAE"/>
<path d="M116.563 56.5077C116.563 56.5077 115.945 71.4839 129.715 74.6759C143.484 77.8679 145.082 71.462 145.082 71.462C145.082 71.462 137.899 77.0153 146.724 83.4212C155.548 89.8271 165.459 79.0485 161.644 69.9535C157.829 60.8584 144.891 36.3499 126.112 40.1103C107.334 43.8708 116.563 56.5077 116.563 56.5077Z" fill="#2E3551"/>
<path d="M70.9926 67.9637C74.215 74.1478 79.3757 79.037 85.6411 81.8417C91.9065 84.6464 98.9108 85.2028 105.522 83.421C130.184 77.8459 130.866 51.0198 130.866 51.0198L111.256 36.6995L70.9926 67.9637Z" fill="#2E3551"/>
<g style="mix-blend-mode:multiply">
<path d="M100.748 130.011C100.618 129.307 100.287 128.658 99.7981 128.146C99.3088 127.634 98.6827 127.282 97.9987 127.135C97.3147 126.988 96.6034 127.051 95.9547 127.318C95.306 127.585 94.7488 128.043 94.3535 128.634V128.634C92.2221 132.547 85.8277 147.48 80.9892 149.513C76.1508 151.547 74.9359 156.225 79.753 157.406C84.5701 158.586 103.434 147.852 100.748 130.011Z" fill="#F4BAAE"/>
</g>
<g style="mix-blend-mode:multiply">
<path d="M128.329 126.797C128.239 126.06 128.371 125.311 128.709 124.653C129.046 123.996 129.572 123.46 130.217 123.119C130.861 122.778 131.591 122.648 132.31 122.747C133.028 122.845 133.7 123.168 134.233 123.671V123.671C137.217 126.885 147.299 139.5 152.564 140.112C157.829 140.724 160.152 144.922 155.825 147.371C151.498 149.819 130.397 144.813 128.329 126.797Z" fill="#F4BAAE"/>
</g>
<path d="M79.3267 117.921C79.3267 118.877 79.603 119.811 80.1206 120.605C80.6382 121.4 81.3739 122.019 82.2346 122.385C83.0953 122.751 84.0425 122.846 84.9562 122.66C85.87 122.474 86.7093 122.013 87.3681 121.338C88.0269 120.662 88.4755 119.801 88.6573 118.864C88.839 117.926 88.7458 116.955 88.3892 116.072C88.0327 115.189 87.4289 114.435 86.6543 113.904C85.8797 113.373 84.9689 113.089 84.0373 113.089C82.7879 113.089 81.5898 113.598 80.7064 114.505C79.823 115.411 79.3267 116.64 79.3267 117.921Z" fill="#2E3551"/>
<path d="M136.642 114.182C136.646 115.141 136.927 116.078 137.45 116.873C137.972 117.668 138.713 118.287 139.578 118.651C140.443 119.015 141.393 119.108 142.31 118.918C143.226 118.728 144.067 118.265 144.727 117.585C145.387 116.905 145.835 116.04 146.016 115.099C146.197 114.159 146.102 113.184 145.743 112.298C145.385 111.413 144.778 110.656 144 110.123C143.223 109.591 142.309 109.307 141.374 109.307C140.75 109.304 140.131 109.428 139.555 109.673C138.978 109.917 138.454 110.276 138.014 110.73C137.574 111.183 137.226 111.722 136.99 112.315C136.755 112.908 136.636 113.542 136.642 114.182Z" fill="#2E3551"/>
<g style="mix-blend-mode:multiply" opacity="0.5">
<path d="M143.441 165.408C143.441 165.408 153.033 180.056 143.441 185.631C139.946 187.664 134.34 186.178 128.521 186.877C118.29 188.08 107.206 190.288 105.714 189.348C101.899 187.162 99.3199 173.06 103.583 168.097C107.846 163.134 138.347 156.553 143.441 165.408Z" fill="#889E81"/>
</g>
<path d="M137.452 191.513C137.48 188.351 136.52 185.264 134.713 182.703C132.907 180.142 130.348 178.241 127.413 177.28C109.103 170.524 101.387 177.695 98.4459 188.014C94.0764 203.319 137.878 192.868 137.452 191.513Z" fill="#F4BAAE"/>
<g style="mix-blend-mode:multiply">
<path d="M137.452 191.513C137.48 188.351 136.52 185.264 134.713 182.703C132.907 180.142 130.348 178.241 127.413 177.28C109.103 170.524 101.387 177.695 98.4459 188.014C94.0764 203.319 137.878 192.868 137.452 191.513Z" fill="#F4BAAE"/>
</g>
<path d="M145.04 159.417C145.04 159.417 146.553 168.775 140.457 169.431C134.361 170.086 132.976 158.237 132.976 158.237C132.976 158.237 134.51 168.206 131.313 168.862C128.116 169.518 121.551 172.316 120.272 159.68H119.505C119.505 159.68 121.935 168.775 118.738 169.824C115.54 170.873 111.022 171.529 109.615 168.512C109.146 167.485 107.697 162.325 107.697 162.325C107.697 162.325 110.595 170.502 106.418 172.579C97.8918 176.798 99.3412 164.424 99.3412 164.424L103.178 153.033L127.221 152.443L140.479 154.039L145.04 159.417Z" fill="white"/>
<path d="M127.626 220C127.944 220.003 128.257 219.918 128.531 219.752C128.806 219.586 129.03 219.347 129.182 219.06C129.331 218.797 143.548 192.081 121.722 179.203C121.31 178.978 120.829 178.926 120.38 179.059C119.932 179.192 119.552 179.499 119.321 179.915C119.09 180.331 119.027 180.824 119.145 181.287C119.263 181.75 119.553 182.148 119.952 182.395C138.688 193.458 126.581 216.305 126.048 217.267C125.895 217.548 125.817 217.864 125.821 218.186C125.825 218.507 125.911 218.822 126.07 219.099C126.23 219.376 126.458 219.604 126.731 219.763C127.004 219.921 127.312 220.002 127.626 220V220Z" fill="#2E3551"/>
<path d="M151.349 179.662C162.59 179.678 173.476 175.62 182.085 168.206C182.255 168.04 182.393 167.84 182.488 167.619C182.584 167.398 182.636 167.16 182.642 166.919C182.648 166.677 182.607 166.437 182.523 166.211C182.438 165.986 182.311 165.78 182.149 165.604C181.986 165.429 181.792 165.289 181.577 165.191C181.361 165.093 181.129 165.039 180.894 165.033C180.658 165.027 180.424 165.068 180.204 165.155C179.984 165.242 179.783 165.372 179.612 165.539C178.866 166.26 161.26 183.029 134.319 172.71C134.099 172.62 133.865 172.576 133.628 172.581C133.392 172.586 133.159 172.64 132.944 172.741C132.729 172.841 132.536 172.985 132.376 173.163C132.217 173.342 132.095 173.552 132.017 173.781C131.851 174.236 131.867 174.741 132.063 175.183C132.259 175.626 132.618 175.971 133.061 176.142C138.902 178.433 145.096 179.625 151.349 179.662V179.662Z" fill="#2E3551"/>
<path d="M101.387 218.623C101.658 218.62 101.924 218.555 102.167 218.434C102.41 218.313 102.624 218.139 102.794 217.923C103.562 216.939 121.53 193.48 110.34 183.642C109.981 183.436 109.564 183.363 109.159 183.435C108.754 183.507 108.385 183.72 108.115 184.038C107.845 184.356 107.69 184.76 107.676 185.181C107.662 185.603 107.789 186.016 108.038 186.353C115.114 192.606 104.627 209.549 99.9806 215.562C99.6842 215.942 99.5468 216.427 99.5988 216.911C99.6507 217.394 99.8877 217.837 100.258 218.142C100.57 218.428 100.969 218.598 101.387 218.623V218.623Z" fill="#2E3551"/>
<path d="M161.942 192.387C165.775 192.397 169.6 192.038 173.367 191.315C173.598 191.265 173.817 191.169 174.012 191.032C174.206 190.895 174.373 190.72 174.501 190.517C174.63 190.314 174.718 190.087 174.761 189.849C174.804 189.61 174.801 189.366 174.752 189.129C174.703 188.892 174.609 188.668 174.476 188.468C174.342 188.268 174.172 188.098 173.974 187.966C173.776 187.834 173.554 187.743 173.322 187.699C173.09 187.655 172.852 187.658 172.621 187.708C172.387 187.708 149.601 192.518 137.921 180.406C137.754 180.235 137.556 180.099 137.339 180.007C137.121 179.915 136.888 179.867 136.652 179.867C136.417 179.867 136.184 179.915 135.966 180.007C135.749 180.099 135.551 180.235 135.384 180.406C135.218 180.577 135.086 180.779 134.995 181.003C134.905 181.226 134.859 181.465 134.859 181.707C134.859 181.948 134.905 182.187 134.995 182.411C135.086 182.634 135.218 182.837 135.384 183.007C142.78 190.747 153.715 192.387 161.942 192.387Z" fill="#2E3551"/>
</svg>
