<svg width="181" height="222" viewBox="0 0 181 222" fill="none" xmlns="http://www.w3.org/2000/svg">
<path d="M162.714 140.161C162.714 140.161 180.633 134.61 180.633 125.252C180.633 115.894 179.186 110.71 170.984 110.343C170.984 110.343 190.604 89.699 169.514 78.2303C169.514 78.2303 184.814 68.7342 176.13 50.8889C167.446 33.0436 157.43 22.653 139.763 34.6492C122.097 46.6455 152.307 63.2292 152.307 63.2292L147.712 99.6538L162.714 140.161Z" fill="#2E3551"/>
<path d="M167.286 84.8593C167.286 84.8593 168.411 132.454 173.19 153.075C177.968 173.696 189.386 201.106 151.273 214.731C113.16 228.356 63.974 219.135 55.6806 196.106C47.3872 173.077 42.7465 130.505 42.7465 130.505L43.9871 80.2718L65.9956 59.3988L129.264 62.2889L167.286 84.8593Z" fill="#F4BAAE"/>
<g style="mix-blend-mode:multiply">
<path d="M139.488 156.378C136.249 163.718 127.128 152.846 127.128 152.846C127.128 152.846 123.36 155.965 120.374 155.277C117.387 154.589 110.036 79.2166 111.69 78.4138C116.813 75.9366 142.773 149.084 139.488 156.378Z" fill="#F4BAAE"/>
</g>
<path d="M19.0609 139.29C19.0609 139.29 21.3583 161.516 28.8476 166.241C35.7396 170.645 49.5237 171.586 53.7508 154.497C57.9779 137.409 52.4184 125.596 52.4184 125.596C52.4184 125.596 72.8877 121.559 71.5552 107.613C70.2228 93.6672 67.5349 98.6217 67.5349 98.6217C69.7906 96.8734 71.5717 94.5887 72.7154 91.9763C73.8591 89.3639 74.3291 86.507 74.0823 83.6665C74.0823 83.6665 85.3393 82.5655 91.68 77.2211C98.0206 71.8767 104.936 65.9359 105.119 59.6969C105.119 59.6969 121.729 75.4549 138.247 56.5545C154.765 37.6541 149.366 25.956 144.932 20.2905C138.454 12.0559 128.851 16.6205 125.75 18.6848C125.75 18.6848 125.612 -1.95882 100.479 0.151423C75.3459 2.26166 76.4945 20.3134 76.4945 20.3134C68.3222 19.1377 59.9889 20.66 52.763 24.6486C45.4804 28.8232 42.7465 44.627 42.7465 44.627C42.7465 44.627 14.9946 41.6223 3.69169 75.4549C-7.61124 109.288 12.8811 138.395 19.0609 139.29Z" fill="#2E3551"/>
<path d="M49.2711 154.91L41.8047 119.816C41.8047 119.816 21.1286 118.348 24.0003 134.152C26.872 149.956 35.487 147.432 35.487 147.432C35.487 147.432 32.5004 167.25 49.2711 154.91Z" fill="#F4BAAE"/>
<path d="M125.612 59.2838C125.612 59.2838 124.945 74.9959 139.763 78.3448C154.581 81.6936 156.327 74.973 156.327 74.973C156.327 74.973 148.585 80.7991 158.096 87.5197C167.607 94.2404 178.313 82.9323 174.178 73.3903C170.042 63.8483 156.166 38.1355 135.881 42.0807C115.595 46.026 125.612 59.2838 125.612 59.2838Z" fill="#2E3551"/>
<path d="M76.4945 71.3033C79.9677 77.7912 85.53 82.9207 92.283 85.8632C99.036 88.8057 106.585 89.3894 113.711 87.52C140.292 81.671 141.027 53.5268 141.027 53.5268L119.799 38.5028L76.4945 71.3033Z" fill="#2E3551"/>
<g style="mix-blend-mode:multiply">
<path d="M108.565 136.4C108.425 135.661 108.069 134.98 107.542 134.442C107.014 133.905 106.339 133.536 105.602 133.382C104.865 133.227 104.098 133.294 103.399 133.574C102.7 133.854 102.099 134.334 101.673 134.955C99.3761 139.06 92.484 154.727 87.2921 156.86C82.1001 158.993 80.7446 163.902 85.9596 165.14C91.1746 166.379 111.46 155.116 108.565 136.4Z" fill="#F4BAAE"/>
</g>
<g style="mix-blend-mode:multiply">
<path d="M138.293 133.028C138.195 132.254 138.338 131.469 138.702 130.778C139.066 130.088 139.633 129.526 140.327 129.168C141.022 128.81 141.809 128.674 142.583 128.778C143.358 128.881 144.081 129.22 144.657 129.748V129.748C147.873 133.119 158.739 146.354 164.414 146.997C170.088 147.639 172.638 152.226 168.044 154.795C163.449 157.364 140.476 151.928 138.293 133.028Z" fill="#F4BAAE"/>
</g>
<g style="mix-blend-mode:multiply" opacity="0.5">
<path d="M126.324 179.155C125.979 171.838 130.919 172.962 138.27 172.595C145.622 172.228 152.881 165.324 152.881 177.893C152.948 181.372 151.67 184.743 149.313 187.306C146.956 189.869 143.7 191.427 140.223 191.656C136.723 191.825 133.298 190.606 130.694 188.264C128.091 185.922 126.52 182.648 126.324 179.155V179.155Z" fill="#889E81"/>
</g>
<path d="M133.239 190.165C133.239 190.165 148.195 195.28 153.915 201.244C159.635 207.207 161.152 188.674 149.435 184.408C137.719 180.141 129.219 186.839 129.609 187.275C130.601 188.483 131.838 189.468 133.239 190.165V190.165Z" fill="#F4BAAE"/>
<path d="M81.5257 140.391C81.0593 140.392 80.6091 140.22 80.2622 139.909C79.877 139.576 79.6391 139.105 79.6003 138.598C79.5616 138.091 79.7252 137.589 80.0554 137.202C83.4453 133.269 87.6665 130.136 92.4151 128.027C87.8484 127.997 83.3077 128.717 78.9756 130.161C78.4937 130.334 77.9633 130.313 77.4961 130.104C77.0289 129.894 76.6616 129.511 76.4715 129.037C76.3794 128.799 76.3355 128.545 76.3424 128.29C76.3492 128.035 76.4066 127.784 76.5113 127.552C76.6161 127.319 76.766 127.11 76.9524 126.935C77.1388 126.761 77.358 126.625 77.5972 126.536C85.3933 123.829 93.8162 123.478 101.811 125.527C102.226 125.667 102.581 125.944 102.818 126.312C103.054 126.68 103.159 127.117 103.113 127.552C103.068 127.987 102.875 128.394 102.568 128.705C102.26 129.017 101.856 129.215 101.421 129.266C94.2757 130.549 87.7881 134.241 83.0419 139.725C82.8556 139.943 82.6224 140.116 82.3599 140.231C82.0974 140.346 81.8123 140.401 81.5257 140.391V140.391Z" fill="#2E3551"/>
<path d="M162.277 130.298C161.958 130.286 161.645 130.208 161.358 130.069C154.772 126.567 147.174 125.449 139.855 126.903C139.422 127.023 138.961 126.988 138.552 126.805C138.142 126.621 137.809 126.301 137.61 125.899C137.412 125.497 137.36 125.038 137.463 124.602C137.567 124.165 137.82 123.779 138.178 123.509C145.034 118.612 153.187 115.851 161.611 115.572V115.572C162.121 115.578 162.609 115.783 162.969 116.143C163.33 116.503 163.535 116.99 163.541 117.499C163.535 118.01 163.331 118.5 162.971 118.863C162.611 119.227 162.123 119.437 161.611 119.449C156.879 119.647 152.217 120.656 147.827 122.431C153.184 122.694 158.416 124.135 163.15 126.651C163.54 126.847 163.852 127.17 164.034 127.566C164.217 127.961 164.26 128.407 164.156 128.831C164.052 129.254 163.807 129.63 163.462 129.896C163.117 130.163 162.691 130.304 162.254 130.298H162.277Z" fill="#2E3551"/>
<g style="mix-blend-mode:multiply">
<g style="mix-blend-mode:multiply">
<path d="M133.239 190.165C133.239 190.165 148.195 195.28 153.915 201.244C159.635 207.207 161.152 188.674 149.435 184.408C137.719 180.141 129.219 186.839 129.609 187.275C130.601 188.483 131.838 189.468 133.239 190.165V190.165Z" fill="#F4BAAE"/>
</g>
</g>
</svg>
