<svg width="152" height="148" viewBox="0 0 152 148" fill="none" xmlns="http://www.w3.org/2000/svg">
<path d="M143.161 91.7453C141.81 92.1313 140.59 92.9611 139.654 94.1307L117.664 83.7023C118.873 79.7739 119.44 75.6285 119.337 71.4696L127.701 69.1148C128.641 70.6358 130.025 71.7307 131.609 72.2053C133.192 72.68 134.873 72.5038 136.353 71.708C137.833 70.9122 139.017 69.5481 139.694 67.8576C140.372 66.1671 140.5 64.2593 140.055 62.4723C139.61 60.6853 138.621 59.1346 137.264 58.095C135.906 57.0553 134.268 56.5939 132.64 56.7925C131.011 56.9911 129.497 57.8369 128.366 59.18C127.234 60.523 126.559 62.2766 126.46 64.13L118.77 66.3013C117.714 60.8013 115.47 55.6841 112.241 51.408L123.681 33.0589C124.572 33.2523 125.488 33.2523 126.379 33.0589C127.854 32.6809 129.18 31.7643 130.151 30.4499C131.122 29.1356 131.686 27.4961 131.756 25.7834C131.825 24.0707 131.397 22.3794 130.537 20.9692C129.676 19.5591 128.431 18.5082 126.993 17.9778C125.554 17.4474 124.002 17.4669 122.574 18.0333C121.146 18.5997 119.922 19.6817 119.089 21.1131C118.257 22.5446 117.862 24.2462 117.965 25.9568C118.068 27.6673 118.664 29.2922 119.661 30.5818L109.03 47.4935C104.792 43.1275 99.9172 39.6298 94.6223 37.1569C93.0574 36.4229 91.4925 35.7501 89.9276 35.1996L91.6544 30.5818C92.0818 30.5533 92.5062 30.4817 92.9225 30.3677C94.4635 29.929 95.8257 28.9059 96.7829 27.4684C97.74 26.031 98.2345 24.2656 98.1842 22.4656C98.1339 20.6656 97.5419 18.9392 96.5064 17.5733C95.4709 16.2073 94.0543 15.284 92.4918 14.9567C90.9294 14.6294 89.3152 14.9177 87.9174 15.7739C86.5195 16.63 85.4221 18.0024 84.8075 19.6631C84.1928 21.3239 84.0979 23.1729 84.5385 24.9032C84.9791 26.6335 85.9287 28.1409 87.2295 29.175L85.6106 33.64C79.5978 31.9234 73.3033 31.9234 67.2905 33.64L59.9247 20.0617C60.7232 19.0474 61.2769 17.8166 61.5323 16.4885C61.7876 15.1603 61.7359 13.78 61.3821 12.4812C61.0284 11.1823 60.3846 10.0091 59.5132 9.07528C58.6417 8.14142 57.5722 7.47857 56.4083 7.15099C55.2444 6.82342 54.0256 6.84222 52.87 7.20558C51.7144 7.56895 50.6612 8.26454 49.8125 9.22494C48.9638 10.1853 48.3484 11.378 48.026 12.6872C47.7036 13.9965 47.685 15.3779 47.9722 16.6977C48.3965 18.6367 49.454 20.3211 50.9313 21.4109C52.4085 22.5006 54.1955 22.9147 55.9315 22.5694L62.7847 35.6278C58.6507 37.7599 55.0454 41.0165 52.2891 45.1081L49.591 42.05C49.8886 40.7877 49.8886 39.4589 49.591 38.1967C49.2616 36.6803 48.5426 35.3089 47.5251 34.256C46.5075 33.2032 45.2372 32.5162 43.875 32.2822C42.5128 32.0482 41.12 32.2776 39.8729 32.9414C38.6258 33.6052 37.5806 34.6735 36.8695 36.0111C36.1584 37.3486 35.8135 38.8953 35.8785 40.4552C35.9434 42.015 36.4153 43.518 37.2343 44.7737C38.0534 46.0294 39.1828 46.9814 40.4795 47.5091C41.7762 48.0369 43.1819 48.1166 44.5186 47.7382C45.418 47.4853 46.2626 47.0274 47.0008 46.3926L49.6989 49.4507C49.0644 50.7525 48.4881 52.0895 47.9722 53.4569C46.9214 56.2685 46.1434 59.2012 45.6518 62.2033C38.8796 60.1544 29.4632 57.2491 21.3689 54.6496C21.3997 53.8789 21.3362 53.107 21.18 52.356C20.8469 50.8479 20.1281 49.485 19.1139 48.4384C18.0997 47.3917 16.8354 46.708 15.4796 46.473C14.1237 46.2381 12.7369 46.4623 11.4931 47.1176C10.2493 47.7729 9.20408 48.8301 8.48856 50.1565C7.77305 51.4828 7.41917 53.0191 7.47135 54.5726C7.52353 56.1261 7.97944 57.6276 8.78185 58.8884C9.58426 60.1492 10.6974 61.1133 11.9815 61.6595C13.2657 62.2057 14.6635 62.3098 15.9997 61.9587C17.3735 61.5584 18.6124 60.7073 19.5612 59.5121C26.2525 61.6223 37.2337 65.0474 45.1391 67.2799C45.017 69.6968 45.0712 72.121 45.301 74.5278L33.4564 75.0782C32.9634 73.3071 31.933 71.7911 30.5479 70.7989C29.1628 69.8068 27.5125 69.4026 25.8896 69.6581C24.2667 69.9136 22.776 70.8123 21.6819 72.1947C20.5878 73.5772 19.9609 75.3541 19.9125 77.2105C19.864 79.0668 20.3971 80.8827 21.4172 82.336C22.4373 83.7894 23.8785 84.7863 25.4852 85.1502C27.092 85.514 28.7605 85.2211 30.1949 84.3235C31.6293 83.4259 32.737 81.9816 33.3215 80.2466L46.1105 79.6655C46.9603 83.9171 48.3894 87.9926 50.3465 91.7453L28.357 111.96C27.1481 110.688 25.5812 109.941 23.9335 109.853C22.2858 109.764 20.6635 110.339 19.3538 111.476C18.0441 112.612 17.1314 114.237 16.7772 116.063C16.4229 117.89 16.6501 119.799 17.4183 121.453C18.1866 123.108 19.4465 124.401 20.9751 125.104C22.5036 125.807 24.2023 125.874 25.7704 125.294C27.3386 124.714 28.6751 123.524 29.5435 121.934C30.4119 120.345 30.7562 118.458 30.5155 116.608L52.9367 95.9656C54.1557 97.7381 55.5002 99.395 56.9568 100.92L51.8035 107.036C50.368 106.25 48.7335 106.066 47.1897 106.516C45.8519 106.89 44.642 107.705 43.7131 108.858C42.7842 110.011 42.1781 111.451 41.9716 112.995C41.7652 114.539 41.9676 116.118 42.5532 117.531C43.1388 118.945 44.0814 120.13 45.2614 120.936C46.4415 121.742 47.8061 122.132 49.1823 122.059C50.5585 121.985 51.8845 121.45 52.9924 120.522C54.1002 119.594 54.9401 118.314 55.4057 116.844C55.8713 115.374 55.9416 113.781 55.6078 112.266C55.4983 111.703 55.326 111.158 55.0951 110.645L60.4913 104.345C62.771 106.202 65.2228 107.771 67.8032 109.024C69.1829 109.684 70.5976 110.246 72.0392 110.706L67.8302 127.404C67.1858 127.37 66.5406 127.442 65.9145 127.618C64.3991 128.041 63.0529 129.028 62.0923 130.422C61.1316 131.817 60.6122 133.536 60.6173 135.305C60.6225 137.074 61.152 138.79 62.1208 140.177C63.0896 141.564 64.4415 142.541 65.9594 142.953C67.4773 143.364 69.0732 143.186 70.4907 142.445C71.9083 141.705 73.0653 140.447 73.7759 138.872C74.4866 137.297 74.7097 135.497 74.4094 133.761C74.1091 132.025 73.3029 130.454 72.1201 129.3L76.4911 111.838C80.7065 112.593 85.0053 112.521 89.1991 111.623L89.7657 115.171C88.3253 116.075 87.2142 117.528 86.6298 119.273C86.0453 121.017 86.0252 122.94 86.5732 124.7C87.1211 126.459 88.2016 127.942 89.6227 128.884C91.0438 129.826 92.7135 130.167 94.3354 129.846C95.9572 129.525 97.4261 128.563 98.4811 127.13C99.5362 125.698 100.109 123.888 100.098 122.022C100.087 120.155 99.4934 118.354 98.4217 116.938C97.35 115.521 95.87 114.581 94.2445 114.284L93.7049 110.278C97.3585 108.944 100.815 106.995 103.958 104.498L111.377 116.211C110.896 117.121 110.579 118.13 110.445 119.18C110.311 120.23 110.362 121.3 110.595 122.327C110.924 123.85 111.645 125.227 112.666 126.286C113.686 127.344 114.961 128.035 116.328 128.271C117.695 128.508 119.094 128.279 120.346 127.614C121.599 126.949 122.649 125.877 123.364 124.535C124.079 123.193 124.427 121.641 124.363 120.075C124.299 118.509 123.826 117 123.005 115.738C122.184 114.477 121.051 113.52 119.749 112.989C118.448 112.458 117.037 112.376 115.694 112.755C115.429 112.828 115.168 112.92 114.912 113.03L107.492 101.226C111.001 97.6141 113.867 93.2751 115.937 88.4425L137.9 98.8709C137.857 99.6722 137.92 100.476 138.089 101.256C138.413 102.775 139.129 104.151 140.145 105.209C141.16 106.266 142.43 106.958 143.793 107.196C145.156 107.435 146.551 107.209 147.8 106.547C149.05 105.885 150.098 104.818 150.811 103.48C151.525 102.142 151.872 100.595 151.808 99.0331C151.744 97.4716 151.272 95.9668 150.453 94.7096C149.633 93.4524 148.502 92.4994 147.204 91.9717C145.906 91.4439 144.499 91.3651 143.161 91.7453Z" fill="#62A7A2"/>
<path d="M104.281 80.094C105.339 80.094 106.197 78.2592 106.197 75.996C106.197 73.7327 105.339 71.8979 104.281 71.8979C103.224 71.8979 102.366 73.7327 102.366 75.996C102.366 78.2592 103.224 80.094 104.281 80.094Z" fill="#2E3551"/>
<path d="M60.1946 79.2065C61.2526 79.2065 62.1103 77.3719 62.1103 75.1088C62.1103 72.8456 61.2526 71.011 60.1946 71.011C59.1366 71.011 58.2789 72.8456 58.2789 75.1088C58.2789 77.3719 59.1366 79.2065 60.1946 79.2065Z" fill="#2E3551"/>
<g style="mix-blend-mode:multiply">
<path d="M68.4238 30.3068C69.1168 30.5922 69.7509 31.0355 70.2868 31.6094C70.8228 32.1833 71.2493 32.8756 71.5401 33.6436C71.8308 34.4116 71.9797 35.239 71.9773 36.0748C71.975 36.9105 71.8216 37.7368 71.5266 38.5027C69.3681 44.6191 44.3837 74.314 65.0512 87.2501C85.7186 100.186 116.828 67.6778 114.993 95.4766L122.548 107.037L143.809 124.866L107.573 141.93L64.5925 147.527L18.482 139.484L3.85828 107.342L0 55.6285L8.47203 34.2213L31.4329 8.99127L57.3346 0.244873L68.2889 7.40102L68.4238 30.3068Z" fill="#62A7A2"/>
</g>
<path d="M93.4082 94.8035C93.4082 99.8496 88.2009 95.5681 81.7794 95.5681C75.3579 95.5681 70.1236 99.8496 70.1236 94.8035C70.1236 89.7575 75.3309 85.6289 81.7794 85.6289C88.2279 85.6289 93.4082 89.7881 93.4082 94.8035Z" fill="white"/>
<path d="M80.7811 141.104C68.4701 141.104 56.4357 136.967 46.1995 129.214C35.9634 121.462 27.9852 110.443 23.274 97.5514C18.5629 84.6597 17.3302 70.474 19.7319 56.7882C22.1337 43.1024 28.062 30.5312 36.7671 20.6643C45.4722 10.7974 56.5633 4.07795 68.6376 1.35567C80.712 -1.3666 93.2274 0.0305694 104.601 5.3705C115.975 10.7104 125.696 19.7533 132.536 31.3555C139.376 42.9578 143.026 56.5983 143.026 70.5523C143.005 89.2564 136.44 107.188 124.771 120.413C113.103 133.639 97.2829 141.08 80.7811 141.104ZM80.7811 7.70665C69.8149 7.70665 59.095 11.3925 49.977 18.298C40.8589 25.2036 33.7523 35.0188 29.5557 46.5023C25.3591 57.9858 24.2611 70.622 26.4005 82.8128C28.5399 95.0037 33.8206 106.202 41.5749 114.991C49.3291 123.78 59.2086 129.765 69.9641 132.19C80.7196 134.615 91.8679 133.371 101.999 128.614C112.131 123.857 120.79 115.802 126.883 105.467C132.975 95.1325 136.227 82.9819 136.227 70.5523C136.213 53.8895 130.367 37.9139 119.971 26.1316C109.576 14.3493 95.4819 7.72284 80.7811 7.70665Z" fill="#C0414C"/>
<path d="M34.7511 29.0404L30.6573 35.1936L124.56 115.456L128.654 109.303L34.7511 29.0404Z" fill="#C0414C"/>
</svg>
