<svg width="175" height="104" viewBox="0 0 175 104" fill="none" xmlns="http://www.w3.org/2000/svg">
<path d="M163.994 35.9803C163.435 31.2454 121.959 33.9547 121.959 33.9547C121.959 33.9547 151.853 28.2323 152.233 24.181C152.613 20.1297 111.495 23.8772 111.495 23.8772C111.495 23.8772 125.201 15.1923 123.189 11.3942C121.177 7.59613 91.6629 25.3204 91.6629 25.3204L91.4393 25.5736C77.3084 22.0541 42.3166 12.6602 7.57076 0C7.57076 0 -3.49694 17.2938 1.13137 37.5502C1.13137 37.5502 59.2647 56.3633 87.996 55.8568C88.5527 56.2006 89.1277 56.5051 89.7177 56.7684C106.353 64.3645 141.836 62.8453 142.328 60.0854C142.82 57.3254 127.929 54.3376 127.929 54.3376C127.929 54.3376 158.203 50.8687 158.293 47.653C158.382 44.4373 127.571 43.6524 127.571 43.6524C127.571 43.6524 164.531 40.6899 163.994 35.9803Z" fill="#F4BAAE"/>
<path d="M84.9101 39.2016C84.9703 37.8322 84.7069 36.4692 84.1465 35.2501C83.5861 34.0309 82.7485 32.9986 81.7181 32.2572C82.3583 31.4427 82.7801 30.4424 82.9348 29.3715C83.0896 28.3005 82.9711 27.2024 82.593 26.2035C82.2149 25.2046 81.5926 24.3455 80.7976 23.725C80.0025 23.1045 79.0672 22.7478 78.0991 22.696C77.6071 22.6786 77.1153 22.7378 76.638 22.8721C75.6153 20.9003 74.0328 19.368 72.1422 18.5193C72.7778 17.6659 73.1794 16.6251 73.2987 15.5222C73.418 14.4192 73.2498 13.3012 72.8145 12.3028C72.3792 11.3043 71.6953 10.468 70.8452 9.89462C69.995 9.32121 69.0149 9.03513 68.0229 9.07085C67.0309 9.10657 66.0692 9.46255 65.2537 10.0959C64.4383 10.7293 63.8038 11.6131 63.4267 12.6407C63.0496 13.6684 62.946 14.7962 63.1284 15.8883C63.3107 16.9804 63.7713 17.9902 64.4545 18.7961C63.3215 19.3977 62.3115 20.2542 61.4873 21.3122C61.0406 20.6308 60.4638 20.0695 59.7989 19.6691C59.1339 19.2687 58.3976 19.0392 57.6435 18.9973C56.9513 18.9261 56.2533 19.0118 55.5913 19.2495C54.9293 19.4871 54.317 19.8717 53.7909 20.3803C53.2647 20.8888 52.8357 21.511 52.5293 22.2094C52.2229 22.9079 52.0455 23.6684 52.0077 24.4453C51.9698 25.2223 52.0724 25.9998 52.3092 26.7314C52.546 27.463 52.9122 28.1336 53.3859 28.7032C53.8595 29.2727 54.431 29.7295 55.0659 30.0462C55.7009 30.3628 56.3865 30.5329 57.0815 30.5463C57.9909 30.6151 58.8999 30.4064 59.7115 29.9424C60.1199 32.1543 61.1702 34.1531 62.6988 35.6275C64.2275 37.1019 66.1487 37.9693 68.1635 38.0946C69.1585 38.1536 70.1551 38.0174 71.1082 37.692C71.1082 37.8933 71.1082 38.0694 71.1082 38.2707C71.0098 40.3327 71.6473 42.354 72.8803 43.8899C74.1134 45.4258 75.841 46.3505 77.6832 46.4606C79.5254 46.5707 81.3312 45.8572 82.7033 44.477C84.0755 43.0968 84.9016 41.163 85 39.101L84.9101 39.2016Z" fill="white"/>
<path d="M135.033 29.4563C136.713 29.5548 138.382 29.1196 139.829 28.2057C141.277 27.2918 142.438 25.9402 143.165 24.3222C143.892 22.7041 144.153 20.8923 143.914 19.1161C143.675 17.3399 142.948 15.6791 141.824 14.344C140.701 13.0089 139.231 12.0596 137.601 11.6161C135.971 11.1726 134.254 11.2549 132.669 11.8526C131.083 12.4503 129.698 13.5366 128.692 14.9739C127.685 16.4112 127.1 18.1349 127.012 19.9268C126.894 22.3244 127.672 24.6742 129.176 26.4607C130.679 28.2471 132.786 29.3244 135.033 29.4563Z" fill="white"/>
<path d="M144.252 59.069C143.558 59.0294 142.864 59.1558 142.214 59.4402C141.564 59.7246 140.973 60.1609 140.476 60.7216C141.189 59.8739 141.705 58.8335 141.978 57.6961C142.709 55.2459 142.899 52.6247 142.53 50.069C143.573 49.7665 144.505 49.0875 145.188 48.1313C145.872 47.1751 146.271 45.992 146.328 44.7553C146.372 43.292 145.938 41.8629 145.111 40.7505C144.284 39.6382 143.124 38.9235 141.862 38.7478C140.599 38.5721 139.325 38.9481 138.292 39.8016C137.259 40.655 136.541 41.9238 136.281 43.357C135.006 43.1508 133.713 43.1508 132.438 43.357C132.438 43.357 137.186 32.9841 127.514 30.9501C126.059 30.6322 124.575 30.5297 123.097 30.645C123.113 28.9164 122.648 27.2275 121.768 25.8261C120.889 24.4247 119.643 23.3846 118.213 22.8584C116.783 22.3323 115.244 22.3478 113.821 22.9027C112.399 23.4576 111.169 24.5227 110.312 25.9416C108.281 24.5184 105.93 23.8195 103.554 23.9331C101.51 23.7883 99.4818 24.4324 97.7909 25.7636C97.3386 24.2204 96.482 22.8764 95.3391 21.9165C94.1962 20.9566 92.823 20.4279 91.4085 20.4032C89.9939 20.3786 88.6075 20.8591 87.4398 21.7787C86.2721 22.6983 85.3806 24.0118 84.8878 25.5386C84.3951 27.0653 84.3253 28.7304 84.688 30.3047C85.0508 31.879 85.8283 33.2853 86.9136 34.3301C87.9989 35.3749 89.3387 36.0069 90.7487 36.1392C92.1588 36.2714 93.5698 35.8975 94.7877 35.0688C94.8619 36.0024 94.9947 36.9286 95.1852 37.84C95.1852 37.84 88.3175 36.1875 87.103 43.8909C86.9212 44.9917 86.7959 46.1038 86.7276 47.2215C86.288 47.0337 85.8266 46.9223 85.3585 46.891C84.4873 46.8357 83.6185 47.0397 82.8358 47.4833C82.053 47.927 81.3827 48.5953 80.8895 49.4239C80.3963 50.2524 80.0967 51.2133 80.0198 52.2138C79.9428 53.2144 80.0911 54.2209 80.4502 55.1364C80.8092 56.0518 81.3671 56.8453 82.07 57.4404C82.7728 58.0355 83.597 58.4121 84.463 58.534C85.329 58.6558 86.2077 58.5187 87.0143 58.1359C87.821 57.7532 88.5284 57.1377 89.0683 56.3487C90.0249 57.2806 91.1162 58.0121 92.2924 58.5097C92.2924 58.5097 84.4752 63.0098 89.9296 68.3488C95.3839 73.6878 98.9613 66.5691 98.9613 66.5691C98.9613 66.5691 97.548 74.3743 103.974 74.7556C109.539 75.1116 112.41 71.4759 112.564 68.1708C112.917 71.1708 114.441 77.5777 121.132 77.0438C123.541 76.9083 125.893 76.1617 128.022 74.8573C129.142 75.7208 130.419 76.2776 131.755 76.4852C133.091 76.6927 134.45 76.5454 135.729 76.0546C137.008 75.5638 138.173 74.7425 139.133 73.6536C140.094 72.5647 140.825 71.2371 141.271 69.7725C141.925 70.2407 142.662 70.5309 143.428 70.6212C144.194 70.7114 144.967 70.5993 145.689 70.2932C146.412 69.9872 147.064 69.4954 147.596 68.8553C148.128 68.2152 148.527 67.4437 148.761 66.5995C148.995 65.7554 149.058 64.8608 148.946 63.9841C148.835 63.1074 148.551 62.2716 148.116 61.5404C147.681 60.8092 147.107 60.202 146.438 59.7649C145.768 59.3278 145.021 59.0724 144.252 59.0182V59.069Z" fill="white"/>
<path d="M104.366 34.9671C104.366 34.9671 99.0427 66.4669 104.366 69.2395C109.689 72.0121 120.4 73.9632 122.564 71.2163C124.728 68.4694 128.602 33.324 126.286 32.9903C123.971 32.6566 105.578 26.7006 104.366 34.9671Z" fill="#C0414C"/>
<path d="M174.938 47.7804C173.193 43.3768 134.152 59.7442 134.152 59.7442C134.152 59.7442 161.313 44.344 160.641 40.3222C159.97 36.3003 121.579 53.5078 121.579 53.5078C121.579 53.5078 132.317 40.5258 129.566 37.624C126.814 34.7221 103.009 61.526 103.009 61.526L102.875 61.8315C88.3772 63.0787 52.4688 65.6751 15.9339 64.9624C15.9339 64.9624 9.7814 85.3262 19.4241 103.145C19.4241 103.145 79.8308 102.025 107.305 91.9699C107.886 92.0887 108.513 92.1905 109.184 92.2754C127.082 93.9808 160.642 80.8716 160.395 78.0461C160.149 75.2207 145.137 77.2825 145.137 77.2825C145.137 77.2825 173.237 63.9188 172.499 60.8133C171.761 57.7078 142.05 67.1261 142.05 67.1261C142.05 67.1261 176.66 52.1077 174.938 47.7804Z" fill="#F4BAAE"/>
<path d="M140 71.2291C140.018 68.7467 139.219 66.3419 137.753 64.4636C138.411 63.8372 138.915 63.0377 139.22 62.1387C139.525 61.2397 139.621 60.2701 139.499 59.3193C139.376 58.3686 139.039 57.4673 138.52 56.6985C138 55.9297 137.313 55.3181 136.524 54.9202C135.734 54.5223 134.867 54.3508 134.002 54.4216C133.137 54.4923 132.302 54.8031 131.574 55.3251C130.846 55.8472 130.248 56.5638 129.836 57.4088C129.424 58.2538 129.211 59.2002 129.216 60.1605C129.181 60.5243 129.181 60.8911 129.216 61.2549C127.639 61.5667 126.166 62.3334 124.943 63.4777C123.72 64.6219 122.791 66.1031 122.251 67.7717C120.669 67.0853 118.912 67.0853 117.331 67.7717C118.048 67.1963 118.619 66.4265 118.99 65.5363C119.361 64.6461 119.519 63.6653 119.449 62.688C119.379 61.7107 119.083 60.7697 118.59 59.9553C118.097 59.1409 117.424 58.4805 116.634 58.0372C115.844 57.594 114.964 57.383 114.08 57.4243C113.195 57.4656 112.335 57.758 111.581 58.2733C110.828 58.7886 110.207 59.5096 109.778 60.3671C109.349 61.2246 109.126 62.1898 109.13 63.1702C109.132 63.7448 109.215 64.3156 109.377 64.8615H109.13C107.563 64.8683 106.044 65.4618 104.82 66.5457C103.597 67.6295 102.74 69.1399 102.39 70.8311C101.415 70.4069 100.382 70.1713 99.3347 70.1347C99.3568 69.8367 99.3568 69.5372 99.3347 69.2392C99.3292 68.2377 99.0863 67.2554 98.6303 66.3904C98.1743 65.5254 97.5212 64.8081 96.7363 64.3102C95.9514 63.8123 95.0622 63.5512 94.1575 63.5532C93.2529 63.5551 92.3646 63.8199 91.5814 64.3211C90.7982 64.8223 90.1476 65.5423 89.6946 66.4092C89.2416 67.2761 89.0021 68.2595 89 69.261C88.998 70.2625 89.2334 71.2471 89.6829 72.1163C90.1323 72.9854 90.78 73.7087 91.5611 74.2139C90.0387 76.2985 89.3266 78.9672 89.5815 81.6331C89.8364 84.2989 91.0375 86.7435 92.9204 88.4289C94.8033 90.1144 97.2139 90.9028 99.6218 90.6206C102.03 90.3383 104.238 89.0087 105.76 86.9241C106.69 87.9332 107.857 88.6316 109.129 88.9391C110.401 89.2465 111.725 89.1506 112.95 88.6622C114.175 88.1739 115.25 87.3129 116.053 86.1783C116.856 85.0437 117.353 83.6814 117.488 82.2479C118.206 82.5514 118.966 82.7114 119.735 82.7205C120.367 82.7161 120.996 82.6071 121.599 82.3972C121.836 83.7903 122.532 85.0364 123.552 85.8939C124.571 86.7515 125.842 87.1594 127.118 87.0386C128.394 86.9178 129.583 86.2769 130.457 85.2401C131.33 84.2033 131.824 82.8445 131.844 81.4271V81.3028C134.086 81.0328 136.16 79.8549 137.665 77.9954C139.17 76.136 140.002 73.7261 140 71.2291ZM115.286 69.1895L115.129 68.8413C115.396 68.7901 115.659 68.7152 115.915 68.6174C115.698 68.7878 115.495 68.9793 115.309 69.1895H115.286Z" fill="white"/>
</svg>
