<svg width="142" height="126" viewBox="0 0 142 126" fill="none" xmlns="http://www.w3.org/2000/svg">
<path d="M141.65 53.751L74.1191 31.8938L0 64.5504L16.4709 93.588L72.8521 99.5908L120.06 79.8877L141.65 53.751Z" fill="#2E3551"/>
<path d="M0 64.55L1.82447 98.3267L64.0592 125.698V85.2871L0 64.55Z" fill="#62A7A2"/>
<path d="M141.65 91.6922L64.0593 125.698V85.2873L141.65 53.751V91.6922Z" fill="#E5E4CC"/>
<path d="M64.338 71.3289L96.1142 56.4223C96.8386 56.0941 97.4595 55.5274 97.897 54.7953C98.3344 54.0632 98.5682 53.1993 98.5682 52.3151C98.5682 51.4309 98.3344 50.567 97.897 49.8348C97.4595 49.1027 96.8386 48.536 96.1142 48.2078L88.5122 44.7612C85.6095 43.4399 82.3687 43.4399 79.4659 44.7612L46.1693 60.2997C45.3445 60.6911 44.645 61.359 44.1647 62.2139C43.6843 63.0688 43.4461 64.0697 43.4819 65.0824C43.5178 66.0951 43.826 67.0712 44.3652 67.8796C44.9044 68.6881 45.6489 69.2904 46.4987 69.6056L52.631 71.8459C56.4632 73.2586 60.6144 73.0753 64.338 71.3289Z" fill="white"/>
<path d="M52.048 68.9159C52.048 68.9159 46.9801 69.634 46.1692 60.2995C45.3583 50.9649 52.1494 50.2469 49.1086 38.7295C46.0678 27.2121 41.8867 15.2926 43.4578 12.88C45.0289 10.4674 57.2934 22.9613 66.061 17.6765C74.8286 12.3917 64.642 4.11991 76.9065 0.788203C89.171 -2.54351 89.8805 6.10171 97.1784 0.788203C97.1784 0.788203 98.8761 20.6061 94.6444 25.6037C90.4126 30.6013 89.8298 43.2675 92.8959 49.8448C95.962 56.422 52.048 68.9159 52.048 68.9159Z" fill="white"/>
</svg>
