<svg width="156" height="38" viewBox="0 0 156 38" fill="none" xmlns="http://www.w3.org/2000/svg">
<path d="M35.4645 3.77261C36.5294 3.77261 37.3927 2.92808 37.3927 1.8863C37.3927 0.844527 36.5294 0 35.4645 0C34.3996 0 33.5364 0.844527 33.5364 1.8863C33.5364 2.92808 34.3996 3.77261 35.4645 3.77261Z" fill="#1D2133"/>
<path d="M36.8964 26.402C39.715 26.402 42 24.1667 42 21.4092C42 18.6518 39.715 16.4164 36.8964 16.4164C34.0777 16.4164 31.7927 18.6518 31.7927 21.4092C31.7927 24.1667 34.0777 26.402 36.8964 26.402Z" fill="#1D2133"/>
<path d="M13.86 38C15.0901 38 16.0873 37.0245 16.0873 35.8211C16.0873 34.6177 15.0901 33.6422 13.86 33.6422C12.6299 33.6422 11.6327 34.6177 11.6327 35.8211C11.6327 37.0245 12.6299 38 13.86 38Z" fill="#1D2133"/>
<path d="M5.09727 34.4764C7.55042 34.4764 9.53909 32.5309 9.53909 30.1311C9.53909 27.7312 7.55042 25.7857 5.09727 25.7857C2.64413 25.7857 0.655459 27.7312 0.655459 30.1311C0.655459 32.5309 2.64413 34.4764 5.09727 34.4764Z" fill="#1D2133"/>
<path d="M2.72364 6.89155C4.22786 6.89155 5.44727 5.69862 5.44727 4.22706C5.44727 2.75551 4.22786 1.56258 2.72364 1.56258C1.21941 1.56258 0 2.75551 0 4.22706C0 5.69862 1.21941 6.89155 2.72364 6.89155Z" fill="#1D2133"/>
<path d="M38.3346 15.8811C38.1691 15.1589 37.7109 14.5115 37.0682 14.1193C36.5782 13.8142 36.0309 13.7022 35.5791 13.8018C35 13.9325 34.6691 14.2936 34.37 14.6111C34.0773 14.9223 33.8418 15.1838 33.39 15.2523C32.55 12.4882 30.7682 10.0914 28.3245 8.4479C28.49 7.89384 28.8146 7.7133 29.1836 7.50163C29.4636 7.346 29.75 7.18414 29.9282 6.86664C30.1446 6.49311 30.17 6.02621 29.9982 5.55307C29.7373 4.8247 29.0755 4.20838 28.1846 3.85976C27.2682 3.49868 26.2882 3.44888 25.6327 3.7228C25.2636 3.87844 25.0027 4.13368 24.8691 4.4574C24.6718 4.94921 24.7418 5.45969 24.8055 5.94528C24.85 6.25032 24.8882 6.53669 24.8564 6.79816C23.6218 6.42463 22.3364 6.23165 21.0255 6.23165C19.7718 6.23165 18.5373 6.40596 17.3473 6.75458C16.7236 6.34993 16.7873 6.01376 16.87 5.55307C16.9273 5.2418 16.9909 4.89318 16.8127 4.54456C16.3609 3.65432 14.9609 3.15629 13.4082 3.85353C12.6636 4.18971 12.0973 4.73754 11.8682 5.36009C11.7027 5.79587 11.7155 6.25032 11.9 6.6363C12.1418 7.14056 12.5618 7.4207 12.9373 7.66972C13.37 7.95609 13.6182 8.14285 13.6691 8.49148C12.0782 9.5747 10.7482 11.0065 9.80001 12.6563C9.78092 12.6501 9.76183 12.6438 9.74273 12.6376C9.24001 12.4944 8.61001 12.5816 8.06273 12.868C7.61092 13.1045 7.00637 13.5776 6.70092 14.5052C6.47183 15.2149 6.53546 15.9371 6.8791 16.4911C7.15274 16.9269 7.5791 17.2195 8.05637 17.3005C8.10728 17.3067 8.15819 17.3129 8.21546 17.3191C8.15819 17.7923 8.13274 18.2903 8.13274 18.8444C8.13274 20.712 8.54001 22.5049 9.34183 24.1796C8.98546 24.3476 8.59728 24.3414 8.18364 24.3352C7.76364 24.329 7.33092 24.3227 6.9491 24.5282C6.51001 24.7647 6.17274 25.2503 6.04546 25.8231C5.88001 26.5639 6.06455 27.3483 6.57364 28.0206C7.10819 28.7366 7.91637 29.247 8.67364 29.3591C9.13183 29.4276 9.5391 29.3404 9.85092 29.1163C10.3473 28.7552 10.57 28.2074 10.7609 27.728C10.9073 27.3732 11.0155 27.118 11.1618 26.981C13.6182 29.8322 17.1946 31.4633 21.0191 31.4633C21.4582 31.4633 21.8973 31.4446 22.33 31.401C22.3236 31.4446 22.3173 31.482 22.3109 31.5256C22.2664 31.8555 22.2218 32.173 22.3046 32.4905C22.4 32.8578 22.6736 33.1628 23.0936 33.3745C23.4755 33.5613 23.9336 33.6609 24.4173 33.6609C24.9073 33.6609 25.4291 33.5675 25.9191 33.3745C26.6445 33.0881 27.2173 32.5714 27.4909 31.9427C27.6946 31.4757 27.7136 30.9839 27.5418 30.5668C27.4336 30.3116 27.2746 30.1124 27.0964 29.9443C29.0246 28.9296 30.66 27.4541 31.85 25.655C33.1864 23.6442 33.8927 21.3159 33.9055 18.9128C34.6245 18.5829 35.2036 18.7012 35.7636 18.8132C36.0818 18.8755 36.3873 18.9377 36.6927 18.9128C37.1573 18.8693 37.6091 18.6016 37.9273 18.1782C38.3918 17.5744 38.5318 16.7402 38.3346 15.8811Z" fill="#1D2133"/>
<path d="M22.0309 14.1566C21.6682 13.4531 21.6746 12.6936 22.1136 12.1956C22.7691 11.4486 24.1373 11.5544 25.1746 12.4259C26.2118 13.2975 26.5236 14.6111 25.8746 15.3519C25.4546 15.8313 24.7291 15.962 23.9973 15.7565" fill="#1D2133"/>
<path d="M18.4164 20.0521C19.6191 20.0521 20.5991 21.0046 20.5991 22.1874C20.5991 23.3702 19.6255 24.3227 18.4164 24.3227C17.2136 24.3227 16.2336 23.3702 16.2336 22.1874C16.2336 21.7765 16.3546 21.3906 16.5646 21.0606" fill="#1D2133"/>
<path d="M26.6064 19.8467C27.6246 20.3509 28.6491 20.0708 29.1836 20.6311C29.8136 21.291 29.8455 22.231 28.98 23.1648C28.1146 24.0986 26.9118 24.3103 26.1736 23.7625C25.2827 23.1026 25.5945 22.0691 25.5945 22.0691" fill="#1D2133"/>
<path d="M24.7418 7.76933C25.7982 6.87287 24.8246 5.5842 25.2255 4.58813C25.5373 3.81618 26.8609 3.73525 28.0446 4.20216C29.4636 4.75622 30.0046 5.97018 29.5973 6.67988C29.2091 7.35222 27.9809 7.15301 27.8473 8.98329" fill="#1D2133"/>
<path d="M11.4991 17.3191C10.1945 16.1736 9.24 17.1199 8.12001 16.9394C7.28637 16.8024 6.67546 15.8188 7.06364 14.6297C7.52819 13.2103 8.87728 12.7932 9.63455 13.0049C10.3918 13.2166 10.43 14.4741 12.1291 13.9512" fill="#1D2133"/>
<path d="M25.1809 28.3381C25.2446 29.6766 26.7973 29.7077 27.2109 30.6976C27.5291 31.4633 26.9882 32.5527 25.7982 33.0134C24.3791 33.5675 22.8964 33.1815 22.6864 32.3909C22.4891 31.6438 23.2209 30.6851 22.2091 29.2844" fill="#1D2133"/>
<path d="M60.4805 24.5645C59.8294 25.1243 59.1003 25.554 58.293 25.8535C57.4857 26.153 56.6491 26.3027 55.7832 26.3027C55.1191 26.3027 54.4779 26.2148 53.8594 26.0391C53.2474 25.8698 52.6712 25.6289 52.1309 25.3164C51.597 24.9974 51.1087 24.6165 50.666 24.1738C50.2233 23.7311 49.8424 23.2428 49.5234 22.709C49.2109 22.1686 48.9668 21.5924 48.791 20.9805C48.6217 20.362 48.5371 19.7207 48.5371 19.0566C48.5371 18.3926 48.6217 17.7513 48.791 17.1328C48.9668 16.5143 49.2109 15.9382 49.5234 15.4043C49.8424 14.8639 50.2233 14.3724 50.666 13.9297C51.1087 13.487 51.597 13.1094 52.1309 12.7969C52.6712 12.4779 53.2474 12.2337 53.8594 12.0645C54.4779 11.8887 55.1191 11.8008 55.7832 11.8008C56.6491 11.8008 57.4857 11.9505 58.293 12.25C59.1003 12.543 59.8294 12.9727 60.4805 13.5391L58.9961 15.9805C58.5859 15.5378 58.1009 15.1992 57.541 14.9648C56.9811 14.724 56.3952 14.6035 55.7832 14.6035C55.1647 14.6035 54.5853 14.7207 54.0449 14.9551C53.5046 15.1895 53.0326 15.5085 52.6289 15.9121C52.2253 16.3092 51.9062 16.7812 51.6719 17.3281C51.4375 17.8685 51.3203 18.4447 51.3203 19.0566C51.3203 19.6686 51.4375 20.2448 51.6719 20.7852C51.9062 21.319 52.2253 21.7878 52.6289 22.1914C53.0326 22.5951 53.5046 22.9141 54.0449 23.1484C54.5853 23.3828 55.1647 23.5 55.7832 23.5C56.3952 23.5 56.9811 23.3828 57.541 23.1484C58.1009 22.9076 58.5859 22.5658 58.9961 22.123L60.4805 24.5645Z" fill="#1D2133"/>
<path d="M71.5645 20.6777C71.5645 21.459 71.4245 22.1882 71.1445 22.8652C70.8646 23.5358 70.4837 24.1185 70.002 24.6133C69.5202 25.1016 68.9538 25.4889 68.3027 25.7754C67.6582 26.0553 66.9648 26.1953 66.2227 26.1953C65.487 26.1953 64.7936 26.0553 64.1426 25.7754C63.498 25.4889 62.9316 25.1016 62.4434 24.6133C61.9616 24.1185 61.5807 23.5358 61.3008 22.8652C61.0208 22.1882 60.8809 21.459 60.8809 20.6777C60.8809 19.8835 61.0208 19.1478 61.3008 18.4707C61.5807 17.7936 61.9616 17.2109 62.4434 16.7227C62.9316 16.2279 63.498 15.8405 64.1426 15.5605C64.7936 15.2806 65.487 15.1406 66.2227 15.1406C66.9648 15.1406 67.6582 15.2741 68.3027 15.541C68.9538 15.8014 69.5202 16.1758 70.002 16.6641C70.4837 17.1458 70.8646 17.7285 71.1445 18.4121C71.4245 19.0892 71.5645 19.8444 71.5645 20.6777ZM68.8789 20.6777C68.8789 20.248 68.8073 19.8607 68.6641 19.5156C68.5273 19.1641 68.3385 18.8646 68.0977 18.6172C67.8568 18.3633 67.5736 18.1712 67.248 18.041C66.929 17.9043 66.5872 17.8359 66.2227 17.8359C65.8581 17.8359 65.513 17.9043 65.1875 18.041C64.8685 18.1712 64.5885 18.3633 64.3477 18.6172C64.1133 18.8646 63.9277 19.1641 63.791 19.5156C63.6543 19.8607 63.5859 20.248 63.5859 20.6777C63.5859 21.0814 63.6543 21.4557 63.791 21.8008C63.9277 22.1458 64.1133 22.4453 64.3477 22.6992C64.5885 22.9531 64.8685 23.1549 65.1875 23.3047C65.513 23.4479 65.8581 23.5195 66.2227 23.5195C66.5872 23.5195 66.929 23.4512 67.248 23.3145C67.5736 23.1777 67.8568 22.9857 68.0977 22.7383C68.3385 22.4909 68.5273 22.1914 68.6641 21.8398C68.8073 21.4883 68.8789 21.1009 68.8789 20.6777Z" fill="#1D2133"/>
<path d="M75.7051 26H73.0391V15.541H73.6836L74.5625 16.7812C74.9922 16.3906 75.4805 16.0911 76.0273 15.8828C76.5742 15.668 77.1406 15.5605 77.7266 15.5605H80.0801V18.2168H77.7266C77.4466 18.2168 77.1829 18.2689 76.9355 18.373C76.6881 18.4772 76.4733 18.6204 76.291 18.8027C76.1087 18.985 75.9655 19.1999 75.8613 19.4473C75.7572 19.6947 75.7051 19.9583 75.7051 20.2383V26Z" fill="#1D2133"/>
<path d="M91.2324 20.6777C91.2324 21.459 91.0924 22.1882 90.8125 22.8652C90.5326 23.5358 90.1517 24.1185 89.6699 24.6133C89.1881 25.1016 88.6217 25.4889 87.9707 25.7754C87.3262 26.0553 86.6328 26.1953 85.8906 26.1953C85.1549 26.1953 84.4616 26.0553 83.8105 25.7754C83.166 25.4889 82.5996 25.1016 82.1113 24.6133C81.6296 24.1185 81.2487 23.5358 80.9688 22.8652C80.6888 22.1882 80.5488 21.459 80.5488 20.6777C80.5488 19.8835 80.6888 19.1478 80.9688 18.4707C81.2487 17.7936 81.6296 17.2109 82.1113 16.7227C82.5996 16.2279 83.166 15.8405 83.8105 15.5605C84.4616 15.2806 85.1549 15.1406 85.8906 15.1406C86.6328 15.1406 87.3262 15.2741 87.9707 15.541C88.6217 15.8014 89.1881 16.1758 89.6699 16.6641C90.1517 17.1458 90.5326 17.7285 90.8125 18.4121C91.0924 19.0892 91.2324 19.8444 91.2324 20.6777ZM88.5469 20.6777C88.5469 20.248 88.4753 19.8607 88.332 19.5156C88.1953 19.1641 88.0065 18.8646 87.7656 18.6172C87.5247 18.3633 87.2415 18.1712 86.916 18.041C86.597 17.9043 86.2552 17.8359 85.8906 17.8359C85.526 17.8359 85.181 17.9043 84.8555 18.041C84.5365 18.1712 84.2565 18.3633 84.0156 18.6172C83.7812 18.8646 83.5957 19.1641 83.459 19.5156C83.3223 19.8607 83.2539 20.248 83.2539 20.6777C83.2539 21.0814 83.3223 21.4557 83.459 21.8008C83.5957 22.1458 83.7812 22.4453 84.0156 22.6992C84.2565 22.9531 84.5365 23.1549 84.8555 23.3047C85.181 23.4479 85.526 23.5195 85.8906 23.5195C86.2552 23.5195 86.597 23.4512 86.916 23.3145C87.2415 23.1777 87.5247 22.9857 87.7656 22.7383C88.0065 22.4909 88.1953 22.1914 88.332 21.8398C88.4753 21.4883 88.5469 21.1009 88.5469 20.6777Z" fill="#1D2133"/>
<path d="M95.373 26H92.707V15.541H93.3516L94.2305 16.5566C94.6602 16.166 95.1452 15.8665 95.6855 15.6582C96.2324 15.4434 96.8021 15.3359 97.3945 15.3359C98.0326 15.3359 98.6348 15.4596 99.2012 15.707C99.7676 15.9479 100.262 16.2832 100.686 16.7129C101.109 17.1361 101.441 17.6341 101.682 18.207C101.929 18.7734 102.053 19.3789 102.053 20.0234V26H99.3867V20.0234C99.3867 19.75 99.3346 19.4928 99.2305 19.252C99.1263 19.0046 98.9831 18.7897 98.8008 18.6074C98.6185 18.4251 98.4069 18.2819 98.166 18.1777C97.9251 18.0736 97.668 18.0215 97.3945 18.0215C97.1146 18.0215 96.8509 18.0736 96.6035 18.1777C96.3561 18.2819 96.1413 18.4251 95.959 18.6074C95.7767 18.7897 95.6335 19.0046 95.5293 19.252C95.4251 19.4928 95.373 19.75 95.373 20.0234V26Z" fill="#1D2133"/>
<path d="M114.084 26H113.439L112.404 24.5645C112.15 24.7923 111.88 25.0072 111.594 25.209C111.314 25.4043 111.018 25.5768 110.705 25.7266C110.393 25.8698 110.07 25.9837 109.738 26.0684C109.413 26.153 109.081 26.1953 108.742 26.1953C108.007 26.1953 107.313 26.0716 106.662 25.8242C106.018 25.5768 105.451 25.2188 104.963 24.75C104.481 24.2747 104.1 23.6953 103.82 23.0117C103.54 22.3281 103.4 21.5501 103.4 20.6777C103.4 19.8639 103.54 19.1185 103.82 18.4414C104.1 17.7578 104.481 17.1719 104.963 16.6836C105.451 16.1953 106.018 15.8177 106.662 15.5508C107.313 15.2773 108.007 15.1406 108.742 15.1406C109.081 15.1406 109.416 15.1829 109.748 15.2676C110.08 15.3522 110.402 15.4694 110.715 15.6191C111.027 15.7689 111.324 15.9447 111.604 16.1465C111.89 16.3483 112.157 16.5664 112.404 16.8008L113.439 15.5605H114.084V26ZM111.398 20.6777C111.398 20.3132 111.327 19.9616 111.184 19.623C111.047 19.278 110.858 18.9753 110.617 18.7148C110.376 18.4479 110.093 18.2363 109.768 18.0801C109.449 17.9173 109.107 17.8359 108.742 17.8359C108.378 17.8359 108.033 17.8978 107.707 18.0215C107.388 18.1452 107.108 18.3275 106.867 18.5684C106.633 18.8092 106.447 19.1087 106.311 19.4668C106.174 19.8184 106.105 20.222 106.105 20.6777C106.105 21.1335 106.174 21.5404 106.311 21.8984C106.447 22.25 106.633 22.5462 106.867 22.7871C107.108 23.028 107.388 23.2103 107.707 23.334C108.033 23.4577 108.378 23.5195 108.742 23.5195C109.107 23.5195 109.449 23.4414 109.768 23.2852C110.093 23.1224 110.376 22.9108 110.617 22.6504C110.858 22.3835 111.047 22.0807 111.184 21.7422C111.327 21.3971 111.398 21.0423 111.398 20.6777Z" fill="#1D2133"/>
<path d="M119.406 25.0039C119.406 25.2383 119.364 25.4596 119.279 25.668C119.195 25.8698 119.077 26.0456 118.928 26.1953C118.778 26.3451 118.602 26.4622 118.4 26.5469C118.199 26.638 117.98 26.6836 117.746 26.6836C117.518 26.6836 117.3 26.638 117.092 26.5469C116.89 26.4622 116.711 26.3451 116.555 26.1953C116.405 26.0456 116.285 25.8698 116.193 25.668C116.109 25.4596 116.066 25.2383 116.066 25.0039C116.066 24.776 116.109 24.5612 116.193 24.3594C116.285 24.1576 116.405 23.9818 116.555 23.832C116.711 23.6823 116.89 23.5651 117.092 23.4805C117.3 23.3893 117.518 23.3438 117.746 23.3438C117.98 23.3438 118.199 23.3893 118.4 23.4805C118.602 23.5651 118.778 23.6823 118.928 23.832C119.077 23.9818 119.195 24.1576 119.279 24.3594C119.364 24.5612 119.406 24.776 119.406 25.0039Z" fill="#1D2133"/>
<path d="M124.543 12.6992C124.543 12.9466 124.494 13.1777 124.396 13.3926C124.305 13.6074 124.178 13.7962 124.016 13.959C123.853 14.1152 123.661 14.2422 123.439 14.3398C123.225 14.431 122.993 14.4766 122.746 14.4766C122.499 14.4766 122.264 14.431 122.043 14.3398C121.828 14.2422 121.639 14.1152 121.477 13.959C121.32 13.7962 121.193 13.6074 121.096 13.3926C121.005 13.1777 120.959 12.9466 120.959 12.6992C120.959 12.4583 121.005 12.2305 121.096 12.0156C121.193 11.7943 121.32 11.6055 121.477 11.4492C121.639 11.2865 121.828 11.1595 122.043 11.0684C122.264 10.9707 122.499 10.9219 122.746 10.9219C122.993 10.9219 123.225 10.9707 123.439 11.0684C123.661 11.1595 123.853 11.2865 124.016 11.4492C124.178 11.6055 124.305 11.7943 124.396 12.0156C124.494 12.2305 124.543 12.4583 124.543 12.6992ZM124.084 26H121.398V15.541H124.084V26Z" fill="#1D2133"/>
<path d="M128.791 26H126.125V15.541H126.77L127.648 16.5566C128.078 16.166 128.563 15.8665 129.104 15.6582C129.65 15.4434 130.22 15.3359 130.812 15.3359C131.451 15.3359 132.053 15.4596 132.619 15.707C133.186 15.9479 133.68 16.2832 134.104 16.7129C134.527 17.1361 134.859 17.6341 135.1 18.207C135.347 18.7734 135.471 19.3789 135.471 20.0234V26H132.805V20.0234C132.805 19.75 132.753 19.4928 132.648 19.252C132.544 19.0046 132.401 18.7897 132.219 18.6074C132.036 18.4251 131.825 18.2819 131.584 18.1777C131.343 18.0736 131.086 18.0215 130.812 18.0215C130.533 18.0215 130.269 18.0736 130.021 18.1777C129.774 18.2819 129.559 18.4251 129.377 18.6074C129.195 18.7897 129.051 19.0046 128.947 19.252C128.843 19.4928 128.791 19.75 128.791 20.0234V26Z" fill="#1D2133"/>
<path d="M140.607 26H137.941V18.1973H136.643V15.541H137.941V15.043C137.941 14.3984 138.062 13.793 138.303 13.2266C138.55 12.6602 138.885 12.1686 139.309 11.752C139.738 11.3288 140.236 10.9967 140.803 10.7559C141.369 10.5085 141.975 10.3848 142.619 10.3848H144.621V13.041H142.619C142.333 13.041 142.066 13.0931 141.818 13.1973C141.577 13.2949 141.366 13.4349 141.184 13.6172C141.008 13.793 140.868 14.0046 140.764 14.252C140.66 14.4928 140.607 14.7565 140.607 15.043V15.541H143.879V18.1973H140.607V26Z" fill="#1D2133"/>
<path d="M155.061 20.6777C155.061 21.459 154.921 22.1882 154.641 22.8652C154.361 23.5358 153.98 24.1185 153.498 24.6133C153.016 25.1016 152.45 25.4889 151.799 25.7754C151.154 26.0553 150.461 26.1953 149.719 26.1953C148.983 26.1953 148.29 26.0553 147.639 25.7754C146.994 25.4889 146.428 25.1016 145.939 24.6133C145.458 24.1185 145.077 23.5358 144.797 22.8652C144.517 22.1882 144.377 21.459 144.377 20.6777C144.377 19.8835 144.517 19.1478 144.797 18.4707C145.077 17.7936 145.458 17.2109 145.939 16.7227C146.428 16.2279 146.994 15.8405 147.639 15.5605C148.29 15.2806 148.983 15.1406 149.719 15.1406C150.461 15.1406 151.154 15.2741 151.799 15.541C152.45 15.8014 153.016 16.1758 153.498 16.6641C153.98 17.1458 154.361 17.7285 154.641 18.4121C154.921 19.0892 155.061 19.8444 155.061 20.6777ZM152.375 20.6777C152.375 20.248 152.303 19.8607 152.16 19.5156C152.023 19.1641 151.835 18.8646 151.594 18.6172C151.353 18.3633 151.07 18.1712 150.744 18.041C150.425 17.9043 150.083 17.8359 149.719 17.8359C149.354 17.8359 149.009 17.9043 148.684 18.041C148.365 18.1712 148.085 18.3633 147.844 18.6172C147.609 18.8646 147.424 19.1641 147.287 19.5156C147.15 19.8607 147.082 20.248 147.082 20.6777C147.082 21.0814 147.15 21.4557 147.287 21.8008C147.424 22.1458 147.609 22.4453 147.844 22.6992C148.085 22.9531 148.365 23.1549 148.684 23.3047C149.009 23.4479 149.354 23.5195 149.719 23.5195C150.083 23.5195 150.425 23.4512 150.744 23.3145C151.07 23.1777 151.353 22.9857 151.594 22.7383C151.835 22.4909 152.023 22.1914 152.16 21.8398C152.303 21.4883 152.375 21.1009 152.375 20.6777Z" fill="#1D2133"/>
</svg>
