<svg width="195" height="112" viewBox="0 0 195 112" fill="none" xmlns="http://www.w3.org/2000/svg">
<path d="M101.998 58.9855C101.998 58.9855 140.039 63.0214 141.703 58.788C143.367 54.5546 92.3254 44.6766 92.3254 44.6766H89.5054L67.4816 39.6812C51.3514 31.045 57.4707 36.2662 19.0911 10.8093C19.0911 10.8093 0.451193 25.6263 0 48.9382C0 48.9382 19.0065 61.7231 54.1996 70.952C54.7636 71.4882 55.3275 71.9962 56.0043 72.5324C73.9675 86.2205 117.508 96.7758 118.918 93.9535C120.328 91.1312 103.154 82.9184 103.154 82.9184C103.154 82.9184 140.998 89.4661 142.041 86.0511C143.085 82.6362 105.918 71.3189 105.918 71.3189C105.918 71.3189 151.714 80.6888 152.447 75.4394C153.18 70.1899 101.998 58.9855 101.998 58.9855Z" fill="#62A7A2"/>
<path d="M40.8611 73.379C40.5227 68.0449 92.4381 60.961 92.4381 60.961C92.4381 60.961 54.2277 61.9488 52.9588 57.6025C51.6898 53.2562 103.239 47.4141 103.239 47.4141C103.239 47.4141 84.5987 41.064 86.0933 36.6895C87.5878 32.315 128.054 44.3661 128.054 44.3661L128.364 44.6201C145.284 37.2257 138.629 41.9389 178.898 19.6147C178.898 19.6147 196.297 35.871 194.915 59.1266C194.915 59.1266 174.95 70.4157 139.137 76.7658C138.524 77.2719 137.884 77.743 137.219 78.1769C118.241 90.3127 73.9956 97.3966 72.8113 94.4896C71.6269 91.5827 89.4208 84.6681 89.4208 84.6681C89.4208 84.6681 51.1822 88.2242 50.3926 84.6681C49.603 81.1121 87.5596 72.8428 87.5596 72.8428C87.5596 72.8428 41.1713 78.6285 40.8611 73.379Z" fill="#FFEFE0"/>
<path d="M92.3254 44.6201C92.3254 44.6201 111.473 39.7658 110.26 35.1937C109.048 30.6217 67.961 39.5118 67.961 39.5118L67.6508 39.7376L89.6746 44.733L92.3254 44.6201Z" fill="#62A7A2"/>
<path d="M81.7787 19.756C81.5999 19.7561 81.4244 19.8049 81.2711 19.8971L78.9587 18.0908C79.2209 17.677 79.4027 17.2174 79.4945 16.7361H80.6507C80.7066 16.9146 80.8198 17.0694 80.9729 17.1767C81.1259 17.2839 81.3101 17.3374 81.4967 17.3288C81.6176 17.3326 81.7379 17.312 81.8507 17.2683C81.9635 17.2247 82.0663 17.1587 82.1531 17.0745C82.2399 16.9902 82.3089 16.8894 82.356 16.778C82.4031 16.6665 82.4273 16.5467 82.4273 16.4257C82.4273 16.1787 82.3292 15.9418 82.1547 15.7671C81.9802 15.5925 81.7435 15.4943 81.4967 15.4943C81.3003 15.4926 81.1086 15.555 80.9508 15.6721C80.793 15.7893 80.6778 15.9548 80.6225 16.1435H79.5791C79.5333 15.4712 79.32 14.8211 78.9587 14.2525L80.9327 12.5592C81.0532 12.588 81.1788 12.588 81.2993 12.5592C81.5461 12.5592 81.7828 12.4611 81.9573 12.2864C82.1318 12.1117 82.2299 11.8748 82.2299 11.6278C82.2299 11.3808 82.1318 11.1439 81.9573 10.9693C81.7828 10.7946 81.5461 10.6965 81.2993 10.6965C81.0525 10.6965 80.8158 10.7946 80.6413 10.9693C80.4668 11.1439 80.3687 11.3808 80.3687 11.6278C80.3363 11.7671 80.3363 11.9119 80.3687 12.0512L78.5358 13.6316C78.1249 13.0022 77.5986 12.4564 76.9848 12.0229L76.449 11.6561L76.9566 11.2892H77.1258C77.2466 11.2929 77.367 11.2724 77.4798 11.2287C77.5925 11.185 77.6954 11.1191 77.7822 11.0348C77.869 10.9506 77.938 10.8497 77.9851 10.7383C78.0322 10.6268 78.0564 10.507 78.0564 10.386C78.0564 10.139 77.9583 9.90213 77.7838 9.72747C77.6093 9.5528 77.3726 9.45468 77.1258 9.45468C76.879 9.45468 76.6423 9.5528 76.4678 9.72747C76.2932 9.90213 76.1952 10.139 76.1952 10.386C76.1963 10.6044 76.2765 10.8149 76.4208 10.9787L76.1388 11.4303C75.4197 11.0447 74.6138 10.8504 73.7982 10.8658L73.3188 9.05956C73.4861 8.90612 73.5873 8.69359 73.6008 8.46689C73.6244 8.33296 73.6184 8.19551 73.5832 8.06416C73.548 7.93282 73.4845 7.81079 73.3971 7.70663C73.3098 7.60247 73.2007 7.51872 73.0776 7.46126C72.9544 7.4038 72.8202 7.37402 72.6843 7.37402C72.5485 7.37402 72.4143 7.4038 72.2911 7.46126C72.168 7.51872 72.0589 7.60247 71.9715 7.70663C71.8842 7.81079 71.8207 7.93282 71.7855 8.06416C71.7503 8.19551 71.7443 8.33296 71.7679 8.46689C71.7674 8.69694 71.8547 8.9185 72.0119 9.08634C72.1691 9.25417 72.3844 9.35563 72.6138 9.37001L73.1214 11.0634C72.5352 11.1774 71.9844 11.4289 71.5141 11.7972L71.2603 11.2892C71.2891 11.1495 71.2891 11.0055 71.2603 10.8658C71.2603 10.6188 71.1622 10.3819 70.9877 10.2073C70.8132 10.0326 70.5765 9.93447 70.3297 9.93447C70.0829 9.93447 69.8462 10.0326 69.6717 10.2073C69.4971 10.3819 69.3991 10.6188 69.3991 10.8658C69.399 10.9868 69.4233 11.1066 69.4704 11.2181C69.5175 11.3295 69.5865 11.4304 69.6733 11.5146C69.7601 11.5989 69.8629 11.6648 69.9757 11.7085C70.0884 11.7522 70.2088 11.7727 70.3297 11.7689H70.6963L70.9501 12.1923C70.8316 12.3114 70.7274 12.444 70.6399 12.5874C70.4257 12.8712 70.2369 13.1735 70.0759 13.4905L67.2559 11.8818C67.269 11.7882 67.269 11.6932 67.2559 11.5996C67.256 11.4786 67.2317 11.3588 67.1846 11.2474C67.1375 11.1359 67.0685 11.0351 66.9817 10.9508C66.8949 10.8666 66.7921 10.8006 66.6793 10.757C66.5666 10.7133 66.4462 10.6927 66.3253 10.6965C66.086 10.6965 65.8565 10.7916 65.6873 10.961C65.518 11.1304 65.423 11.3601 65.423 11.5996C65.4192 11.7206 65.4397 11.841 65.4834 11.9539C65.527 12.0667 65.5929 12.1697 65.6771 12.2565C65.7612 12.3434 65.862 12.4125 65.9734 12.4596C66.0847 12.5068 66.2044 12.531 66.3253 12.531C66.5171 12.5311 66.7042 12.472 66.8611 12.3616L69.9067 14.055C69.9067 14.3372 69.7657 14.6194 69.7093 14.8734L68.1865 14.563C68.1721 14.3334 68.0708 14.1179 67.9031 13.9606C67.7354 13.8032 67.514 13.7159 67.2841 13.7163C67.1633 13.7125 67.0429 13.7331 66.9301 13.7768C66.8174 13.8205 66.7145 13.8864 66.6277 13.9706C66.5409 14.0549 66.4719 14.1557 66.4248 14.2672C66.3777 14.3786 66.3535 14.4984 66.3535 14.6194C66.3535 14.8664 66.4516 15.1033 66.6261 15.278C66.8006 15.4527 67.0373 15.5508 67.2841 15.5508C67.4286 15.5464 67.5701 15.5085 67.6973 15.4399C67.8246 15.3713 67.9342 15.274 68.0173 15.1557L69.6811 15.4943C69.6753 15.9905 69.7418 16.4849 69.8785 16.9619L66.4945 18.5706C66.4179 18.4376 66.3066 18.3279 66.1725 18.2534C66.0383 18.1788 65.8865 18.1421 65.7331 18.1473C65.6122 18.1472 65.4925 18.1715 65.3812 18.2186C65.2698 18.2658 65.1691 18.3348 65.0849 18.4217C65.0007 18.5086 64.9348 18.6115 64.8912 18.7243C64.8475 18.8372 64.827 18.9577 64.8308 19.0786C64.8308 19.1972 64.8541 19.3147 64.8995 19.4242C64.9448 19.5338 65.0113 19.6334 65.0951 19.7172C65.1789 19.8011 65.2783 19.8676 65.3878 19.913C65.4973 19.9584 65.6146 19.9818 65.7331 19.9818C65.9616 19.9834 66.1827 19.901 66.3543 19.75C66.5259 19.5991 66.636 19.3903 66.6637 19.1633L70.1041 17.5264C70.2096 17.7699 70.3321 18.0057 70.4707 18.2319L69.6529 18.74C69.5173 18.6364 69.3559 18.5721 69.1863 18.5541C69.0168 18.5361 68.8455 18.5651 68.6912 18.6379C68.537 18.7108 68.4057 18.8246 68.3117 18.967C68.2177 19.1094 68.1647 19.275 68.1583 19.4455C68.1545 19.5665 68.1751 19.687 68.2187 19.7998C68.2624 19.9127 68.3283 20.0156 68.4124 20.1025C68.4966 20.1893 68.5974 20.2584 68.7087 20.3055C68.8201 20.3527 68.9398 20.3769 69.0607 20.3769C69.3075 20.3769 69.5442 20.2788 69.7187 20.1041C69.8932 19.9294 69.9913 19.6925 69.9913 19.4455C70.005 19.3804 70.005 19.3131 69.9913 19.248L70.8655 18.7117C71.1002 18.9937 71.365 19.2492 71.6551 19.4738L72.1627 19.7842L71.1475 21.534H70.8937C70.7728 21.534 70.6531 21.5582 70.5417 21.6054C70.4303 21.6525 70.3296 21.7216 70.2454 21.8084C70.1612 21.8953 70.0954 21.9982 70.0517 22.1111C70.0081 22.2239 69.9875 22.3444 69.9913 22.4654C69.9913 22.7049 70.0864 22.9346 70.2556 23.104C70.4248 23.2733 70.6543 23.3685 70.8937 23.3685C71.0145 23.3723 71.1349 23.3517 71.2477 23.308C71.3604 23.2643 71.4633 23.1984 71.5501 23.1142C71.6369 23.0299 71.7059 22.9291 71.753 22.8176C71.8001 22.7062 71.8243 22.5864 71.8243 22.4654C71.8284 22.2729 71.7689 22.0844 71.6551 21.9291L72.6984 20.0946C73.2175 20.3133 73.7714 20.4375 74.334 20.4615V20.8849C74.1335 20.9554 73.9632 21.0925 73.8514 21.2734C73.7395 21.4543 73.6929 21.668 73.7193 21.879C73.7456 22.0901 73.8434 22.2857 73.9963 22.4335C74.1491 22.5812 74.3479 22.6722 74.5596 22.6911C74.8016 22.6913 75.0341 22.597 75.2079 22.4284C75.3816 22.2598 75.4829 22.0301 75.4902 21.788C75.4921 21.6065 75.4393 21.4286 75.3387 21.2776C75.2381 21.1266 75.0943 21.0094 74.9262 20.9413V20.3204C75.4365 20.2877 75.9396 20.1832 76.4208 20.01L77.0412 21.5622C76.9106 21.6886 76.8211 21.8514 76.7845 22.0294C76.7478 22.2074 76.7657 22.3924 76.8358 22.56C76.9059 22.7277 77.0248 22.8704 77.1772 22.9693C77.3296 23.0682 77.5082 23.1188 77.6898 23.1145C77.8083 23.1145 77.9256 23.0911 78.0351 23.0457C78.1446 23.0003 78.2441 22.9338 78.3278 22.85C78.4116 22.7661 78.4781 22.6665 78.5235 22.557C78.5688 22.4474 78.5922 22.33 78.5922 22.2114C78.5959 22.0904 78.5754 21.9699 78.5317 21.8571C78.4881 21.7442 78.4222 21.6413 78.338 21.5544C78.2539 21.4675 78.1531 21.3985 78.0417 21.3513C77.9304 21.3042 77.8107 21.2799 77.6898 21.28L77.013 19.756C77.5547 19.4434 78.0407 19.0428 78.4512 18.5706L80.9609 20.4333C80.947 20.5269 80.947 20.622 80.9609 20.7156C80.9571 20.8365 80.9777 20.957 81.0213 21.0698C81.065 21.1827 81.1309 21.2856 81.215 21.3725C81.2992 21.4594 81.4 21.5284 81.5113 21.5756C81.6227 21.6227 81.7424 21.647 81.8633 21.6469C82.1101 21.6469 82.3468 21.5488 82.5213 21.3741C82.6958 21.1995 82.7939 20.9626 82.7939 20.7156C82.8033 20.5822 82.7831 20.4484 82.7345 20.3238C82.686 20.1992 82.6105 20.087 82.5134 19.9951C82.4162 19.9033 82.2999 19.8343 82.1729 19.7929C82.0459 19.7515 81.9112 19.7389 81.7787 19.756Z" fill="#2E3551"/>
<path d="M140.518 102.618C140.327 102.618 140.139 102.677 139.983 102.787L137.473 100.896C137.748 100.497 137.94 100.045 138.037 99.5698H139.165C139.235 99.7391 139.351 99.8848 139.501 99.9899C139.651 100.095 139.828 100.155 140.011 100.162C140.258 100.162 140.494 100.064 140.669 99.8897C140.843 99.715 140.941 99.4781 140.941 99.2311C140.941 99.1101 140.917 98.9903 140.87 98.8789C140.823 98.7674 140.754 98.6666 140.667 98.5823C140.58 98.4981 140.478 98.4322 140.365 98.3885C140.252 98.3448 140.132 98.3242 140.011 98.328C139.819 98.3287 139.632 98.3887 139.475 98.4998C139.319 98.611 139.201 98.7678 139.137 98.9489H138.178C138.197 98.2963 138.061 97.6484 137.783 97.058L139.757 95.3646C139.868 95.39 139.984 95.39 140.095 95.3646C140.321 95.3656 140.538 95.2822 140.705 95.1307C140.872 94.9792 140.977 94.7707 140.998 94.5462C141.021 94.4122 141.015 94.2748 140.98 94.1434C140.945 94.0121 140.881 93.89 140.794 93.7859C140.707 93.6817 140.598 93.598 140.475 93.5405C140.351 93.4831 140.217 93.4533 140.081 93.4533C139.945 93.4533 139.811 93.4831 139.688 93.5405C139.565 93.598 139.456 93.6817 139.368 93.7859C139.281 93.89 139.218 94.0121 139.182 94.1434C139.147 94.2748 139.141 94.4122 139.165 94.5462C139.126 94.6846 139.126 94.831 139.165 94.9695L137.332 96.55C136.906 95.9246 136.382 95.3719 135.781 94.9131L135.358 94.5462L135.724 94.0946H135.894C136.136 94.0872 136.365 93.9859 136.534 93.812C136.702 93.6381 136.796 93.4054 136.796 93.1632C136.758 92.9476 136.645 92.7522 136.478 92.6114C136.31 92.4706 136.098 92.3934 135.88 92.3934C135.661 92.3934 135.449 92.4706 135.281 92.6114C135.114 92.7522 135.001 92.9476 134.963 93.1632C134.959 93.3826 135.04 93.5951 135.189 93.7559L134.85 94.2075C134.111 93.849 133.303 93.6563 132.482 93.643L131.946 91.865C132.073 91.7821 132.178 91.6694 132.252 91.5366C132.326 91.4037 132.366 91.2549 132.369 91.103C132.369 90.856 132.271 90.6191 132.096 90.4444C131.922 90.2697 131.685 90.1716 131.438 90.1716C131.191 90.1716 130.955 90.2697 130.78 90.4444C130.606 90.6191 130.508 90.856 130.508 91.103C130.514 91.3356 130.608 91.5573 130.769 91.7245C130.931 91.8916 131.15 91.9921 131.382 92.0061L131.889 93.6995C131.305 93.8194 130.755 94.0703 130.282 94.4333L130 94.0381C130.042 93.8906 130.042 93.7341 130 93.5866C129.962 93.3709 129.849 93.1755 129.682 93.0347C129.514 92.8939 129.302 92.8167 129.083 92.8167C128.865 92.8167 128.653 92.8939 128.485 93.0347C128.318 93.1755 128.205 93.3709 128.167 93.5866C128.167 93.8288 128.261 94.0615 128.429 94.2354C128.598 94.4092 128.827 94.5106 129.069 94.5179C129.19 94.5467 129.315 94.5467 129.436 94.5179L129.718 94.9413L129.38 95.3364C129.164 95.6239 128.984 95.9367 128.844 96.2677L126.024 94.6308C126.037 94.5467 126.037 94.4609 126.024 94.3768C126.028 94.2559 126.007 94.1354 125.963 94.0225C125.92 93.9097 125.854 93.8068 125.77 93.7199C125.686 93.633 125.585 93.564 125.473 93.5168C125.362 93.4697 125.242 93.4454 125.121 93.4455C124.875 93.4455 124.638 93.5436 124.463 93.7182C124.289 93.8929 124.191 94.1298 124.191 94.3768C124.191 94.4978 124.215 94.6176 124.262 94.7291C124.309 94.8405 124.378 94.9414 124.465 95.0256C124.552 95.1099 124.655 95.1758 124.767 95.2195C124.88 95.2632 125.001 95.2837 125.121 95.2799C125.305 95.2843 125.485 95.2245 125.629 95.1106L128.675 96.8322C128.589 97.098 128.532 97.3725 128.505 97.6506L126.898 97.2838C126.877 97.049 126.771 96.8301 126.599 96.6687C126.428 96.5074 126.203 96.4149 125.967 96.4089C125.846 96.4088 125.727 96.4331 125.615 96.4802C125.504 96.5273 125.403 96.5964 125.319 96.6833C125.235 96.7701 125.169 96.8731 125.125 96.9859C125.082 97.0988 125.061 97.2193 125.065 97.3402C125.06 97.5377 125.119 97.7315 125.235 97.8918C125.35 98.0521 125.515 98.1701 125.704 98.2278C125.893 98.2854 126.095 98.2795 126.28 98.211C126.465 98.1424 126.623 98.015 126.729 97.8482L128.364 98.1869C128.368 98.6937 128.444 99.1973 128.59 99.6827L125.206 101.263C125.123 101.136 125.011 101.031 124.878 100.957C124.745 100.883 124.596 100.843 124.445 100.84C124.198 100.84 123.961 100.938 123.787 101.113C123.612 101.287 123.514 101.524 123.514 101.771C123.514 101.892 123.538 102.012 123.585 102.123C123.632 102.235 123.701 102.336 123.788 102.42C123.875 102.504 123.978 102.57 124.091 102.614C124.203 102.658 124.324 102.678 124.445 102.674C124.672 102.682 124.893 102.601 125.062 102.448C125.23 102.295 125.332 102.083 125.347 101.856L128.787 100.247C128.787 100.473 129.041 100.699 129.182 100.924L128.336 101.432C128.176 101.304 127.977 101.235 127.772 101.235C127.638 101.211 127.501 101.217 127.37 101.253C127.239 101.288 127.117 101.351 127.013 101.439C126.908 101.526 126.825 101.635 126.767 101.759C126.71 101.882 126.68 102.016 126.68 102.152C126.68 102.288 126.71 102.422 126.767 102.546C126.825 102.669 126.908 102.778 127.013 102.866C127.117 102.953 127.239 103.017 127.37 103.052C127.501 103.087 127.638 103.093 127.772 103.069C127.891 103.069 128.008 103.046 128.118 103.001C128.227 102.955 128.326 102.889 128.41 102.805C128.494 102.721 128.561 102.621 128.606 102.512C128.651 102.402 128.675 102.285 128.675 102.166V101.941L129.521 101.404C129.765 101.687 130.039 101.942 130.338 102.166L130.846 102.505L129.831 104.255H129.718C129.597 104.251 129.477 104.272 129.364 104.315C129.251 104.359 129.148 104.425 129.062 104.509C128.975 104.593 128.906 104.694 128.859 104.806C128.812 104.917 128.787 105.037 128.787 105.158C128.787 105.405 128.885 105.642 129.06 105.816C129.234 105.991 129.471 106.089 129.718 106.089C129.839 106.089 129.959 106.065 130.07 106.018C130.181 105.971 130.282 105.902 130.366 105.815C130.45 105.728 130.516 105.625 130.56 105.512C130.604 105.399 130.624 105.279 130.62 105.158C130.62 104.966 130.561 104.779 130.451 104.622L131.523 102.787C132.031 103.014 132.575 103.148 133.13 103.182V103.606C132.914 103.66 132.726 103.793 132.602 103.978C132.478 104.164 132.427 104.388 132.458 104.609C132.49 104.83 132.602 105.031 132.773 105.174C132.944 105.317 133.161 105.392 133.384 105.384C133.623 105.384 133.853 105.289 134.022 105.119C134.191 104.95 134.286 104.72 134.286 104.481C134.29 104.302 134.242 104.127 134.146 103.976C134.051 103.825 133.913 103.706 133.75 103.634V103.182C134.253 103.14 134.747 103.026 135.217 102.844L135.837 104.396C135.754 104.482 135.689 104.584 135.645 104.695C135.602 104.806 135.581 104.925 135.583 105.045C135.58 105.166 135.6 105.286 135.644 105.399C135.688 105.512 135.753 105.615 135.838 105.702C135.922 105.789 136.023 105.858 136.134 105.905C136.245 105.952 136.365 105.976 136.486 105.976C136.733 105.976 136.969 105.878 137.144 105.704C137.318 105.529 137.416 105.292 137.416 105.045C137.416 104.924 137.392 104.804 137.345 104.693C137.298 104.581 137.229 104.48 137.142 104.396C137.055 104.312 136.953 104.246 136.84 104.202C136.727 104.159 136.607 104.138 136.486 104.142L135.837 102.59C136.4 102.308 136.891 101.903 137.275 101.404L139.813 103.295C139.798 103.389 139.798 103.484 139.813 103.577C139.821 103.82 139.922 104.049 140.096 104.218C140.269 104.386 140.502 104.481 140.744 104.481C140.959 104.443 141.155 104.33 141.295 104.162C141.436 103.994 141.513 103.782 141.513 103.563C141.513 103.344 141.436 103.132 141.295 102.965C141.155 102.797 140.959 102.684 140.744 102.646L140.518 102.618Z" fill="#2E3551"/>
<path d="M58.6269 105.412C58.3272 105.419 58.0349 105.506 57.7809 105.666L53.5792 102.618C54.0144 101.957 54.3206 101.22 54.4816 100.445H56.3991C56.5084 100.729 56.702 100.974 56.954 101.145C57.206 101.317 57.5044 101.407 57.8091 101.404C58.0863 101.403 58.3577 101.325 58.5931 101.179C58.8286 101.033 59.0187 100.824 59.1422 100.575C59.2658 100.327 59.3179 100.049 59.2928 99.773C59.2677 99.4967 59.1664 99.2329 59.0001 99.011C58.8338 98.7891 58.6091 98.6178 58.3511 98.5163C58.0932 98.4149 57.8121 98.3872 57.5394 98.4364C57.2666 98.4856 57.0129 98.6097 56.8065 98.7949C56.6002 98.9801 56.4494 99.2191 56.3709 99.4851H54.679C54.7188 98.4187 54.4858 97.3598 54.0022 96.4088L57.2169 93.5866C57.4117 93.6323 57.6144 93.6323 57.8091 93.5866C58.1158 93.6013 58.4195 93.5212 58.6791 93.3571C58.9387 93.1929 59.1414 92.9528 59.2598 92.6693C59.3782 92.3858 59.4065 92.0727 59.3408 91.7725C59.2752 91.4724 59.1187 91.1997 58.8928 90.9917C58.6668 90.7836 58.3823 90.6503 58.078 90.6098C57.7737 90.5692 57.4642 90.6235 57.1918 90.7651C56.9193 90.9068 56.6971 91.129 56.5553 91.4015C56.4135 91.6741 56.3589 91.9837 56.3991 92.2883C56.3192 92.5649 56.3192 92.8584 56.3991 93.135L53.41 95.6751C52.7326 94.6605 51.8832 93.7722 50.9002 93.0503C50.6223 92.8336 50.3302 92.6356 50.026 92.4577L50.59 91.7239H50.8438C51.1394 91.7239 51.4284 91.6361 51.6742 91.4718C51.9199 91.3074 52.1115 91.0738 52.2246 90.8005C52.3377 90.5272 52.3673 90.2264 52.3097 89.9362C52.252 89.6461 52.1097 89.3796 51.9006 89.1704C51.6916 88.9612 51.4253 88.8187 51.1354 88.761C50.8455 88.7033 50.545 88.7329 50.2719 88.8461C49.9988 88.9593 49.7653 89.1511 49.6011 89.397C49.4369 89.643 49.3492 89.9322 49.3492 90.2281C49.3493 90.5822 49.4799 90.9238 49.7158 91.1876L49.1518 91.9214C47.973 91.3207 46.6677 91.0111 45.3449 91.0183L44.4707 88.196C44.6702 88.0561 44.8332 87.8702 44.9461 87.6541C45.0589 87.4381 45.1183 87.198 45.1193 86.9542C45.1188 86.6621 45.0329 86.3765 44.8721 86.1327C44.7113 85.8889 44.4827 85.6975 44.2145 85.5822C43.9463 85.4669 43.6503 85.4328 43.3629 85.484C43.0755 85.5351 42.8094 85.6694 42.5974 85.8702C42.3854 86.071 42.2368 86.3296 42.1699 86.6139C42.103 86.8983 42.1208 87.196 42.2211 87.4704C42.3213 87.7448 42.4997 87.9837 42.7341 88.1578C42.9685 88.3319 43.2487 88.4335 43.5401 88.45L44.3579 91.2723C43.3963 91.4516 42.4948 91.8688 41.7354 92.4859L41.3124 91.7803C41.428 91.5634 41.4863 91.3205 41.4816 91.0747C41.4816 90.7789 41.3939 90.4897 41.2297 90.2437C41.0655 89.9977 40.832 89.806 40.5589 89.6928C40.2858 89.5796 39.9853 89.55 39.6954 89.6077C39.4055 89.6654 39.1392 89.8079 38.9302 90.017C38.7211 90.2262 38.5788 90.4928 38.5211 90.7829C38.4635 91.0731 38.4931 91.3738 38.6062 91.6472C38.7193 91.9205 38.9109 92.1541 39.1566 92.3185C39.4024 92.4828 39.6914 92.5705 39.987 92.5705C40.1823 92.6109 40.3838 92.6109 40.5792 92.5705L41.0304 93.2479C40.833 93.4455 40.6638 93.6712 40.4664 93.897C40.1378 94.3729 39.8455 94.8729 39.5922 95.3928L34.8829 92.7399C34.8966 92.5991 34.8966 92.4573 34.8829 92.3165C34.8829 92.0207 34.7952 91.7315 34.631 91.4855C34.4668 91.2395 34.2333 91.0478 33.9602 90.9346C33.6871 90.8214 33.3866 90.7918 33.0967 90.8495C32.8068 90.9072 32.5405 91.0497 32.3315 91.2588C32.1224 91.468 31.9801 91.7346 31.9224 92.0247C31.8648 92.3149 31.8944 92.6156 32.0075 92.889C32.1206 93.1623 32.3122 93.3959 32.5579 93.5603C32.8037 93.7246 33.0927 93.8124 33.3883 93.8124C33.693 93.8104 33.9893 93.7115 34.2343 93.5301C35.5315 94.2639 37.6464 95.4775 39.1974 96.3524C39.054 96.7938 38.9502 97.2472 38.8872 97.7071L36.6594 96.7475C36.6448 96.3681 36.4839 96.0092 36.2105 95.7461C35.9371 95.4829 35.5724 95.3361 35.1931 95.3364C34.7967 95.3364 34.4165 95.494 34.1362 95.7745C33.8559 96.055 33.6985 96.4355 33.6985 96.8322C33.6985 97.2289 33.8559 97.6093 34.1362 97.8899C34.4165 98.1704 34.7967 98.328 35.1931 98.328C35.4319 98.3226 35.6661 98.261 35.8767 98.1482C36.0874 98.0354 36.2686 97.8747 36.4056 97.6789L39.0846 98.2433C39.0864 99.0547 39.2003 99.862 39.423 100.642L33.8395 103.211C33.6996 103.011 33.514 102.848 33.2981 102.735C33.0821 102.622 32.8423 102.562 32.5987 102.561C32.3069 102.557 32.0202 102.638 31.7738 102.794C31.5275 102.951 31.3323 103.176 31.2123 103.442C31.0924 103.708 31.0529 104.004 31.0988 104.292C31.1447 104.581 31.274 104.849 31.4706 105.065C31.6673 105.281 31.9228 105.434 32.2055 105.506C32.4883 105.579 32.786 105.566 33.0618 105.471C33.3377 105.376 33.5797 105.202 33.758 104.971C33.9363 104.74 34.043 104.461 34.0651 104.17L39.705 101.545C39.8839 101.936 40.0912 102.314 40.3254 102.674L38.9718 103.493C38.7065 103.281 38.3772 103.167 38.0381 103.167C37.699 103.168 37.3703 103.284 37.1058 103.497C36.8414 103.709 36.6569 104.005 36.5828 104.336C36.5087 104.668 36.5493 105.014 36.698 105.319C36.8467 105.624 37.0945 105.869 37.4009 106.015C37.7073 106.16 38.054 106.197 38.384 106.119C38.7141 106.041 39.0079 105.854 39.2172 105.587C39.4265 105.32 39.5388 104.989 39.5358 104.65L39.4794 104.424L40.8894 103.549C41.2723 104.012 41.7076 104.429 42.1866 104.791C42.4486 104.977 42.7217 105.146 43.0043 105.299L41.3688 108.121H40.9458C40.6502 108.121 40.3612 108.209 40.1154 108.373C39.8696 108.538 39.6781 108.771 39.565 109.045C39.4518 109.318 39.4222 109.619 39.4799 109.909C39.5376 110.199 39.6799 110.466 39.8889 110.675C40.098 110.884 40.3643 111.026 40.6542 111.084C40.9441 111.142 41.2446 111.112 41.5177 110.999C41.7908 110.886 42.0242 110.694 42.1885 110.448C42.3527 110.202 42.4403 109.913 42.4403 109.617C42.4368 109.304 42.3385 108.999 42.1584 108.742L43.8785 105.779C44.7195 106.138 45.6164 106.348 46.5293 106.4V107.077C46.2674 107.15 46.0311 107.295 45.8467 107.495C45.6623 107.695 45.5371 107.942 45.485 108.209C45.433 108.477 45.4562 108.753 45.552 109.008C45.6478 109.262 45.8125 109.485 46.0277 109.652C46.2428 109.818 46.5 109.921 46.7704 109.95C47.0408 109.978 47.3138 109.931 47.5589 109.813C47.8041 109.696 48.0116 109.512 48.1585 109.283C48.3053 109.054 48.3856 108.788 48.3905 108.516C48.3923 108.223 48.3077 107.935 48.1473 107.689C47.9868 107.443 47.7575 107.25 47.4881 107.133V106.4C48.3084 106.335 49.1155 106.155 49.885 105.863L50.9002 108.375C50.6293 108.667 50.4783 109.05 50.4772 109.448C50.4772 109.744 50.5649 110.033 50.7291 110.279C50.8933 110.525 51.1268 110.716 51.3999 110.83C51.673 110.943 51.9735 110.973 52.2634 110.915C52.5533 110.857 52.8196 110.715 53.0286 110.505C53.2376 110.296 53.38 110.03 53.4377 109.74C53.4953 109.449 53.4657 109.149 53.3526 108.875C53.2395 108.602 53.0479 108.368 52.8021 108.204C52.5564 108.04 52.2674 107.952 51.9718 107.952H51.7744L50.7592 105.327C51.6464 104.843 52.4316 104.191 53.0716 103.408L57.1605 106.456C57.1451 106.606 57.1451 106.758 57.1605 106.908C57.1605 107.204 57.2482 107.493 57.4124 107.739C57.5766 107.985 57.81 108.176 58.0831 108.29C58.3562 108.403 58.6568 108.432 58.9467 108.375C59.2366 108.317 59.5029 108.175 59.7119 107.965C59.9209 107.756 60.0633 107.49 60.121 107.2C60.1786 106.909 60.149 106.609 60.0359 106.335C59.9228 106.062 59.7312 105.828 59.4854 105.664C59.2397 105.5 58.9507 105.412 58.6551 105.412H58.6269Z" fill="#2E3551"/>
<path d="M129.069 20.151C128.768 20.1484 128.473 20.237 128.223 20.405L124.078 17.357C124.528 16.7041 124.836 15.9636 124.981 15.1838H126.898C127.002 15.4663 127.191 15.7099 127.438 15.8816C127.685 16.0532 127.979 16.1446 128.28 16.1434C128.553 16.1458 128.821 16.0735 129.056 15.9342C129.29 15.7949 129.483 15.5939 129.611 15.3531C129.74 15.1123 129.8 14.8408 129.786 14.5681C129.771 14.2954 129.682 14.0318 129.529 13.8061C129.375 13.5803 129.163 13.4009 128.915 13.2873C128.667 13.1737 128.392 13.1303 128.121 13.1618C127.85 13.1932 127.593 13.2984 127.377 13.4658C127.162 13.6331 126.996 13.8564 126.898 14.1113H125.206C125.181 13.1268 124.93 12.1613 124.473 11.2891L127.688 8.4668C127.972 8.61765 128.297 8.67273 128.615 8.62384C128.933 8.57495 129.227 8.4247 129.452 8.19543C129.678 7.96616 129.824 7.67009 129.868 7.35123C129.913 7.03236 129.853 6.70771 129.698 6.42551C129.543 6.14331 129.302 5.91863 129.009 5.78485C128.717 5.65107 128.389 5.61532 128.074 5.68293C127.76 5.75054 127.475 5.91789 127.263 6.16011C127.052 6.40234 126.923 6.70652 126.898 7.02744C126.903 7.26671 126.971 7.50042 127.095 7.70479L124.078 10.2731C123.4 9.25884 122.551 8.37064 121.568 7.64834L120.666 7.02744L121.23 6.29365H121.512C121.853 6.29236 122.184 6.17411 122.449 5.95858C122.714 5.74305 122.897 5.44323 122.968 5.109C123.039 4.77477 122.994 4.42627 122.839 4.12149C122.685 3.81671 122.431 3.57403 122.12 3.4338C121.808 3.29358 121.458 3.26427 121.128 3.35076C120.798 3.43724 120.507 3.63431 120.304 3.90917C120.101 4.18403 119.999 4.52012 120.013 4.86152C120.028 5.20291 120.159 5.52904 120.384 5.78564L119.82 6.51943C118.611 5.92156 117.277 5.62158 115.928 5.64453L115.054 2.82226C115.245 2.6603 115.395 2.45606 115.493 2.22579C115.591 1.99551 115.634 1.74556 115.618 1.49579C115.516 1.20355 115.325 0.950414 115.072 0.771342C114.82 0.59227 114.518 0.496094 114.208 0.496094C113.899 0.496094 113.597 0.59227 113.344 0.771342C113.092 0.950414 112.901 1.20355 112.798 1.49579C112.798 1.87078 112.941 2.23179 113.197 2.5047C113.454 2.77762 113.806 2.94174 114.18 2.96337L114.998 5.78564C114.051 5.96658 113.161 6.37316 112.404 6.971L111.952 6.29365C112.039 6.08863 112.077 5.86666 112.065 5.64453C112.065 5.34869 111.977 5.05949 111.813 4.8135C111.649 4.56752 111.416 4.3758 111.142 4.26259C110.869 4.14937 110.569 4.11975 110.279 4.17747C109.989 4.23518 109.723 4.37764 109.514 4.58684C109.305 4.79603 109.162 5.06255 109.105 5.35271C109.047 5.64287 109.077 5.94363 109.19 6.21695C109.303 6.49027 109.494 6.72388 109.74 6.88825C109.986 7.05261 110.275 7.14033 110.571 7.14033C110.757 7.16945 110.948 7.16945 111.135 7.14033L111.586 7.81768L111.05 8.4668C110.701 8.91952 110.408 9.41218 110.176 9.93438C108.85 9.22882 107.046 8.2128 105.438 7.30967C105.465 7.16982 105.465 7.02618 105.438 6.88633C105.439 6.5588 105.331 6.24033 105.13 5.98164C104.929 5.72294 104.648 5.53888 104.331 5.45875C104.013 5.37862 103.678 5.40704 103.379 5.53947C103.08 5.6719 102.833 5.90074 102.679 6.18955C102.524 6.47837 102.471 6.81056 102.527 7.13325C102.583 7.45594 102.746 7.75057 102.988 7.97026C103.231 8.18994 103.54 8.32205 103.867 8.34554C104.193 8.36903 104.518 8.28257 104.79 8.09991L109.725 10.9222C109.59 11.3548 109.496 11.7988 109.443 12.2486L107.158 11.4584C107.13 11.0816 106.96 10.7295 106.683 10.473C106.405 10.2164 106.041 10.0744 105.664 10.0755C105.406 10.0721 105.151 10.1358 104.925 10.2602C104.698 10.3847 104.508 10.5657 104.372 10.7856C104.237 11.0056 104.161 11.2569 104.151 11.5152C104.141 11.7734 104.199 12.0298 104.317 12.2593C104.436 12.4887 104.612 12.6835 104.829 12.8245C105.045 12.9656 105.294 13.0481 105.552 13.0641C105.81 13.0801 106.067 13.029 106.299 12.9157C106.531 12.8025 106.73 12.631 106.876 12.418L109.696 12.9542C109.69 13.7683 109.813 14.5782 110.063 15.3531L104.338 17.9496C104.142 17.6652 103.852 17.4591 103.519 17.3676C103.186 17.2761 102.832 17.3052 102.518 17.4496C102.205 17.5941 101.952 17.8447 101.805 18.1572C101.658 18.4698 101.625 18.8243 101.714 19.1584C101.802 19.4924 102.005 19.7846 102.288 19.9833C102.57 20.1821 102.914 20.2747 103.258 20.245C103.602 20.2152 103.924 20.0649 104.168 19.8205C104.412 19.5762 104.562 19.2535 104.592 18.9092L110.232 16.2845C110.401 16.6752 110.599 17.0525 110.824 17.4134L109.499 18.2319C109.234 18.0202 108.907 17.9013 108.568 17.8932C108.272 17.8876 107.98 17.9705 107.73 18.1314C107.481 18.2924 107.285 18.524 107.168 18.7968C107.05 19.0695 107.017 19.3711 107.071 19.6631C107.125 19.9551 107.265 20.2243 107.473 20.4363C107.681 20.6483 107.947 20.7936 108.238 20.8537C108.529 20.9137 108.831 20.8858 109.105 20.7734C109.38 20.6611 109.615 20.4694 109.781 20.2229C109.946 19.9763 110.035 19.686 110.035 19.389C110.05 19.2861 110.05 19.1815 110.035 19.0785L111.445 18.1754C111.838 18.6386 112.282 19.0553 112.77 19.4172L113.56 19.9535L111.924 22.7757C111.794 22.7466 111.659 22.7466 111.529 22.7757C111.304 22.6964 111.063 22.6724 110.826 22.7055C110.59 22.7387 110.365 22.8281 110.17 22.9663C109.975 23.1045 109.816 23.2875 109.706 23.4998C109.596 23.7122 109.539 23.9478 109.539 24.1869C109.539 24.4259 109.596 24.6615 109.706 24.8739C109.816 25.0863 109.975 25.2692 110.17 25.4074C110.365 25.5456 110.59 25.635 110.826 25.6682C111.063 25.7014 111.304 25.6773 111.529 25.598C111.867 25.5471 112.177 25.3822 112.408 25.1306C112.638 24.879 112.776 24.556 112.798 24.2151C112.791 23.911 112.693 23.6161 112.516 23.3684L114.208 20.3768C115.045 20.7488 115.944 20.9595 116.859 20.9977V21.675C116.59 21.7487 116.347 21.8962 116.158 22.1008C115.968 22.3054 115.84 22.5589 115.787 22.8328C115.734 23.1067 115.758 23.3899 115.857 23.6506C115.957 23.9113 116.127 24.139 116.349 24.3079C116.57 24.4769 116.835 24.5804 117.112 24.6068C117.39 24.6332 117.669 24.5814 117.919 24.4572C118.169 24.3331 118.379 24.1415 118.525 23.9043C118.672 23.667 118.749 23.3934 118.748 23.1144C118.752 22.8238 118.668 22.5389 118.507 22.2971C118.346 22.0553 118.116 21.8679 117.846 21.7597V20.9977C118.668 20.9438 119.476 20.7629 120.243 20.4615L121.258 23.0015C121.081 23.1746 120.949 23.3891 120.875 23.6257C120.801 23.8623 120.787 24.1135 120.835 24.3569C120.882 24.6003 120.989 24.8281 121.145 25.0199C121.302 25.2117 121.504 25.3615 121.734 25.4557C121.963 25.55 122.211 25.5858 122.458 25.5599C122.704 25.534 122.94 25.4473 123.145 25.3074C123.349 25.1676 123.516 24.9791 123.63 24.7589C123.743 24.5387 123.801 24.2936 123.796 24.0457C123.79 23.6727 123.645 23.3154 123.389 23.0439C123.134 22.7724 122.786 22.6063 122.414 22.5782H122.245L121.258 20.0663C122.147 19.5726 122.94 18.9225 123.599 18.1472L127.688 21.1953C127.658 21.3443 127.658 21.4978 127.688 21.6468C127.688 21.9427 127.775 22.2319 127.94 22.4778C128.104 22.7238 128.337 22.9155 128.61 23.0288C128.883 23.142 129.184 23.1716 129.474 23.1139C129.764 23.0562 130.03 22.9137 130.239 22.7045C130.448 22.4953 130.59 22.2288 130.648 21.9386C130.706 21.6485 130.676 21.3477 130.563 21.0744C130.45 20.8011 130.258 20.5675 130.013 20.4031C129.767 20.2387 129.478 20.151 129.182 20.151H129.069Z" fill="#2E3551"/>
</svg>
