<svg width="117" height="148" viewBox="0 0 117 148" fill="none" xmlns="http://www.w3.org/2000/svg">
<path d="M104.808 93.6278C104.808 93.6278 116.361 89.9251 116.361 83.6689C116.361 77.4128 115.434 74.0932 110.183 73.7101C110.183 73.7101 122.848 59.8891 109.256 52.3561C112.068 50.4324 114.07 47.4802 114.861 44.0931C115.652 40.706 115.173 37.1351 113.519 34.0983C107.866 22.352 101.379 15.1383 89.9797 23.15C78.5807 31.1618 98.0733 42.3016 98.0733 42.3016L94.9842 66.656L104.808 93.6278Z" fill="#2E3551"/>
<path d="M107.742 56.6337C107.742 56.6337 108.453 88.5529 111.542 102.214C114.631 115.876 122.014 134.133 97.3937 143.39C72.7731 152.646 41.0164 146.326 35.6104 130.941C30.2044 115.556 27.2697 87.1803 27.2697 87.1803L28.1346 53.5376L42.3139 39.6208L83.3998 41.5041L107.742 56.6337Z" fill="#F4BAAE"/>
<path d="M65.5136 82.488C59.1442 82.7225 52.8123 83.5988 46.6079 85.1047L46.7623 86.1897C52.9055 84.3591 59.2748 83.4668 65.668 83.5411L65.5136 82.488Z" fill="#2E3551"/>
<path d="M58.9954 83.6694C59.1491 84.0909 59.207 84.5432 59.1645 84.9914C59.122 85.4396 58.9803 85.8717 58.7504 86.2544C58.5204 86.637 58.2084 86.9598 57.8384 87.1979C57.4685 87.436 57.0504 87.5829 56.6167 87.6274C53.1568 88.2658 52.817 84.2121 52.817 84.2121L58.9954 83.6694Z" fill="#2E3551"/>
<path d="M88.5587 79.8071C94.9118 79.3167 101.296 79.477 107.619 80.2858V81.3708C101.324 80.2317 94.9018 80.0597 88.5587 80.8602V79.8071Z" fill="#2E3551"/>
<path d="M95.1695 80.1896C95.0527 80.6247 95.0368 81.0821 95.1231 81.5247C95.2094 81.9674 95.3956 82.3827 95.6664 82.7371C95.9372 83.0915 96.2851 83.375 96.6819 83.5645C97.0786 83.7539 97.513 83.8441 97.9498 83.8277C101.471 84.083 101.348 80.03 101.348 80.03L95.1695 80.1896Z" fill="#2E3551"/>
<g style="mix-blend-mode:multiply">
<path d="M89.7943 104.449C87.7246 109.364 81.8243 102.087 81.8243 102.087C81.8243 102.087 79.3839 104.193 77.4686 103.715C75.5533 103.236 70.796 52.9309 71.8463 52.3883C75.1517 50.7285 91.895 99.5332 89.7943 104.449Z" fill="#F4BAAE"/>
</g>
<path d="M12.071 93.0535C12.071 93.0535 13.5847 107.896 18.5273 111.056C23.47 114.216 31.9034 114.631 34.591 103.204C36.2415 96.8828 35.9391 90.1869 33.726 84.0522C33.726 84.0522 46.9476 81.2753 46.0827 72.0506C45.2177 62.826 43.2406 65.8902 43.2406 65.8902C44.6925 64.7197 45.8376 63.1923 46.5715 61.4471C47.3053 59.702 47.6046 57.7948 47.4419 55.8995C51.5218 55.4741 55.4318 53.992 58.81 51.5904C62.9186 48.0154 67.3979 44.0574 67.4906 39.876C68.9649 41.3246 70.7225 42.43 72.645 43.1177C74.5675 43.8054 76.6103 44.0595 78.6358 43.863C80.6614 43.6664 82.6227 43.0236 84.3876 41.978C86.1525 40.9324 87.6802 39.5082 88.8676 37.8013C99.5252 25.0336 96.0345 17.3411 93.1925 13.5746C89.0221 8.05256 82.8438 11.1168 80.8358 12.4893C80.8358 12.4893 80.8358 -1.33169 64.4941 0.104674C48.1524 1.54104 49.0483 13.5746 49.0483 13.5746C43.731 12.7824 38.3086 13.8021 33.6024 16.4792C29.1232 19.1605 27.3623 29.8215 27.3623 29.8215C27.3623 29.8215 9.44517 27.8106 2.15474 50.4094C-5.13569 73.0082 8.08594 92.5747 12.071 93.0535Z" fill="#2E3551"/>
<path d="M80.8358 39.6206C80.8358 39.6206 80.4033 50.122 90.1033 52.3883C99.8032 54.6546 100.792 50.122 100.792 50.122C100.792 50.122 95.7564 53.9843 101.935 58.4529C108.113 62.9216 114.971 55.4206 112.314 49.0368C109.658 42.653 100.668 25.4805 87.601 28.1297C74.5339 30.779 80.8358 39.6206 80.8358 39.6206Z" fill="#2E3551"/>
<path d="M49.1409 47.632C51.3829 51.9681 54.9756 55.3954 59.3373 57.3592C63.6991 59.323 68.5746 59.7083 73.1746 58.4526C90.3195 54.5585 90.7829 35.758 90.7829 35.758L77.2214 25.7354L49.1409 47.632Z" fill="#2E3551"/>
<g style="mix-blend-mode:multiply">
<path d="M69.8383 91.1067C69.77 90.5893 69.548 90.1066 69.2028 89.7252C68.8577 89.3438 68.4065 89.0825 67.9114 88.9774C67.4164 88.8723 66.9021 88.9286 66.4393 89.1385C65.9766 89.3483 65.5883 89.7015 65.3281 90.1491C63.938 92.8941 59.4587 103.364 56.0606 104.8C52.6626 106.236 51.8285 109.492 55.1957 110.322C58.5629 111.152 71.7227 103.619 69.8383 91.1067Z" fill="#F4BAAE"/>
</g>
<g style="mix-blend-mode:multiply">
<path d="M89.0221 88.9354C88.9617 88.4192 89.0554 87.8962 89.2904 87.4364C89.5255 86.9767 89.8908 86.602 90.3375 86.3626C90.7842 86.1231 91.291 86.0303 91.7901 86.0965C92.2893 86.1626 92.7569 86.3847 93.1307 86.7329C95.2004 88.9673 102.213 97.841 105.889 98.2559C109.565 98.6709 111.202 101.671 108.113 103.395C105.024 105.119 90.474 101.48 89.0221 88.9354Z" fill="#F4BAAE"/>
</g>
<path d="M41.9123 101.448C41.9123 101.448 65.5135 101.448 71.6918 99.6926C77.8702 97.937 80.0635 87.3399 86.9523 88.9358C93.8411 90.5318 95.7564 98.9585 101.379 97.2348C103.06 96.7653 104.829 96.7445 106.52 97.1743C108.211 97.6042 109.769 98.4707 111.048 99.6926C114.144 106.527 115.515 114.06 115.033 121.589C114.168 133.878 112.747 145.752 80.8358 147.635C48.9247 149.518 44.2909 143.645 44.1674 140.677C44.0438 137.708 33.5097 113.194 41.9123 101.448Z" fill="white"/>
<path d="M24.8601 80.3811C24.8601 80.3811 39.4718 102.469 43.3951 103.778C47.3183 105.087 45.5575 101.448 45.5575 101.448C45.5575 101.448 24.304 72.4651 24.8601 80.3811Z" fill="white"/>
<path d="M30.3588 112.237C32.8919 120.728 43.0553 143.422 46.1444 143.837C49.2336 144.252 47.5655 141.092 47.5655 141.092C47.5655 141.092 27.2079 101.704 30.3588 112.237Z" fill="white"/>
<path d="M30.8839 103.715L26.7753 83.1901C26.603 82.3208 26.1185 81.5512 25.4193 81.036C24.7201 80.5208 23.8581 80.2982 23.0066 80.4131C19.176 80.86 13.461 82.7113 14.6967 89.989C16.5502 100.554 22.0489 98.8627 22.0489 98.8627C22.0489 98.8627 20.2263 111.982 30.8839 103.715Z" fill="#F4BAAE"/>
</svg>
