<svg width="116" height="110" viewBox="0 0 116 110" fill="none" xmlns="http://www.w3.org/2000/svg">
<g clip-path="url(#clip0)">
<path d="M73.7947 109.24H73.4995C62.0127 106.798 60.9305 94.8801 59.9712 84.403C59.0857 74.4388 58.2248 65.0362 50.4522 61.5927C45.9756 59.6145 42.163 59.4191 39.1622 61.0066C33.4065 64.0593 31.7832 72.7536 31.7832 72.8269L27.0605 71.9965C27.0605 71.5569 29.0037 60.9333 36.8993 56.7327C41.2776 54.2905 46.5167 54.5347 52.4446 57.1723C62.7998 61.7392 63.8575 73.5351 64.743 84.0367C65.8007 95.7837 66.9813 103.037 74.4588 104.625C75.3147 104.841 76.2111 104.845 77.069 104.636C77.9268 104.427 78.7198 104.012 79.3782 103.428C88.6266 95.9303 90.3976 62.3498 90.2992 50.041H95.2186C95.2186 54.8033 95.2186 96.8827 82.502 107.164C81.3059 108.146 79.8996 108.844 78.3905 109.204C76.8814 109.563 75.3094 109.576 73.7947 109.24V109.24Z" fill="#F6E3D4"/>
<path d="M27.1836 70.8245C25.6831 72.3387 20.9851 76.1486 20.1242 79.1525C19.2634 82.1564 27.0852 84.2811 27.8231 84.4277C28.561 84.5742 34.5626 85.6732 35.2021 82.5716C35.8417 79.47 33.2836 73.2423 32.1767 71.0199C31.877 70.6579 31.5036 70.363 31.0809 70.1545C30.6582 69.946 30.1959 69.8286 29.7243 69.8102C29.2527 69.7917 28.7825 69.8726 28.3446 70.0474C27.9067 70.2222 27.511 70.4871 27.1836 70.8245V70.8245Z" fill="#2E3551"/>
<g style="mix-blend-mode:multiply">
<path d="M33.8247 83.3531C33.5788 84.3055 30.5534 84.4032 27.0606 83.5484C23.5678 82.6937 20.9114 81.1062 21.1573 80.2515C21.4033 79.3967 24.4287 79.1769 27.9215 80.0317C31.4142 80.8864 34.0707 82.3762 33.8247 83.3531Z" fill="#2E3551"/>
</g>
<path d="M85.0846 51.5063C79.3173 50.6138 74.0727 47.6716 70.3265 43.2272C60.2418 31.0161 64.0789 10.8922 64.2511 10.0619L68.9737 10.9655C68.9737 11.1609 65.4071 29.7462 74.0652 40.2721C77.9761 45.01 83.904 47.4034 91.775 47.4034C98.8097 47.4034 103.778 45.3275 106.951 41.0048C115.609 29.4287 108.23 6.27645 108.23 6.03222L112.83 4.56689C113.174 5.61705 120.971 30.2834 111.084 43.6424C106.976 49.2106 100.556 52.0192 91.9718 52.0192C89.665 52.0624 87.3592 51.8907 85.0846 51.5063V51.5063Z" fill="#2E3551"/>
<path d="M68.0391 12.2111C68.0391 12.2111 72.9584 12.724 73.5734 11.7227C73.9746 9.75427 74.1479 7.74676 74.0899 5.73925C74.0899 5.73925 65.5302 0.854822 64.5217 9.37816C63.5132 17.9015 68.0391 12.2111 68.0391 12.2111Z" fill="#2E3551"/>
<path d="M49.4389 25.8876H34.8038V11.3564H23.9566V25.8876H9.32141V36.6578H23.9566V51.189H34.8038V36.6578H49.4389V25.8876Z" fill="#C0414C"/>
<path d="M109.95 7.75898C109.95 7.75898 105.031 8.54049 104.367 7.58802C103.875 5.63693 103.595 3.63926 103.531 1.62901C103.531 1.62901 111.82 -3.62175 113.369 4.73063C114.919 13.083 109.95 7.75898 109.95 7.75898Z" fill="#2E3551"/>
</g>
<defs>
<clipPath id="clip0">
<rect width="116" height="109.483" fill="white"/>
</clipPath>
</defs>
</svg>
