<svg width="59" height="136" viewBox="0 0 59 136" fill="none" xmlns="http://www.w3.org/2000/svg">
<path d="M26.1516 54.5979V27.1399L46.8991 0L51.1164 3.54091L31.7676 28.0305L31.6405 54.5979H26.1516Z" fill="#62A7A2"/>
<path d="M46.6235 131.332L56.69 60.4288L2.30994 58.3085L2.88213 128.279C2.88213 128.279 25.2826 141.106 46.6235 131.332Z" fill="#62A7A2"/>
<path d="M0 59.0931L59 61.9343V59.1355L56.69 58.3298V52.7746L2.30999 51.46V55.0221L0 55.2977V59.0931Z" fill="#E5E4CC"/>
<path d="M17.399 73.9563C13.5208 75.695 7.14186 79.1723 8.26507 91.2792C9.38827 103.386 19.2428 103.535 19.2428 103.535V108.835L24.2018 109.387L24.9436 103.026H27.6562L27.4443 109.853L31.6828 110.32L32.3186 102.983H34.2471V109.344L38.4856 109.047L39.1002 102.093C39.1002 102.093 45.6063 102.58 47.005 86.9326C48.4037 71.2847 23.5661 71.1999 17.399 73.9563Z" fill="#2E3551"/>
<path d="M16.1911 79.7659C14.946 80.3043 13.8339 81.1092 12.9332 82.1239C12.0325 83.1387 11.365 84.3386 10.9777 85.6392C10.1724 89.6254 14.5593 93.6327 19.8574 92.9967C25.1555 92.3606 26.2152 88.9257 26.4271 87.5263C26.639 86.1269 19.7938 79.1934 16.1911 79.7659Z" fill="#E5E4CC"/>
<path d="M39.079 78.9179C40.3256 79.4633 41.4391 80.2728 42.3428 81.2904C43.2465 82.308 43.9189 83.5096 44.3136 84.8123C45.1189 88.7985 40.732 92.8059 35.4127 92.191C30.0934 91.5761 29.055 88.1412 28.8642 86.7206C28.6735 85.3 35.4763 78.4514 39.079 78.9179Z" fill="#E5E4CC"/>
<path d="M27.2112 92.2122C27.2112 92.2122 27.6351 99.9089 26.5754 99.5909C25.5158 99.2729 22.9939 97.0041 23.3118 96.6649C23.6297 96.3256 25.7066 91.6185 27.2112 92.2122Z" fill="#E5E4CC"/>
<path d="M28.949 92.2122C28.949 92.2122 28.504 99.9089 29.6696 99.6545C30.8352 99.4001 33.2723 97.0677 32.9544 96.7285C32.6365 96.3892 30.4325 91.6185 28.949 92.2122Z" fill="#E5E4CC"/>
</svg>
