<svg width="56" height="115" viewBox="0 0 56 115" fill="none" xmlns="http://www.w3.org/2000/svg">
<path d="M24.8219 46.5077V23.1184L44.5144 0L48.5173 3.01623L30.1523 23.8769L30.0316 46.5077H24.8219Z" fill="#62A7A2"/>
<path d="M44.2528 111.871L53.8074 51.4745L2.19247 49.6684L2.73558 109.27C2.73558 109.27 23.9971 120.197 44.2528 111.871Z" fill="#62A7A2"/>
<path d="M0 50.3368L56 52.757V50.3729L53.8075 49.6866V44.9545L2.19253 43.8347V46.869L0 47.1038V50.3368Z" fill="#E5E4CC"/>
<path d="M16.5143 62.9975C12.8333 64.4786 6.77871 67.4406 7.8448 77.7536C8.9109 88.0665 18.2643 88.193 18.2643 88.193V92.7083L22.9712 93.1779L23.6753 87.7595H26.25L26.0488 93.5752L30.0718 93.9725L30.6753 87.7234H32.5057V93.1417L36.5287 92.8889L37.112 86.9648C37.112 86.9648 43.2873 87.3802 44.6149 74.051C45.9425 60.7218 22.3678 60.6496 16.5143 62.9975Z" fill="#2E3551"/>
<path d="M15.3678 67.9463C14.186 68.405 13.1305 69.0906 12.2756 69.9549C11.4207 70.8193 10.7871 71.8414 10.4196 72.9493C9.65518 76.3448 13.819 79.7584 18.8477 79.2165C23.8764 78.6747 24.8822 75.7488 25.0833 74.5567C25.2845 73.3647 18.7874 67.4587 15.3678 67.9463Z" fill="#E5E4CC"/>
<path d="M37.0919 67.224C38.2751 67.6886 39.332 68.3781 40.1898 69.2449C41.0475 70.1117 41.6857 71.1353 42.0603 72.245C42.8247 75.6405 38.6609 79.0541 33.6121 78.5303C28.5632 78.0065 27.5776 75.0806 27.3965 73.8705C27.2155 72.6604 33.6724 66.8266 37.0919 67.224Z" fill="#E5E4CC"/>
<path d="M25.8276 78.5483C25.8276 78.5483 26.2299 85.1045 25.2242 84.8336C24.2184 84.5627 21.8247 82.6302 22.1265 82.3412C22.4282 82.0522 24.3994 78.0426 25.8276 78.5483Z" fill="#E5E4CC"/>
<path d="M27.4771 78.5483C27.4771 78.5483 27.0546 85.1046 28.161 84.8878C29.2673 84.6711 31.5805 82.6844 31.2788 82.3954C30.9771 82.1064 28.8851 78.0426 27.4771 78.5483Z" fill="#E5E4CC"/>
</svg>
